<?xml version="1.0" encoding="utf-8"?>
<!-- Generator: Adobe Illustrator 16.0.0, SVG Export Plug-In . SVG Version: 6.00 Build 0)  -->
<!DOCTYPE svg PUBLIC "-//W3C//DTD SVG 1.1//EN" "http://www.w3.org/Graphics/SVG/1.1/DTD/svg11.dtd">
<svg version="1.1" id="Layer_1" xmlns="http://www.w3.org/2000/svg" xmlns:xlink="http://www.w3.org/1999/xlink" x="0px" y="0px"
	 width="1780.898px" height="1051.908px" viewBox="0 0 1780.898 1051.908" enable-background="new 0 0 1780.898 1051.908"
	 xml:space="preserve">
<linearGradient id="SVGID_1_" gradientUnits="userSpaceOnUse" x1="445.8193" y1="1452.0674" x2="445.8191" y2="-4880.9077">
	<stop  offset="0" style="stop-color:#FFFFFF;stop-opacity:0"/>
	<stop  offset="0.0622" style="stop-color:#E2F3F2;stop-opacity:0.3948"/>
	<stop  offset="0.1576" style="stop-color:#B3E0E1"/>
	<stop  offset="0.4429" style="stop-color:#1D76BB;stop-opacity:0.6"/>
	<stop  offset="0.4517" style="stop-color:#2A74BA;stop-opacity:0.6064"/>
	<stop  offset="0.5285" style="stop-color:#5A64AC;stop-opacity:0.6615"/>
	<stop  offset="0.6089" style="stop-color:#7154A0;stop-opacity:0.7192"/>
	<stop  offset="0.6928" style="stop-color:#804498;stop-opacity:0.7794"/>
	<stop  offset="0.7816" style="stop-color:#893791;stop-opacity:0.8432"/>
	<stop  offset="0.8788" style="stop-color:#8F2D8E;stop-opacity:0.913"/>
	<stop  offset="1" style="stop-color:#90298D"/>
</linearGradient>
<rect x="-2372.5" y="-3851.725" fill="url(#SVGID_1_)" width="5636.638" height="4917.097"/>
<linearGradient id="SVGID_2_" gradientUnits="userSpaceOnUse" x1="1731.2256" y1="462.4717" x2="1811.4205" y2="908.8917">
	<stop  offset="0" style="stop-color:#FFFFFF"/>
	<stop  offset="0.1413" style="stop-color:#FFFFFF;stop-opacity:0.8587"/>
	<stop  offset="1" style="stop-color:#FFFFFF;stop-opacity:0"/>
</linearGradient>
<path fill="url(#SVGID_2_)" d="M2736.018,483.422c-46.474-4.559-104.839,4.04-153.025,6c-54.329,2.211-101.68,24.743-155.338,30.159
	c-113.179,11.423-234.724,4.206-348.771-0.155c-51.291-1.961-82.616-44.945-130.609-45.672c-12.831-0.195-27.552,3.063-40.339,0.667
	c-13.704-2.566-19.323-9.226-33.003-12.07c-56.359-11.722-87.273,20.599-139.281,27.168c-40.963,5.17-54.616,18.097-86.479,25.853
	c-31.859,7.756-54.619-15.512-100.135-10.34c-45.514,5.17-36.414,20.681-100.134,23.266c-63.721,2.585-36.412,20.682-104.686,31.023
	c-68.272,10.34-31.86,18.096-72.824,25.852c-40.965,7.756-40.965,15.512-59.171,25.852c-18.204,10.341-40.965-7.755-109.236-5.17
	c-68.274,2.585-81.928,25.853-81.928,25.853s0,0-31.859-7.757c-54.621-5.17-72.828,18.098-104.688,28.438
	c-31.859,10.342-118.34,10.342-118.34,10.342s58.767,97.566,98.253,156.097H1792"/>
<linearGradient id="SVGID_3_" gradientUnits="userSpaceOnUse" x1="1662.9414" y1="334.3545" x2="1748.5083" y2="877.6302">
	<stop  offset="0" style="stop-color:#FFFFFF"/>
	<stop  offset="0.1413" style="stop-color:#FFFFFF;stop-opacity:0.8587"/>
	<stop  offset="1" style="stop-color:#FFFFFF;stop-opacity:0"/>
</linearGradient>
<path fill="url(#SVGID_3_)" d="M1792,681.639H864.424c-257.066,40.372-384.188-17.391-384.188-17.391
	s209.748-25.271,404.274-149.047c24.438-15.549,50.067-33.609,104.688-28.438c31.859,7.756,31.859,7.756,31.859,7.756
	s13.653-23.268,81.928-25.854c68.271-2.584,91.032,15.512,109.236,5.171c18.206-10.341,18.206-18.096,59.171-25.852
	c40.964-7.755,4.552-15.511,72.824-25.853c68.273-10.341,40.965-28.438,104.686-31.023c63.72-2.584,54.62-18.096,100.134-23.266
	c45.516-5.17,68.275,18.096,100.135,10.34c31.862-7.754,45.516-20.681,86.479-25.851c24.807-3.133,44.59-10.999,56.35-16.722
	c0,0,49.975-6.056,75.979-4.96c16.817,0.708,32.475,6.937,49.072,8.949c22.823,2.769,45.45-2.702,68.653-1.554
	c0.555,1.884,0.077,3.517,0.59,5.41c15.211,3.077,31.908,1.254,45.651,7.8c11.604,5.527,24.158,19.851,34.15,27.946
	c15.25,12.359,24.699,22.107,45.896,24.104c17.015,1.604,34.831,0.445,52.007,0.445c44.906,0,83.778,13.708,126,20
	c42.15,6.281,71.994-27.674,116.039-26c37.875,1.439,75.227,12.245,112.064,16c49.877,5.084,95.271-6.081,143.857-8
	c44.462-1.756,95.131-4.578,138.086,4c28.982,5.788,71.945-2.467,100.057,7.844c4.166,1.527,9.385,5.197,11.896,8.156"/>
<linearGradient id="SVGID_4_" gradientUnits="userSpaceOnUse" x1="579.0664" y1="441.0938" x2="665.6547" y2="923.1035" gradientTransform="matrix(-1 0 0 1 571.7217 0)">
	<stop  offset="0" style="stop-color:#FFFFFF"/>
	<stop  offset="0.1413" style="stop-color:#FFFFFF;stop-opacity:0.8587"/>
	<stop  offset="1" style="stop-color:#FFFFFF;stop-opacity:0"/>
</linearGradient>
<path fill="url(#SVGID_4_)" d="M-1192,463.752c16.779-2.158,32.743-10.458,48.595-16.057c17.489-6.178,34.036-7.604,51.644-13.794
	c33.684-11.841,66.509-27.775,101.762-30.149c32.562-2.193,71.909-6.178,97.555,15.11c15.583,12.935,17.92,21.913,40.445,17.327
	c13.839-2.816,28.113-10.357,39.602-18.939c57.364-42.853,121.495-49.498,194.345-49.498c21.229,0,40.461-0.882,59.95,6.007
	c18.097,6.397,35.391,22.926,52.104,25.993c17.306,3.176,36.735-5.514,54.014-4c25.636,2.246,48.495,16.024,74.267,18.094
	c19.454,1.563,41.75-4.768,58.697,8.574c17.443,13.742,30.118,10.929,52.163,13.5c11.107,1.295,23.404,5.491,31.493,13.094
	c6.883,6.468,13.7,22.242,24.004,26.345c25.882,10.304,43.758-25.547,68.997-22.94c12.708,1.313,18.31,10.842,28.872,16.127
	c10.527,5.266,24.165,6.934,35.702,9.373c20.992,4.436,54.439,4.365,52.646,32.766c11.426-1.865,18.446-8.98,31.271-7.602
	c11.627,1.25,17.99,8.002,27.333,13.5c16.212,9.541,39.368,1.046,56.742,8.187c21.778,8.95,38.672,19.388,63.37,22.507
	c40.961,5.17,54.617,18.098,86.476,25.852c31.861,7.756,54.622-15.51,100.136-10.34c45.516,5.17,36.41,20.682,100.136,23.267
	c63.719,2.585,36.41,20.681,104.684,31.022c68.274,10.341,31.861,18.096,72.824,25.854c40.965,7.755,40.965,15.51,59.169,25.851
	c18.21,10.341,40.967-7.755,109.236-5.17c68.276,2.585,81.932,25.853,81.932,25.853s0,0,31.859-7.756
	c54.618-5.172,72.824,18.097,104.685,28.438c31.861,10.34,118.342,10.34,118.342,10.34s-58.767,97.567-98.251,156.098H97.222"/>
<linearGradient id="SVGID_5_" gradientUnits="userSpaceOnUse" x1="1212.6162" y1="864.0889" x2="1212.6162" y2="986.5961">
	<stop  offset="0" style="stop-color:#85A748"/>
	<stop  offset="0.1005" style="stop-color:#97B05E"/>
	<stop  offset="0.2344" style="stop-color:#ADBC7B"/>
	<stop  offset="0.3726" style="stop-color:#C0C791"/>
	<stop  offset="0.5139" style="stop-color:#CFD0A4"/>
	<stop  offset="0.6596" style="stop-color:#D9D7B2"/>
	<stop  offset="0.8124" style="stop-color:#E0DBBA"/>
	<stop  offset="0.9839" style="stop-color:#E2DDBD"/>
</linearGradient>
<path fill="url(#SVGID_5_)" d="M97.222,982.89l2230.79-146.792c0,0-103.494-112.193-239.987-148.191s-643.167-52.13-781.501-38.098
	c-160.11,16.237-1035.248-2.584-1209.302-6.527V982.89z"/>
<linearGradient id="SVGID_6_" gradientUnits="userSpaceOnUse" x1="479.6201" y1="1165.7344" x2="581.1517" y2="624.2349">
	<stop  offset="0" style="stop-color:#8CC979"/>
	<stop  offset="1" style="stop-color:#B1D237"/>
</linearGradient>
<path fill="url(#SVGID_6_)" d="M-478,963.892H912.448c0,0,527.554-144.406,692.812-238.271
	c-312.869-49.104-882.912-77.57-1508.023-84.849C-91.347,638.576-284.942,708.063-478,709.74V963.892z"/>
<linearGradient id="SVGID_7_" gradientUnits="userSpaceOnUse" x1="343.3691" y1="910.9287" x2="399.9145" y2="609.355">
	<stop  offset="0" style="stop-color:#666A2D"/>
	<stop  offset="1" style="stop-color:#9E8A31"/>
</linearGradient>
<path opacity="0.14" fill="url(#SVGID_7_)" d="M1115.842,693.129c-62.024-12.147-203.215-24.295-364.963-34.655
	C473.289,646.885,72.664,607.939-224,678.513s0,113.245,0,113.245l1085.599-55.307l-514.839-43.322
	C346.759,693.129,1026.857,689.52,1115.842,693.129z"/>
<linearGradient id="SVGID_8_" gradientUnits="userSpaceOnUse" x1="636.1318" y1="1126.792" x2="723.538" y2="660.628">
	<stop  offset="0" style="stop-color:#666A2D"/>
	<stop  offset="1" style="stop-color:#9E8A31"/>
</linearGradient>
<path opacity="0.32" fill="url(#SVGID_8_)" d="M1573.819,742.031C1209.212,698.92,614.703,698.02,97.222,703.239
	c-77.949,0.786-179.888,4.513-253.716,34.651l26.161,226.001h293.311c380.146-67.027,964.741-163.194,1345.793-193.005
	C1532.725,761.027,1554.654,751.354,1573.819,742.031z"/>
<g>
	<linearGradient id="SVGID_9_" gradientUnits="userSpaceOnUse" x1="2106.3721" y1="1153.7324" x2="2106.3721" y2="569.7733">
		<stop  offset="0" style="stop-color:#8CC979"/>
		<stop  offset="1" style="stop-color:#B1D237"/>
	</linearGradient>
	<path fill="url(#SVGID_9_)" d="M1792,669.121c-104.25,0.131-377.422,27.619-599.885,60.109
		c-321.346,46.934-483.06,68.594-483.06,68.594l862.398,254.084c0,0,2454.692,406.471,1830.63,0
		C2778.021,645.438,1896.25,668.989,1792,669.121z"/>
	<linearGradient id="SVGID_10_" gradientUnits="userSpaceOnUse" x1="1323.9922" y1="23.4053" x2="2480.9998" y2="2305.2849">
		<stop  offset="0" style="stop-color:#FEFAD2"/>
		<stop  offset="1" style="stop-color:#6B7431;stop-opacity:0"/>
	</linearGradient>
	<path fill="url(#SVGID_10_)" d="M709.056,797.824l335.313,98.793c297.808-107.416,533.149-181.928,785.676-189.319
		s294.314-10.151,879.49,61.499C2316.012,665.408,1871.168,667.449,1792,669.121c-136.5,2.881-377.422,27.619-599.885,60.109
		C870.77,776.164,709.056,797.824,709.056,797.824z"/>
	<linearGradient id="SVGID_11_" gradientUnits="userSpaceOnUse" x1="1888.1113" y1="200.4717" x2="3112.0339" y2="2614.3223">
		<stop  offset="0" style="stop-color:#FEFAD2"/>
		<stop  offset="1" style="stop-color:#6B7431;stop-opacity:0"/>
	</linearGradient>
	<path fill="url(#SVGID_11_)" d="M2008,780.371c-318.372,36.529-486.794,94.465-687.863,197.494l251.317,74.043
		c0,0,1859.521,116.234,1680.546-52.156S2326.372,743.841,2008,780.371z"/>
	<linearGradient id="SVGID_12_" gradientUnits="userSpaceOnUse" x1="1080.2598" y1="494.4951" x2="1466.1873" y2="963.8665">
		<stop  offset="0" style="stop-color:#FFE17B"/>
		<stop  offset="1" style="stop-color:#6B7431;stop-opacity:0"/>
	</linearGradient>
	<path opacity="0.66" fill="url(#SVGID_12_)" d="M1285.797,716.162c-31.339,4.174-62.672,8.539-93.682,13.068
		c-102.897,15.029-189.398,27.461-259.492,37.426l-35.62,86.543l674.451,198.709H1792V778.54
		C1621.938,743.125,1437.789,725.177,1285.797,716.162z"/>
	<path opacity="0.37" fill="#FFFFFF" d="M846.229,778.863l5.875,1.508c0,0,795.896-106.351,939.896-97.984
		c57.428,3.336,329.021,7.02,734.31,45.818c-295.793-52.298-639.32-61.869-734.31-59.084c-158,4.631-377.422,27.619-599.885,60.109
		C1041.833,751.18,926.471,767.6,846.229,778.863z"/>
</g>
<g>
	<g>
		<linearGradient id="SVGID_13_" gradientUnits="userSpaceOnUse" x1="942.5029" y1="683.957" x2="928.0638" y2="578.0705">
			<stop  offset="0" style="stop-color:#663E23"/>
			<stop  offset="1" style="stop-color:#9D8931"/>
		</linearGradient>
		<path fill="url(#SVGID_13_)" d="M934.827,660.5l-8.29-14.668c5.664-19.201,13.694-43.961,13.694-43.961s3.03,9.342,6.68,20.996
			l-3.952,6.992l4.54-5.108c1.519,4.863,3.12,10.052,4.638,15.084l-4.867,8.611l5.571-6.269c3.595,12.012,6.559,22.671,6.559,25.184
			c0,5.591-14.213,15.066-14.213,15.066l-6.153,3.302l-3.594-2.396c0,0-14.376-10.382-14.376-15.973
			c0-1.958,2.021-10.273,4.519-18.915L934.827,660.5z"/>
		<polygon fill="#6B451C" points="939.668,639.894 940.248,689.371 937.471,689.371 		"/>
	</g>
	
		<linearGradient id="SVGID_14_" gradientUnits="userSpaceOnUse" x1="372.8691" y1="702.918" x2="399.5469" y2="702.918" gradientTransform="matrix(-1 0 0 1 1328.2012 0)">
		<stop  offset="0" style="stop-color:#666A2D"/>
		<stop  offset="1" style="stop-color:#9E8A31"/>
	</linearGradient>
	<path opacity="0.32" fill="url(#SVGID_14_)" d="M939.549,687.436c0,0,9.462,0.574,10.608,1.434
		c1.147,0.861,5.448,24.658,5.161,29.532c-1.146-0.573-24.371-22.651-26.664-25.518C929.229,690.59,939.549,687.436,939.549,687.436
		z"/>
</g>
<g>
	<g>
		<linearGradient id="SVGID_15_" gradientUnits="userSpaceOnUse" x1="865.6494" y1="695.8926" x2="855.7421" y2="623.2391">
			<stop  offset="0" style="stop-color:#663E23"/>
			<stop  offset="1" style="stop-color:#9D8931"/>
		</linearGradient>
		<path fill="url(#SVGID_15_)" d="M860.383,679.799l-5.689-10.065c3.887-13.174,9.396-30.163,9.396-30.163s2.078,6.41,4.583,14.406
			l-2.71,4.799l3.115-3.506c1.041,3.338,2.139,6.897,3.182,10.35l-3.34,5.908l3.822-4.301c2.467,8.241,4.499,15.557,4.499,17.278
			c0,3.837-9.751,10.339-9.751,10.339l-4.221,2.266l-2.468-1.645c0,0-9.862-7.123-9.862-10.96c0-1.343,1.385-7.049,3.1-12.978
			L860.383,679.799z"/>
		<polygon fill="#6B451C" points="863.703,665.66 864.102,699.607 862.195,699.607 		"/>
	</g>
	
		<linearGradient id="SVGID_16_" gradientUnits="userSpaceOnUse" x1="453.749" y1="708.9023" x2="472.0547" y2="708.9023" gradientTransform="matrix(-1 0 0 1 1328.2012 0)">
		<stop  offset="0" style="stop-color:#666A2D"/>
		<stop  offset="1" style="stop-color:#9E8A31"/>
	</linearGradient>
	<path opacity="0.32" fill="url(#SVGID_16_)" d="M863.622,698.279c0,0,6.492,0.394,7.279,0.984
		c0.787,0.59,3.737,16.918,3.541,20.262c-0.788-0.393-16.721-15.541-18.296-17.508C856.541,700.443,863.622,698.279,863.622,698.279
		z"/>
</g>
<linearGradient id="SVGID_17_" gradientUnits="userSpaceOnUse" x1="242.2949" y1="893.2793" x2="192.9087" y2="531.1157">
	<stop  offset="0" style="stop-color:#666A2D"/>
	<stop  offset="1" style="stop-color:#9E8A31"/>
</linearGradient>
<path opacity="0.32" fill="url(#SVGID_17_)" d="M-259.359,826.219c590.769,2.611,874.502,5.492,985.769,5.492
	c-59.107-59.844-230.425-135.619-356.104-185.99c-115.708-3.012-331.806-23.418-629.665,40.009V826.219z"/>
<g>
	
		<linearGradient id="SVGID_18_" gradientUnits="userSpaceOnUse" x1="2162.8242" y1="375.3506" x2="2162.8242" y2="-208.6085" gradientTransform="matrix(-1.0984 -0.0105 -0.0117 1.2202 1208.0341 765.3352)">
		<stop  offset="0" style="stop-color:#8CC979"/>
		<stop  offset="1" style="stop-color:#B1D237"/>
	</linearGradient>
	<path fill="url(#SVGID_18_)" d="M-820.997,612.619c114.504,1.254,414.232,37.662,658.201,79.639
		c352.414,60.64,529.785,88.766,529.785,88.766L-583.216,1082c0,0-2700.925,470.201-2010.729-19.212
		C-1903.747,573.374-935.5,611.365-820.997,612.619z"/>
	
		<linearGradient id="SVGID_19_" gradientUnits="userSpaceOnUse" x1="1380.4434" y1="-754.9775" x2="2537.4509" y2="1526.9021" gradientTransform="matrix(-1.0984 -0.0105 -0.0117 1.2202 1208.0341 765.3352)">
		<stop  offset="0" style="stop-color:#FEFAD2"/>
		<stop  offset="1" style="stop-color:#6B7431;stop-opacity:0"/>
	</linearGradient>
	<path fill="url(#SVGID_19_)" d="M366.989,781.023L-2.465,898.049c-325.854-134.19-583.479-227.578-860.764-239.246
		c-277.284-11.67-323.151-15.476-966.732,65.809c433.443-122.022,922.028-114.862,1008.964-111.992
		c149.896,4.947,414.232,37.662,658.201,79.639C189.618,752.897,366.989,781.023,366.989,781.023z"/>
	
		<linearGradient id="SVGID_20_" gradientUnits="userSpaceOnUse" x1="1944.5635" y1="-577.9102" x2="3168.4846" y2="1835.9379" gradientTransform="matrix(-1.0984 -0.0105 -0.0117 1.2202 1208.0341 765.3352)">
		<stop  offset="0" style="stop-color:#FEFAD2"/>
		<stop  offset="1" style="stop-color:#6B7431;stop-opacity:0"/>
	</linearGradient>
	<path fill="url(#SVGID_20_)" d="M-1059.544,746.096C-710.276,794.01-525.96,866.47-306.311,994.291L-583.216,1082
		c0,0-2043.817,122.309-1845.271-81.277C-2229.94,797.137-1408.811,698.182-1059.544,746.096z"/>
	
		<linearGradient id="SVGID_21_" gradientUnits="userSpaceOnUse" x1="1136.7129" y1="-283.8848" x2="1522.6399" y2="185.4859" gradientTransform="matrix(-1.0984 -0.0105 -0.0117 1.2202 1208.0341 765.3352)">
		<stop  offset="0" style="stop-color:#FFE17B"/>
		<stop  offset="1" style="stop-color:#6B7431;stop-opacity:0"/>
	</linearGradient>
	<path opacity="0.66" fill="url(#SVGID_21_)" d="M-265.541,675.331c34.374,5.42,68.738,11.076,102.745,16.927
		c112.846,19.418,207.712,35.496,284.586,48.391l38.115,105.971L-583.216,1082l-242.242-2.315l3.186-333.556
		C-635.066,704.701-432.591,684.734-265.541,675.331z"/>
	<path opacity="0.37" fill="#FFFFFF" d="M216.541,756.449l-6.471,1.777c0,0-872.956-138.117-1031.22-129.422
		c-63.117,3.47-361.473,5.113-807.086,48.2c325.502-60.708,702.938-68.781,807.24-64.386
		c173.491,7.309,414.232,37.662,658.201,79.639C2.017,720.617,128.536,741.864,216.541,756.449z"/>
</g>
<g>
	<linearGradient id="SVGID_22_" gradientUnits="userSpaceOnUse" x1="-621.5435" y1="2286.3223" x2="555.6735" y2="817.8348">
		<stop  offset="0" style="stop-color:#8CC979"/>
		<stop  offset="1" style="stop-color:#B1D237"/>
	</linearGradient>
	<path fill="url(#SVGID_22_)" d="M97.222,715.46C-184.363,716.29-1108,864.145-1520,1061.988l3312-13.195
		c0,0,446.257,69.716,431.014,30.418c-6.929-17.863-269.764-93.263-431.014-146.432C1276,762.637,378.807,714.63,97.222,715.46z"/>
	<linearGradient id="SVGID_23_" gradientUnits="userSpaceOnUse" x1="1323.498" y1="733.1348" x2="1219.3381" y2="1055.0839">
		<stop  offset="0" style="stop-color:#FEFAD2"/>
		<stop  offset="1" style="stop-color:#6B7431;stop-opacity:0"/>
	</linearGradient>
	<path fill="url(#SVGID_23_)" d="M658.205,776.658C1043.013,871.261,1533.5,1046.637,1792,999.727
		c26.116-4.632,91.034,2.836,134.685,9.773c126.832,20.158,269.638,69.56,296.329,69.711
		c-27.764-23.074-210.887-78.457-431.014-146.432C1290.063,777.781,702.24,736.039,315.88,721.188
		C421.397,730.221,538.03,747.113,658.205,776.658z"/>
	<linearGradient id="SVGID_24_" gradientUnits="userSpaceOnUse" x1="434.0967" y1="458.4727" x2="78.7549" y2="1556.8032">
		<stop  offset="0" style="stop-color:#FEFAD2"/>
		<stop  offset="1" style="stop-color:#6B7431;stop-opacity:0"/>
	</linearGradient>
	<path fill="url(#SVGID_24_)" d="M327.69,834.957c0,0,870.78,64.983,985.191,61.373C897.765,820.271,455.785,771.6,97.222,781.898
		c-400.351,11.498-1107.569,280.627-1107.569,280.627l1887.32-13.195l-218.768-37.475c0,0,775.438-7.221,851.71-18.051
		C1160.333,917.99,327.69,834.957,327.69,834.957z"/>
	<g>
		<linearGradient id="SVGID_25_" gradientUnits="userSpaceOnUse" x1="1789.4072" y1="957.6973" x2="1772.5513" y2="1009.7974">
			<stop  offset="0" style="stop-color:#FEFAD2"/>
			<stop  offset="1" style="stop-color:#6B7431;stop-opacity:0"/>
		</linearGradient>
		<path fill="url(#SVGID_25_)" d="M1630.682,957.166L1792,999.727c0,0,13.657-2.551,38.334-0.756
			c29.915,2.176,74.25,6.816,100.782,11.857c-48.798-14.752-114.63-30.378-139.116-34.797
			C1714.99,962.134,1630.682,957.166,1630.682,957.166z"/>
		<linearGradient id="SVGID_26_" gradientUnits="userSpaceOnUse" x1="1785.6895" y1="918.3525" x2="1703.9233" y2="1171.0845">
			<stop  offset="0" style="stop-color:#FEFAD2"/>
			<stop  offset="1" style="stop-color:#6B7431;stop-opacity:0"/>
		</linearGradient>
		<path fill="url(#SVGID_26_)" d="M1792,999.727c-105.333,12.91-402.849,36.863-402.849,36.863l137.864,12.203l572.651,6.511
			C2099.667,1055.304,1897.333,986.816,1792,999.727z"/>
	</g>
	<path opacity="0.37" fill="#FFFFFF" d="M97.222,727.637C173.37,729.864,1242.489,761.828,1792,939.296s540.935,164.979,0-6.517
		C1251.065,761.281,383.719,713.589,97.222,715.46c-95.293,0.622-212.555,12.844-319.288,27.415
		C-103.878,730.519,46.401,726.15,97.222,727.637z"/>
</g>
<g>
	<g>
		<path fill="#373918" d="M147.547,684.531l11.599-20.521c-7.926-26.86-19.159-61.498-19.159-61.498s-4.239,13.069-9.344,29.373
			l5.528,9.78l-6.353-7.146c-2.123,6.805-4.363,14.064-6.487,21.104l6.81,12.046l-7.794-8.767
			c-5.029,16.802-9.175,31.713-9.175,35.227c0,7.822,19.884,21.078,19.884,21.078l8.607,4.619l5.026-3.352
			c0,0,20.111-14.523,20.111-22.346c0-2.738-2.827-14.372-6.32-26.46L147.547,684.531z"/>
		<polygon fill="#6B451C" points="140.774,655.704 139.962,724.92 143.849,724.92 		"/>
	</g>
	<linearGradient id="SVGID_27_" gradientUnits="userSpaceOnUse" x1="118.8618" y1="743.8721" x2="156.1826" y2="743.8721">
		<stop  offset="0" style="stop-color:#666A2D"/>
		<stop  offset="1" style="stop-color:#9E8A31"/>
	</linearGradient>
	<path opacity="0.32" fill="url(#SVGID_27_)" d="M140.941,722.213c0,0-13.236,0.803-14.841,2.006
		c-1.605,1.203-7.622,34.493-7.22,41.313c1.605-0.803,34.093-31.686,37.302-35.697C155.38,726.625,140.941,722.213,140.941,722.213z
		"/>
</g>
<g>
	<g>
		<path fill="#373918" d="M220.437,676.236l14.511-25.67c-9.916-33.602-23.967-76.932-23.967-76.932s-5.303,16.348-11.69,36.744
			l6.915,12.234l-7.945-8.938c-2.656,8.513-5.459,17.591-8.115,26.397l8.519,15.07l-9.751-10.969
			c-6.291,21.02-11.477,39.674-11.477,44.069c0,9.784,24.872,26.366,24.872,26.366l10.769,5.78l6.289-4.192
			c0,0,25.158-18.17,25.158-27.954c0-3.427-3.537-17.979-7.905-33.101L220.437,676.236z"/>
		<polygon fill="#6B451C" points="211.966,640.174 210.949,726.762 215.811,726.762 		"/>
	</g>
	<linearGradient id="SVGID_28_" gradientUnits="userSpaceOnUse" x1="184.5522" y1="750.4688" x2="231.2393" y2="750.4688">
		<stop  offset="0" style="stop-color:#666A2D"/>
		<stop  offset="1" style="stop-color:#9E8A31"/>
	</linearGradient>
	<path opacity="0.32" fill="url(#SVGID_28_)" d="M212.173,723.375c0,0-16.558,1.004-18.565,2.51
		c-2.008,1.504-9.532,43.148-9.031,51.679c2.007-1.004,42.648-39.639,46.663-44.655
		C230.235,728.895,212.173,723.375,212.173,723.375z"/>
</g>
<g>
	<g>
		<path fill="#373918" d="M300.869,704.584l10.347-18.305c-7.069-23.958-17.09-54.854-17.09-54.854s-3.779,11.656-8.335,26.2
			l4.932,8.724l-5.665-6.375c-1.896,6.069-3.893,12.544-5.786,18.823l6.074,10.745l-6.952-7.82
			c-4.486,14.986-8.186,28.287-8.186,31.423c0,6.975,17.736,18.8,17.736,18.8l7.678,4.121l4.484-2.99
			c0,0,17.938-12.956,17.938-19.931c0-2.442-2.521-12.82-5.638-23.603L300.869,704.584z"/>
		<polygon fill="#6B451C" points="294.83,678.871 294.105,740.609 297.572,740.609 		"/>
	</g>
	<linearGradient id="SVGID_29_" gradientUnits="userSpaceOnUse" x1="275.2837" y1="757.5137" x2="308.5723" y2="757.5137">
		<stop  offset="0" style="stop-color:#666A2D"/>
		<stop  offset="1" style="stop-color:#9E8A31"/>
	</linearGradient>
	<path opacity="0.32" fill="url(#SVGID_29_)" d="M294.978,738.194c0,0-11.806,0.716-13.237,1.79
		c-1.432,1.072-6.796,30.766-6.439,36.848c1.432-0.715,30.409-28.262,33.271-31.84C307.857,742.131,294.978,738.194,294.978,738.194
		z"/>
</g>
<g>
	<g>
		<path fill="#373918" d="M523.311,739.912l8.291-14.67c-5.666-19.2-13.697-43.961-13.697-43.961s-3.029,9.343-6.679,20.998
			l3.952,6.992l-4.54-5.109c-1.519,4.864-3.12,10.053-4.638,15.085l4.867,8.61l-5.57-6.267c-3.596,12.011-6.56,22.67-6.56,25.183
			c0,5.59,14.213,15.065,14.213,15.065l6.153,3.303l3.594-2.396c0,0,14.375-10.383,14.375-15.973c0-1.959-2.021-10.275-4.517-18.916
			L523.311,739.912z"/>
		<polygon fill="#6B451C" points="518.469,719.305 517.889,768.783 520.666,768.783 		"/>
	</g>
	<linearGradient id="SVGID_30_" gradientUnits="userSpaceOnUse" x1="502.8047" y1="782.3301" x2="529.4814" y2="782.3301">
		<stop  offset="0" style="stop-color:#666A2D"/>
		<stop  offset="1" style="stop-color:#9E8A31"/>
	</linearGradient>
	<path opacity="0.32" fill="url(#SVGID_30_)" d="M518.587,766.848c0,0-9.461,0.574-10.607,1.434
		c-1.147,0.86-5.448,24.656-5.161,29.531c1.146-0.574,24.369-22.649,26.663-25.517C528.908,770.002,518.587,766.848,518.587,766.848
		z"/>
</g>
<g>
	<g>
		<path fill="#373918" d="M435.462,646.615l2.739-4.848c-1.872-6.342-4.525-14.523-4.525-14.523s-1.001,3.088-2.206,6.938
			l1.307,2.31l-1.502-1.688c-0.501,1.608-1.029,3.322-1.531,4.984l1.608,2.846l-1.841-2.071c-1.188,3.97-2.167,7.491-2.167,8.32
			c0,1.847,4.696,4.978,4.696,4.978l2.032,1.092l1.188-0.792c0,0,4.75-3.431,4.75-5.277c0-0.647-0.668-3.395-1.492-6.249
			L435.462,646.615z"/>
		<polygon fill="#6B451C" points="433.863,639.807 433.672,656.154 434.588,656.154 		"/>
	</g>
	<linearGradient id="SVGID_31_" gradientUnits="userSpaceOnUse" x1="428.6865" y1="660.6309" x2="437.502" y2="660.6309">
		<stop  offset="0" style="stop-color:#666A2D"/>
		<stop  offset="1" style="stop-color:#9E8A31"/>
	</linearGradient>
	<path opacity="0.32" fill="url(#SVGID_31_)" d="M433.902,655.516c0,0-3.126,0.188-3.505,0.473
		c-0.379,0.285-1.801,8.147-1.706,9.757c0.38-0.188,8.052-7.483,8.811-8.431C437.313,656.557,433.902,655.516,433.902,655.516z"/>
</g>
<g>
	<g>
		<path fill="#373918" d="M372.893,646.615l2.739-4.848c-1.872-6.342-4.525-14.523-4.525-14.523s-1.001,3.088-2.207,6.938
			l1.307,2.31l-1.502-1.688c-0.501,1.608-1.029,3.322-1.531,4.984l1.608,2.846l-1.841-2.071c-1.188,3.97-2.167,7.491-2.167,8.32
			c0,1.847,4.697,4.978,4.697,4.978l2.031,1.092l1.188-0.792c0,0,4.75-3.431,4.75-5.277c0-0.647-0.667-3.395-1.492-6.249
			L372.893,646.615z"/>
		<polygon fill="#6B451C" points="371.293,639.807 371.102,656.154 372.019,656.154 		"/>
	</g>
	<linearGradient id="SVGID_32_" gradientUnits="userSpaceOnUse" x1="366.1177" y1="660.6309" x2="374.9326" y2="660.6309">
		<stop  offset="0" style="stop-color:#666A2D"/>
		<stop  offset="1" style="stop-color:#9E8A31"/>
	</linearGradient>
	<path opacity="0.32" fill="url(#SVGID_32_)" d="M371.332,655.516c0,0-3.126,0.188-3.505,0.473c-0.379,0.285-1.8,8.147-1.705,9.757
		c0.379-0.188,8.051-7.483,8.811-8.431C374.742,656.557,371.332,655.516,371.332,655.516z"/>
</g>
<g>
	<g>
		<path fill="#373918" d="M721.162,654.523l3.018-3.029c-2.063-3.965-4.981-9.077-4.981-9.077s-1.103,1.929-2.43,4.336l1.439,1.442
			l-1.651-1.054c-0.555,1.003-1.133,2.075-1.688,3.115l1.771,1.778l-2.026-1.295c-1.306,2.48-2.385,4.681-2.385,5.2
			c0,1.154,5.168,3.11,5.168,3.11l2.238,0.684l1.305-0.496c0,0,5.229-2.144,5.229-3.298c0-0.404-0.735-2.122-1.642-3.905
			L721.162,654.523z"/>
		<polygon fill="#6B451C" points="719.404,650.269 719.193,660.486 720.202,660.486 		"/>
	</g>
	<linearGradient id="SVGID_33_" gradientUnits="userSpaceOnUse" x1="713.708" y1="663.2832" x2="723.4082" y2="663.2832">
		<stop  offset="0" style="stop-color:#666A2D"/>
		<stop  offset="1" style="stop-color:#9E8A31"/>
	</linearGradient>
	<path opacity="0.32" fill="url(#SVGID_33_)" d="M719.443,660.086c0,0-3.438,0.117-3.854,0.297
		c-0.416,0.178-1.981,5.091-1.877,6.097c0.416-0.117,8.86-4.677,9.695-5.269C723.199,660.737,719.443,660.086,719.443,660.086z"/>
</g>
<g>
	<g>
		<g>
			<polygon fill="#A14434" points="421.264,637.68 420.033,655.206 411.117,660.74 408.965,629.687 			"/>
			<polygon fill="#DC6746" points="384.982,660.127 381.6,637.373 388.058,621.078 397.589,615.235 405.89,621.385 413.27,640.447 
				411.117,660.74 			"/>
			<polygon fill="#E0C8C5" points="396.649,612.144 407.735,610.932 416.652,616.771 425.261,638.91 414.807,643.83 
				408.043,623.846 397.589,615.235 			"/>
			<polygon fill="#C14231" points="382.535,643.668 390.518,623.846 397.896,619.232 404.968,622.922 413.27,640.447 
				405.89,621.385 397.589,615.235 388.058,621.078 381.6,637.373 			"/>
			<path fill="#C14231" d="M386.605,621.573c0,0.614,1.435,19.064,1.435,19.064h0.82l-0.803-19.56L386.605,621.573z"/>
			<path fill="#C14231" d="M409.154,621.573c0,0.614-1.436,19.064-1.436,19.064h-0.819l0.803-19.56L409.154,621.573z"/>
			<polygon fill="#C14231" points="394.396,618.908 393.78,640.021 394.805,640.229 394.805,617.063 			"/>
			<polygon fill="#C14231" points="401.98,619.318 401.364,640.432 402.389,640.638 402.389,617.474 			"/>
			<g>
				<path fill="#EADBD6" d="M388.793,660.248c0-0.922-1.658-21.031-1.658-21.031l21.216,0.309l-1.656,21.27L388.793,660.248z"/>
				<path fill="#90392B" d="M390.295,660.248c0-0.744-1.109-18.945-1.109-18.945l17.116,0.248l-1.563,19.139L390.295,660.248z"/>
			</g>
			<polygon fill="#C0ABA5" points="412.346,613.952 401.256,618.256 402.157,618.998 413.553,614.742 			"/>
			<polygon fill="#C0ABA5" points="417.869,619.901 407.936,623.757 408.043,623.846 408.332,624.704 418.289,620.986 			"/>
			<polygon fill="#C0ABA5" points="420.696,627.172 410.507,631.125 410.834,632.092 421.117,628.253 			"/>
			<polygon fill="#C0ABA5" points="423.309,633.891 412.821,637.961 413.149,638.938 423.734,634.985 			"/>
			<path fill="#EADBD6" d="M385.376,619.728c0,0-7.893,20.09-7.586,20.09c0.308,0,2.58,0.938,2.58,0.938l7.688-19.678l9.531-5.843
				l8.301,6.149l8.917,22.445l2.137-0.938l-8.2-22.549l-12.094-8.2L385.376,619.728z"/>
			<polygon fill="#EADBD6" points="388.04,640.638 405.465,660.316 406.08,658.266 390.499,640.021 			"/>
			<polygon fill="#EADBD6" points="389.271,658.266 405.465,640.229 407.719,640.638 390.295,660.248 			"/>
		</g>
	</g>
</g>
<g>
	<path fill="#6C5D46" stroke="#2F2018" stroke-width="0.8008" stroke-miterlimit="10" d="M-3673.999-305.368
		c0,0-0.705,2.511,0.535,3.853c0.394,0.426,3.178,2.506,6.881,2.489l0.857-3.52"/>
	<path fill="#6C5D46" stroke="#2F2018" stroke-width="0.8008" stroke-miterlimit="10" d="M-3619.422-305.55
		c0,0,0.864,2.461-0.288,3.879c-0.306,0.376-1.63,1.909-4.394,2.566l-1.835-3.223"/>
	<path fill="#6C5D46" stroke="#2F2018" stroke-width="0.8008" stroke-miterlimit="10" d="M-3638.622-296.434
		c0,0-0.754,2.409,0.622,3.622c0.699,0.615,2.645,1.656,5.998,1.671c3.703,0.017,6.516-1.942,6.883-2.393
		c0.721-0.884-0.269-4.175-0.269-4.175"/>
	<path fill="#6C5D46" stroke="#2F2018" stroke-width="0.8008" stroke-miterlimit="10" d="M-3651.591-296.434
		c0,0,0.753,2.409-0.623,3.622c-0.699,0.615-2.645,1.656-5.998,1.671c-3.703,0.017-6.121-1.516-6.516-1.942
		c-1.239-1.341-0.299-3.931-0.299-3.931"/>
	<path fill="#FFFFFF" d="M-3665.726-310.661c0,0-3.212-1.487-5.571-4.35c-1.515-1.838-2.162-3.838-2.354-5.684
		c-5.189-6.447-2.502-14.018-2.279-15.729c-0.453,1.031-1.178,2.577-4.02,4.807c-1.397-15.295,7.398-27.642,11.471-29.225
		l42.541-1.715c0,0,0.338,0.223,0.897,0.668c2.052,1.629,7.092,6.234,9.46,13.753c2.763,8.768-1.031,13.896-1.031,13.896
		l-0.197-0.003c-0.076,3.104-0.823,6.755-3.256,9.856c-0.463,2.795-1.888,7.075-5.61,10.628h-0.002
		c0.762,6.938,2.686,13.441,1.575,14.653c-1.44,1.572-1.181,2.098-7.21,3.539c-6.03,1.443-8.784-2.097-8.784-2.097
		c-0.967-1.03-0.983-5.103-0.749-8.978c-4.873,1.245-8.604-0.059-8.604-0.059l-0.039,0.004c0.345,3.415,0.525,7.801-0.627,9.032
		c0,0-2.567,2.443-8.783,2.097c-6.191-0.343-7.022-2.144-7.548-3.016C-3667.535-300.383-3666.524-305.169-3665.726-310.661z"/>
	<g id="XMLID_1_">
		<g>
			<radialGradient id="SVGID_34_" cx="-3646.6387" cy="-337.4365" r="49.9133" gradientUnits="userSpaceOnUse">
				<stop  offset="0" style="stop-color:#FFF5EC"/>
				<stop  offset="0.1931" style="stop-color:#FDF3E8;stop-opacity:0.8649"/>
				<stop  offset="0.3555" style="stop-color:#F7EBDD;stop-opacity:0.7512"/>
				<stop  offset="0.5068" style="stop-color:#EFDFCD;stop-opacity:0.6453"/>
				<stop  offset="0.6513" style="stop-color:#E6D0B6;stop-opacity:0.5441"/>
				<stop  offset="0.7912" style="stop-color:#DABD9B;stop-opacity:0.4462"/>
				<stop  offset="0.9255" style="stop-color:#CCA77D;stop-opacity:0.3521"/>
				<stop  offset="1" style="stop-color:#C49A6C;stop-opacity:0.3"/>
			</radialGradient>
			<path fill="url(#SVGID_34_)" d="M-3673.651-320.694c-5.19-6.447-2.503-14.018-2.279-15.729c-0.455,1.031-1.179,2.577-4.021,4.807
				c-1.396-15.295,7.399-27.642,11.472-29.225l42.541-1.715c0,0,7.343,4.852,10.358,14.421c2.762,8.768-1.032,13.896-1.032,13.896
				l-0.198-0.004c-0.076,3.104-0.823,6.754-3.255,9.856c-0.464,2.796-1.888,7.075-5.611,10.628h-0.002
				c0.762,6.939,2.685,13.442,1.575,14.654c-1.441,1.571-1.181,2.097-7.21,3.538c-6.03,1.443-8.784-2.097-8.784-2.097
				c-0.966-1.03-0.983-5.103-0.749-8.978c-4.874,1.245-8.604-0.059-8.604-0.059l-0.039,0.004c0.344,3.416,0.525,7.801-0.628,9.032
				c0,0-2.566,2.443-8.782,2.097c-6.192-0.343-7.022-2.144-7.547-3.015c-1.09-1.803-0.079-6.589,0.721-12.08
				c0,0-3.212-1.488-5.572-4.351C-3672.811-316.849-3673.459-318.849-3673.651-320.694z"/>
		</g>
		<g>
			<path fill="none" stroke="#000000" stroke-width="0.0931" stroke-linecap="round" stroke-linejoin="round" d="M-3672.658-327.349
				c0,0-1.375,3.026-0.993,6.654c0.192,1.846,0.84,3.846,2.354,5.684c2.36,2.862,5.572,4.351,5.572,4.351"/>
			<path fill="none" stroke="#000000" stroke-width="0.0931" stroke-linecap="round" stroke-linejoin="round" d="M-3617.68-341.187
				c0,0,0.965,3.041,0.87,6.944c-0.076,3.104-0.823,6.754-3.255,9.856l-0.002,0.002"/>
			<path fill="none" stroke="#000000" stroke-width="0.0931" stroke-linecap="round" stroke-linejoin="round" d="M-3625.676-313.758
				c3.723-3.553,5.147-7.832,5.611-10.628c0.292-1.767,0.201-2.94,0.063-2.963"/>
			<path fill="none" stroke="#000000" stroke-width="0.0931" stroke-linecap="round" stroke-linejoin="round" d="M-3640.097-314.442
				c0,0-0.508,3.795-0.749,7.803c-0.235,3.875-0.218,7.947,0.749,8.978c0,0,2.754,3.54,8.784,2.097
				c6.03-1.441,5.769-1.967,7.21-3.538c1.11-1.212-0.813-7.715-1.575-14.654c-0.227-2.068-0.35-4.175-0.261-6.191"/>
			<path fill="none" stroke="#000000" stroke-width="0.0931" stroke-linecap="round" stroke-linejoin="round" d="M-3650.06-311.027
				c0,0,0.326,1.926,0.572,4.333c0.344,3.416,0.525,7.801-0.628,9.032c0,0-2.566,2.443-8.782,2.097
				c-6.192-0.343-7.022-2.144-7.547-3.015c-1.09-1.803-0.079-6.589,0.721-12.08c0.469-3.226,0.866-6.693,0.721-9.943"/>
			<path fill="none" stroke="#000000" stroke-width="0.0931" stroke-linecap="round" stroke-linejoin="round" d="M-3649.449-306.698
				c0,0,3.73,1.304,8.604,0.059c0.002-0.002,0.002-0.002,0.003-0.002"/>
			<path fill="none" stroke="#000000" stroke-width="0.0931" stroke-linecap="round" stroke-linejoin="round" d="M-3673.579-320.604
				c-0.024-0.029-0.05-0.062-0.072-0.091c-5.19-6.447-2.503-14.018-2.279-15.729c-0.455,1.031-1.179,2.577-4.021,4.807
				c-1.396-15.295,7.399-27.642,11.472-29.225l42.541-1.715c0,0,7.343,4.852,10.358,14.421c2.762,8.768-1.032,13.896-1.032,13.896"
				/>
		</g>
	</g>
	<path fill="#FFFFFF" d="M-3608.896-402.934c0,0-3.845,3.365-7.079,4.194c2.142-1.572,3.146-3.647,3.146-3.647
		s-7.647,3.474-14.516,3.024c-0.226-0.016-0.431-0.012-0.621,0.007c-3.521-4.448-8.464-8.104-14.594-9.441l0.001-0.001
		c-0.515-0.943-6.592-3.866-10.781,0.012c-6.837,1.43-11.56,5.555-15.069,11.528l0.003-0.009c0,0-3.548,1.836-8.397,0
		c-4.852-1.835-8.063-4.225-9.178-4.618c-0.988-0.349-1.311,1.049-1.311,1.704c0,0.656-0.438,8.784,4.02,11.668
		c3.895,2.52,8.664,1.835,9.693,1.704c-1.324,0.622-4.799,1.071-5.541,1.071c0,0,3.207,2.701,5.976,1.084
		c-0.384,2.236-0.532,4.43-0.505,6.562c-3.461,4.707-2.893,9.374-2.893,9.374s1.828-2.068,3.414-3.349
		c0.089,0.567,0.187,1.129,0.293,1.683c-0.534,2.587,0.357,5.469,0.357,5.469s0.185-0.595,0.598-1.332
		c0.134,0.494,0.271,0.982,0.41,1.463c1.874,6.427,11.93,6.488,13.975,6.847c1.744,0.306,6.72,1.744,9.535,1.961
		c2.619,0.201,3.843-0.888,6.988-1.806c3.147-0.918,12.062-1.452,15.033-4.773c0.824-0.921,1.636-2.513,2.333-4.539
		c1.24,0.479,2.647,0.211,4.287,1.393c-0.384-3.173-1.881-5.132-2.986-6.437c0.042-0.226,0.083-0.452,0.122-0.683
		c1.653,0.68,2.603,2.006,2.603,2.006s0.588-5.081-2.019-7.484c0.095-2.122,0.035-4.295-0.219-6.421
		c0.092,0.015,0.18,0.02,0.262,0.01c5.799-2.36,6.629-4.195,6.629-4.195s-2.665,0.962-4.851,0.524
		C-3611.604-390.61-3608.896-402.934-3608.896-402.934z"/>
	<radialGradient id="SVGID_35_" cx="-3648.1006" cy="-383.3477" r="33.8192" gradientUnits="userSpaceOnUse">
		<stop  offset="0" style="stop-color:#FFF5EC"/>
		<stop  offset="0.1931" style="stop-color:#FDF3E8;stop-opacity:0.8745"/>
		<stop  offset="0.3555" style="stop-color:#F7EBDD;stop-opacity:0.7689"/>
		<stop  offset="0.5068" style="stop-color:#EFDFCD;stop-opacity:0.6706"/>
		<stop  offset="0.6513" style="stop-color:#E6D0B6;stop-opacity:0.5766"/>
		<stop  offset="0.7912" style="stop-color:#DABD9B;stop-opacity:0.4857"/>
		<stop  offset="0.9255" style="stop-color:#CCA77D;stop-opacity:0.3984"/>
		<stop  offset="1" style="stop-color:#C49A6C;stop-opacity:0.35"/>
	</radialGradient>
	<path fill="url(#SVGID_35_)" stroke="#EFEEEE" stroke-width="0.1862" stroke-miterlimit="10" d="M-3608.896-402.934
		c0,0-3.845,3.365-7.079,4.194c2.142-1.572,3.146-3.647,3.146-3.647s-7.647,3.474-14.516,3.024
		c-0.225-0.016-0.431-0.012-0.621,0.007c-3.52-4.448-8.464-8.104-14.594-9.441l0.001-0.001c-0.515-0.943-6.592-3.866-10.781,0.012
		c-6.837,1.43-11.56,5.555-15.069,11.528l0.003-0.009c0,0-3.548,1.836-8.397,0c-4.852-1.835-8.063-4.225-9.178-4.618
		c-0.988-0.349-1.311,1.049-1.311,1.704c0,0.656-0.438,8.784,4.02,11.668c3.895,2.52,8.664,1.835,9.693,1.704
		c-1.324,0.622-4.799,1.071-5.541,1.071c0,0,3.207,2.701,5.976,1.084c-0.384,2.236-0.532,4.43-0.505,6.562
		c-3.461,4.707-2.893,9.374-2.893,9.374s1.828-2.068,3.414-3.349c0.089,0.567,0.187,1.129,0.293,1.683
		c-0.534,2.587,0.357,5.469,0.357,5.469s0.185-0.594,0.598-1.332c0.134,0.494,0.271,0.982,0.41,1.463
		c1.874,6.427,11.93,6.488,13.975,6.847c1.744,0.306,6.72,1.744,9.535,1.961c2.619,0.2,3.843-0.888,6.988-1.806
		c3.147-0.918,12.062-1.452,15.033-4.773c0.824-0.922,1.636-2.512,2.333-4.539c1.24,0.479,2.647,0.211,4.288,1.393
		c-0.385-3.173-1.882-5.132-2.987-6.437c0.042-0.226,0.083-0.452,0.122-0.683c1.653,0.68,2.603,2.006,2.603,2.006
		s0.588-5.081-2.019-7.484c0.095-2.122,0.036-4.295-0.219-6.421c0.092,0.015,0.18,0.02,0.262,0.01
		c5.799-2.36,6.629-4.195,6.629-4.195s-2.665,0.962-4.851,0.524C-3611.604-390.61-3608.896-402.934-3608.896-402.934z"/>
	<path fill="none" stroke="#000000" stroke-width="0.7866" stroke-miterlimit="10" d="M-3672.836-370.383
		c-0.106-0.555-0.205-1.116-0.294-1.684"/>
	<path fill="#F3E7DC" d="M-3674.781-306.466c0.526,0.872,1.856,2.671,8.047,3.016l0.36-2.949l0.688-4.53l-2.794-1.434l-3.331-3.323
		l-1.682-4.286C-3674.306-314.068-3675.937-308.378-3674.781-306.466z"/>
	<path fill="none" stroke="#000000" stroke-width="0.7866" stroke-miterlimit="10" d="M-3622.183-372.82
		c-0.039,0.229-0.079,0.456-0.122,0.681"/>
	<path fill="#F3E7DC" d="M-3621.184-320.553l-4.755,2.296l2.122,15.711c4.235-2.348,4.679-3.355,5.093-4.151
		C-3617.691-308.679-3619.999-314.712-3621.184-320.553z"/>
	<path fill="#DDBA9C" d="M-3629.173-360.508"/>
	<path opacity="0.3" fill="#C49A6C" d="M-3629.883-360.143l2.787-0.969c0,0,2.233,0.653,5.518,5.275
		c5.609,6.818,5.963,18.808,5.963,18.808l-1.212-0.932l-1.609,9.777l-1.589,3.352l-5.675,11.271c0,0-0.403-7.541,0.919-10.338
		c1.322-2.798,4.524-13.618,4.524-13.618s-2.492,3.277-3.532,3.475C-3618.433-346.361-3629.883-360.143-3629.883-360.143"/>
	<path opacity="0.5" fill="#AE9485" d="M-3616.831-334.319l0.197,0.004c0,0,3.793-5.129,1.031-13.896
		c-2.368-7.519-7.408-12.124-9.46-13.754c-0.48-0.381-0.795-0.598-0.876-0.652l-1.438,1.594c0,0,9.706,8.564,10.343,18.319
		c0.474,7.257-0.637,1.125-2.284-0.91c1.11,5.611,1.78,12.342-0.473,17.053c0,0-0.479-1.834-0.744-3.227
		c-1.412,7.631-2.334,9.81-5.144,13.224c-0.05,0.867,0.021,1.781,0.14,2.467c3.243-3.414,5.016-7.737,5.451-10.363
		C-3617.654-327.564-3616.908-331.215-3616.831-334.319z"/>
	<path fill="none" stroke="#000000" stroke-width="0.7866" stroke-miterlimit="10" d="M-3627.966-399.356
		c0.189-0.019,0.396-0.021,0.621-0.006c6.868,0.449,14.516-3.024,14.516-3.024s-1.005,2.075-3.146,3.647
		c3.234-0.829,7.079-4.194,7.079-4.194s-2.708,12.323-10.881,14.552c2.186,0.438,4.851-0.524,4.851-0.524s-0.83,1.835-6.629,4.195
		c-0.082,0.01-0.17,0.007-0.262-0.009"/>
	<path fill="none" stroke="#000000" stroke-width="0.7866" stroke-miterlimit="10" d="M-3624.759-367.865
		c1.508,1.573,3.271,0.6,5.441,2.163c-0.494-4.077-2.826-6.15-3.803-7.406c2.229,0.458,3.54,2.293,3.54,2.293
		s0.655-5.637-2.458-7.846"/>
	<path fill="none" stroke="#000000" stroke-width="0.7866" stroke-miterlimit="10" d="M-3671.47-380.517
		c-5.859,5.376-5.072,11.799-5.072,11.799s3.591-4.063,5.072-4.325c-2.713,2.622-1.008,8.128-1.008,8.128s0.965-3.096,3.408-3.934
		c-0.688,2.688,0.523,4.326,0.523,4.326s0.853-3.604,2.099-3.802"/>
	<path opacity="0.3" fill="#FFFFFF" d="M-3624.265-382.706c0,4.719-1.334,11.68-3.701,15.363
		c-4.155,6.465-11.408,8.175-19.607,8.175c-7.6,0-15.799-2.243-20.055-7.927c-2.952-3.943-3.254-10.286-3.254-15.611
		c0-13,10.436-23.538,23.309-23.538S-3624.265-395.706-3624.265-382.706z"/>
	<circle cx="-3634.318" cy="-374.223" r="2.476"/>
	<circle cx="-3658.576" cy="-374.612" r="2.476"/>
	<path d="M-3647.96-365.706c0.819,0.063,1.684-0.144,2.123-0.326c0.606-0.25,1.92-1.769,2.862-1.174
		c0.862,0.546-0.188,1.05-0.581,1.279c-0.393,0.229-1.133,0.205-1.593,0.307c-0.43,0.093-2.707,0.852-2.707,0.852
		s-0.548-0.241-1.17-0.471c-0.623-0.229-1.028-0.564-2.012-0.463c-0.983,0.103-0.635,0.179-1.306,0.113
		c-0.671-0.066-1.074-0.517-0.617-0.961c0.528-0.514,1.746-0.053,2.184,0.122C-3650.34-366.253-3648.778-365.77-3647.96-365.706z"/>
	<path fill="none" stroke="#000000" stroke-width="0.7866" stroke-miterlimit="10" d="M-3647.855-365.239
		c0,0-0.409,2.695,0.25,2.695s3.817,1.005,5.614-0.336c0.802-0.598,0.262-1.057,0.655-1.643"/>
	<path fill="none" stroke="#000000" stroke-width="0.7866" stroke-miterlimit="10" d="M-3653.594-364.022c0,0,0.459,1.83,1.312,1.83
		c0.852,0,3.795,0.131,4.322-0.524"/>
	<path fill="none" stroke="#000000" stroke-width="0.7866" stroke-miterlimit="10" d="M-3623.605-367.095
		c-0.696,2.027-1.509,3.617-2.333,4.539c-2.972,3.321-11.886,3.855-15.033,4.773c-3.146,0.918-4.369,2.006-6.988,1.806
		c-2.815-0.217-7.791-1.655-9.535-1.961c-2.045-0.358-12.101-0.42-13.975-6.847c-0.14-0.48-0.277-0.969-0.41-1.465"/>
	<path fill="none" stroke="#000000" stroke-width="0.7866" stroke-miterlimit="10" d="M-3643.247-408.938
		c11.523,2.156,19,12.469,20.927,21.223c0.668,3.037,0.861,6.282,0.723,9.414"/>
	<path fill="none" stroke="#000000" stroke-width="0.7866" stroke-miterlimit="10" d="M-3673.651-378.092
		c-0.06-4.602,0.699-9.488,2.878-14.485c3.708-8.508,8.954-14.466,17.496-16.228"/>
	<path fill="#965545" d="M-3638.36-403.327c-0.261,0.561-0.753,1.737,2.36,3.245s5.571,0.295,6.129-0.459
		c0.346-0.468,1.701-3.901,2.21-7.615c0.312-2.271,0.584-3.804-0.162-5.669c0,0-0.781-1.476-1.76-0.396
		C-3630.505-413.204-3637.969-404.168-3638.36-403.327z"/>
	<path fill="#965545" d="M-3661.695-403.294c0.464,0.104,0.524,2.753-1.442,4.359c-1.966,1.605-3.277,1.998-4.326,1.408
		s-3.13-1.437-3.834-6.369c-0.743-5.199,1.123-7.842,1.977-7.996c0.399-0.072,0.708,0.604,0.871,0.975
		C-3668.077-410.069-3664.351-403.896-3661.695-403.294z"/>
	<path fill="none" stroke="#000000" stroke-width="0.7866" stroke-miterlimit="10" d="M-3642.559-408.798
		c-0.67-1.229-10.779-5.818-13.86,5.642"/>
	<path fill="none" stroke="#000000" stroke-width="0.5244" stroke-miterlimit="10" d="M-3654.177-404.288
		c-2.788,0.568-5.389,3.779-3.553,9.613c0,0,2.688-3.364,5.045-4.064c-0.916,1.05-2.619,3.082-0.916,6.949
		c0,0,2.447-4.523,3.146-4.852c-0.359,0.485-0.688,1.803,0.099,2.852c0,0,1.049-2.031,1.966-2.785"/>
	<path fill="none" stroke="#000000" stroke-width="0.5244" stroke-miterlimit="10" d="M-3672.184-388.717
		c-2.589,1.107-6.063-0.779-8.455-1.435c1.196-0.377,1.13-0.279,1.9-0.426c1.967-0.377,3.062-0.693,3.737-0.951
		c-0.525,0.033-2.491,0.831-4.043,0.602c-1.551-0.229-2.742-1.748-3.889-2.404c0.754-0.032,2.631-0.163,3.25-0.461
		c-0.597,0.097-1.547,0.146-2.268-0.096c-1.851-0.621-3.484-4.142-3.484-4.142s0.967,0.274,1.213,0.281
		c-0.574-0.311-2.724-2.634-2.662-3.597"/>
	<path fill="none" stroke="#000000" stroke-width="0.7866" stroke-miterlimit="10" d="M-3668.406-397.267c0,0-3.548,1.836-8.397,0
		c-4.852-1.835-8.063-4.225-9.178-4.618c-0.988-0.349-1.311,1.049-1.311,1.704c0,0.656-0.438,8.784,4.02,11.668
		c3.895,2.52,8.664,1.835,9.693,1.704c-1.324,0.622-4.799,1.071-5.541,1.071c0,0,3.231,2.723,6.008,1.066"/>
	<path opacity="0.3" fill="#C49A6C" d="M-3640.326-312.547c-1.522,1.304-7.011,2.239-9.964,1.886l0.841,2.594h8.479
		L-3640.326-312.547z"/>
	<path opacity="0.5" fill="#AE9485" d="M-3640.326-309.939c0,0-8.785,1.634-9.405,1.158c-0.621-0.476,0.435,2.083,0.435,2.083
		l4.291,0.597l4.035-0.858"/>
	<path opacity="0.3" fill="#C49A6C" d="M-3675.679-335.328c0,0-0.219,6.527,1.848,10.944c0.101,0.214,0.273,0.6,0.273,0.6
		l-0.161,1.991l-2.426-5.556l-0.481-5.437L-3675.679-335.328z"/>
	<path opacity="0.3" fill="#C49A6C" d="M-3672.751-326.39c0,0,0.358,8.277,7.635,10.615l-0.661,3.228c0,0-7.686-6.571-7.631-8.872
		c-0.566-1.349-0.442-1.679-0.364-2.676C-3673.648-325.658-3672.751-326.39-3672.751-326.39z"/>
	<path opacity="0.5" fill="#AE9485" d="M-3673.439-323.2c0,0,2.761,9.105,8.27,9.292l-0.272,3.248c0,0-4.568-2.813-5.314-4.179
		c-0.744-1.365-3.165-4.254-2.948-6.396C-3673.487-323.376-3673.439-323.2-3673.439-323.2z"/>
	<path opacity="0.5" fill="#AE9485" d="M-3676.626-332.785c0,0-0.015,2.485,0,2.765c0.016,0.279,0,2.607,0,2.607
		s1.862,5.366,2.336,5.863c0.473,0.498,0.438-1.063,0.438-1.063S-3676.01-325.685-3676.626-332.785z"/>
	<path fill="#F3E7DC" stroke="#3E2723" stroke-width="0.7859" stroke-miterlimit="10" d="M-3616.452-350.507
		c0,0,8.683-4.174,6.126-14.016c-3.735,4.14-5.309,4.188-5.309,4.188s-0.134-1.488-1.17-3.881c-1.355,2.578-2.055,4.479-4.524,5.911
		"/>
	<path fill="none" stroke="#2F2018" stroke-width="0.8008" stroke-miterlimit="10" d="M-3625.938-362.556
		c0,0,7.342,4.851,10.356,14.421c2.763,8.768-1.03,13.896-1.03,13.896"/>
	<path fill="none" stroke="#2F2018" stroke-width="0.8008" stroke-miterlimit="10" d="M-3673.579-320.604
		c-5.289-6.467-2.578-14.1-2.352-15.818c-0.454,1.032-1.18,2.577-4.02,4.807c-1.398-15.295,7.398-27.642,11.47-29.224"/>
	<path fill="none" stroke="#2F2018" stroke-width="0.8008" stroke-miterlimit="10" d="M-3672.659-327.348
		c0,0-3.129,6.891,1.361,12.337c2.359,2.862,5.572,4.351,5.572,4.351"/>
	<path fill="none" stroke="#2F2018" stroke-width="0.8008" stroke-miterlimit="10" d="M-3617.68-341.187
		c0,0,3.105,9.799-2.387,16.803"/>
	<path fill="none" stroke="#2F2018" stroke-width="0.8008" stroke-miterlimit="10" d="M-3625.678-313.758
		c6.076-5.798,6.032-13.532,5.675-13.59"/>
	<path fill="none" stroke="#2F2018" stroke-width="0.8008" stroke-miterlimit="10" d="M-3625.938-319.948
		c-0.394,8.783,3.277,19.271,1.835,20.844c-1.441,1.573-1.18,2.098-7.21,3.54s-8.783-2.098-8.783-2.098
		c-1.967-2.098,0-16.78,0-16.78"/>
	<path fill="none" stroke="#2F2018" stroke-width="0.8008" stroke-miterlimit="10" d="M-3650.061-311.026
		c0,0,1.911,11.267-0.056,13.364c0,0-2.566,2.442-8.783,2.098c-6.191-0.345-7.021-2.144-7.548-3.016
		c-1.729-2.862,1.835-13.24,1.442-22.024"/>
	<path fill="none" stroke="#2F2018" stroke-width="0.8008" stroke-miterlimit="10" d="M-3666.772-303.45
		c-6.19-0.345-7.52-2.144-8.047-3.016c-1.155-1.912,0.477-7.603,1.287-13.507"/>
	<path fill="none" stroke="#2F2018" stroke-width="0.8008" stroke-miterlimit="10" d="M-3623.766-302.546
		c4.235-2.348,4.679-3.355,5.094-4.151c1.031-1.981-1.276-8.015-2.461-13.855"/>
	<path fill="none" stroke="#2F2018" stroke-width="0.8008" stroke-miterlimit="10" d="M-3649.449-306.697
		c0,0,3.731,1.304,8.606,0.056"/>
	<path fill="none" stroke="#2F2018" stroke-width="0.8008" stroke-miterlimit="10" d="M-3658.075-337.517
		c-0.288,4.677,2.377,8.391,2.377,8.391s0.395-2.49,1.574-5.113c1.292,7.735,4.896,8.391,4.896,8.391
		c0.304-1.441,1.702-4.129,1.702-5.506"/>
	<g>
		<g>
			<path fill="#434343" d="M-3634.104-374.869c0.154,0.381,0.258,0.845-0.158,1.087c-0.518,0.303-0.05,1.107,0.471,0.805
				c0.774-0.452,0.905-1.352,0.586-2.14C-3633.428-375.666-3634.329-375.427-3634.104-374.869L-3634.104-374.869z"/>
		</g>
	</g>
	<g>
		<g>
			<path fill="#434343" d="M-3657.96-375.296c0.154,0.381,0.256,0.846-0.16,1.088c-0.518,0.303-0.049,1.107,0.471,0.805
				c0.774-0.453,0.906-1.352,0.586-2.141C-3657.285-376.093-3658.187-375.853-3657.96-375.296L-3657.96-375.296z"/>
		</g>
	</g>
	<circle fill="#616262" cx="-3657.884" cy="-375.505" r="0.419"/>
	<circle fill="#616262" cx="-3634.027" cy="-375.085" r="0.419"/>
	<path opacity="0.5" fill="#AE9485" d="M-3668.233-350.772c-1.861,2.948-2.45,4.333-2.756,7.998
		c-0.106,1.285,0.967,3.683,1.443,3.904c0.4,0.186,0.912,0.512,0.912,0.512s0.086-6.173,0.955-8.937
		c0.553-1.763,0.9-2.739,1.471-3.277c0.131-0.124,0.761-0.584,0.487-1.051C-3665.885-351.851-3667.224-352.128-3668.233-350.772
		L-3668.233-350.772z"/>
	<path opacity="0.4" fill="#FECB8A" d="M-3668.406-411.447l-0.604-0.708c0,0-0.679,3.75,1.339,7.971
		c1.582,3.309,4.965,4.865,4.965,4.865s2.348-3.787,0.9-4.213c-1.446-0.427-3.102-2.222-3.102-2.222l-1.385-2.062l-2.158-3.102"/>
	<path opacity="0.4" fill="#FECB8A" d="M-3627.966-414.046c0,0-0.666,7.125-8.034,13.964c0,0-2.134-0.87-2.389-1.857
		c-0.255-0.988,1.595-3.505,1.595-3.505l5.242-6.447l2.357-2.637"/>
	<path opacity="0.4" fill="#FEDFA8" d="M-3668.014-410.971c0,0,0.438,3.329,2.787,5.809c0.901,0.951,1.519,1.811,2.288,2.235
		c1.215,0.673,0.164,1.879-0.604,1.328c-1.115-0.803-1.896-2.169-2.547-3.33c-1.061-1.896-1.029-1.853-1.962-5.209
		L-3668.014-410.971z"/>
	<path opacity="0.4" fill="#FEDFA8" d="M-3628.916-414.612c0,0-2.104,4.267-4.874,7.307c-2.74,3.009-5.038,4.866-5.038,4.866
		l1.229,1.036c0,0,2.955-3.291,4.649-5.547c1.769-2.355,4.2-7.578,4.2-7.578L-3628.916-414.612z"/>
	<path fill="none" stroke="#000000" stroke-width="0.7859" stroke-miterlimit="10" d="M-3638.36-403.327
		c-0.261,0.561-0.753,1.737,2.36,3.245s5.571,0.295,6.129-0.459c0.346-0.468,1.701-3.901,2.21-7.615
		c0.312-2.271,0.584-3.804-0.162-5.669c0,0-0.781-1.476-1.76-0.396C-3630.505-413.204-3637.969-404.168-3638.36-403.327z"/>
	<path fill="none" stroke="#000000" stroke-width="0.7859" stroke-miterlimit="10" d="M-3661.695-403.294
		c0.464,0.104,0.524,2.753-1.442,4.359c-1.966,1.605-3.277,1.998-4.326,1.408s-3.13-1.437-3.834-6.369
		c-0.743-5.199,1.123-7.842,1.977-7.996c0.399-0.072,0.708,0.604,0.871,0.975C-3668.077-410.069-3664.351-403.896-3661.695-403.294z
		"/>
</g>
</svg>
