<?xml version="1.0" encoding="utf-8"?>
<!-- Generator: Adobe Illustrator 16.0.0, SVG Export Plug-In . SVG Version: 6.00 Build 0)  -->
<!DOCTYPE svg PUBLIC "-//W3C//DTD SVG 1.1//EN" "http://www.w3.org/Graphics/SVG/1.1/DTD/svg11.dtd">
<svg version="1.1" id="Layer_1" xmlns="http://www.w3.org/2000/svg" xmlns:xlink="http://www.w3.org/1999/xlink" x="0px" y="0px"
	 width="742.906px" height="1044.259px" viewBox="-16.894 -387.759 742.906 1044.259"
	 enable-background="new -16.894 -387.759 742.906 1044.259" xml:space="preserve">
<path fill="#6C5D46" stroke="#2F2018" stroke-width="6.2474" stroke-miterlimit="10" d="M126.562,518.125
	c0,0-5.507,19.584,4.167,30.056c3.074,3.323,24.792,19.55,53.687,19.426l6.689-27.459"/>
<path fill="#6C5D46" stroke="#2F2018" stroke-width="6.2474" stroke-miterlimit="10" d="M552.364,516.712
	c0,0,6.739,19.198-2.249,30.252c-2.382,2.938-12.715,14.898-34.278,20.03l-14.318-25.147"/>
<path fill="#6C5D46" stroke="#2F2018" stroke-width="6.2474" stroke-miterlimit="10" d="M402.567,587.828
	c0,0-5.884,18.803,4.855,28.262c5.455,4.8,20.637,12.924,46.795,13.037c28.895,0.134,50.834-15.153,53.692-18.665
	c5.631-6.9-2.092-32.57-2.092-32.57"/>
<path fill="#6C5D46" stroke="#2F2018" stroke-width="6.2474" stroke-miterlimit="10" d="M301.383,587.828
	c0,0,5.881,18.803-4.858,28.262c-5.452,4.8-20.631,12.924-46.793,13.037c-28.895,0.134-47.762-11.826-50.835-15.153
	c-9.671-10.462-2.329-30.673-2.329-30.673"/>
<path fill="#FFFFFF" d="M191.111,476.832c0,0-25.064-11.608-43.471-33.939c-11.814-14.339-16.87-29.943-18.366-44.344
	c-40.489-50.297-19.524-109.363-17.783-122.709c-3.545,8.042-9.196,20.105-31.368,37.496
	C69.228,194.009,137.849,97.682,169.623,85.332l331.902-13.384c0,0,2.625,1.745,7,5.212c16.01,12.707,55.33,48.64,73.806,107.302
	c21.548,68.402-8.043,108.41-8.043,108.41l-1.538-0.023c-0.598,24.22-6.428,52.699-25.403,76.898
	c-3.616,21.812-14.732,55.197-43.772,82.921h-0.015c5.938,54.131,20.948,104.868,12.289,114.327
	c-11.251,12.268-9.212,16.36-56.26,27.602c-47.038,11.265-68.531-16.354-68.531-16.354c-7.539-8.036-7.667-39.811-5.838-70.043
	c-38.02,9.713-67.128-0.45-67.128-0.45l-0.306,0.027c2.689,26.646,4.102,60.858-4.892,70.466c0,0-20.024,19.06-68.521,16.354
	c-48.309-2.675-54.788-16.721-58.886-23.519C176.986,557.018,184.877,519.677,191.111,476.832z"/>
<g id="XMLID_1_">
	<g>
		
			<radialGradient id="SVGID_1_" cx="340.0225" cy="525.0732" r="389.4219" gradientTransform="matrix(1 0 0 -1 0 793)" gradientUnits="userSpaceOnUse">
			<stop  offset="0" style="stop-color:#FFF5EC"/>
			<stop  offset="0.1931" style="stop-color:#FDF3E8;stop-opacity:0.8649"/>
			<stop  offset="0.3555" style="stop-color:#F7EBDD;stop-opacity:0.7512"/>
			<stop  offset="0.5068" style="stop-color:#EFDFCD;stop-opacity:0.6453"/>
			<stop  offset="0.6513" style="stop-color:#E6D0B6;stop-opacity:0.5441"/>
			<stop  offset="0.7912" style="stop-color:#DABD9B;stop-opacity:0.4462"/>
			<stop  offset="0.9255" style="stop-color:#CCA77D;stop-opacity:0.3521"/>
			<stop  offset="1" style="stop-color:#C49A6C;stop-opacity:0.3"/>
		</radialGradient>
		<path fill="url(#SVGID_1_)" d="M391.063,578.242c-7.545-8.036-7.677-39.811-5.844-70.043c-38.024,9.713-67.128-0.45-67.128-0.45
			l-0.306,0.027c2.688,26.646,4.099,60.864-4.894,70.466c0,0-20.024,19.064-68.522,16.359c-48.309-2.67-54.789-16.723-58.884-23.524
			c-8.502-14.065-0.611-51.405,5.621-94.245c0,0-25.062-11.608-43.472-33.939c-11.809-14.339-16.866-29.943-18.362-44.353
			c-40.493-50.295-19.524-109.354-17.785-122.711c-3.542,8.053-9.195,20.112-31.367,37.507
			C69.228,194.005,137.845,97.677,169.617,85.327l331.899-13.379c0,0,57.29,37.847,80.809,112.514
			c21.553,68.402-8.049,108.414-8.049,108.414l-1.538-0.028c-0.598,24.22-6.421,52.692-25.396,76.898
			c-3.62,21.812-14.736,55.197-43.775,82.921h-0.016c5.943,54.131,20.951,104.868,12.289,114.327
			c-11.243,12.263-9.213,16.36-56.252,27.607C412.55,605.868,391.063,578.242,391.063,578.242z"/>
	</g>
	<g>
		<path fill="none" stroke="#000000" stroke-width="0.7264" stroke-linecap="round" stroke-linejoin="round" d="M137.021,346.638
			c0,0-10.725,23.608-7.743,51.911c1.496,14.4,6.548,30.005,18.365,44.348c18.407,22.327,43.472,33.936,43.472,33.936"/>
		<path fill="none" stroke="#000000" stroke-width="0.7264" stroke-linecap="round" stroke-linejoin="round" d="M565.961,238.67
			c0,0,7.525,23.727,6.788,54.183c-0.598,24.216-6.428,52.699-25.397,76.9l-0.019,0.015"/>
		<path fill="none" stroke="#000000" stroke-width="0.7264" stroke-linecap="round" stroke-linejoin="round" d="M503.573,452.671
			c29.04-27.721,40.156-61.108,43.778-82.918c2.278-13.784,1.562-22.941,0.491-23.115"/>
		<path fill="none" stroke="#000000" stroke-width="0.7264" stroke-linecap="round" stroke-linejoin="round" d="M391.063,447.322
			c0,0-3.97,29.614-5.844,60.877c-1.833,30.232-1.701,62.007,5.844,70.043c0,0,21.487,27.622,68.532,16.359
			c47.044-11.242,45.01-15.345,56.253-27.603c8.659-9.464-6.352-60.194-12.289-114.328c-1.772-16.143-2.737-32.578-2.034-48.313"/>
		<path fill="none" stroke="#000000" stroke-width="0.7264" stroke-linecap="round" stroke-linejoin="round" d="M313.328,473.971
			c0,0,2.544,15.024,4.46,33.806c2.687,26.646,4.099,60.864-4.895,70.466c0,0-20.024,19.064-68.521,16.359
			c-48.309-2.67-54.788-16.723-58.886-23.524c-8.5-14.065-0.609-51.405,5.625-94.245c3.66-25.165,6.756-52.219,5.625-77.572"/>
		<path fill="none" stroke="#000000" stroke-width="0.7264" stroke-linecap="round" stroke-linejoin="round" d="M318.096,507.749
			c0,0,29.104,10.163,67.125,0.45c0.016-0.013,0.016-0.013,0.027-0.013"/>
		<path fill="none" stroke="#000000" stroke-width="0.7264" stroke-linecap="round" stroke-linejoin="round" d="M129.844,399.264
			c-0.19-0.236-0.396-0.482-0.565-0.715c-40.493-50.297-19.527-109.354-17.785-122.709c-3.544,8.042-9.193,20.105-31.368,37.496
			C69.231,194.013,137.849,97.682,169.625,85.332l331.9-13.379c0,0,57.287,37.847,80.806,112.513
			c21.548,68.403-8.049,108.41-8.049,108.41"/>
	</g>
</g>
<path fill="#FFFFFF" d="M634.482-243.066c0,0-29.997,26.249-55.228,32.724c16.702-12.275,24.544-28.462,24.544-28.462
	s-59.661,27.099-113.252,23.593c-1.757-0.114-3.358-0.089-4.847,0.054c-27.459-34.703-66.033-63.22-113.86-73.663h0.008
	c-4.008-7.361-51.426-30.165-84.11,0.085c-53.345,11.158-90.191,43.335-117.573,89.947l0.027-0.063c0,0-27.68,14.312-65.523,0
	c-37.845-14.323-62.904-32.968-71.595-36.039c-7.717-2.719-10.23,8.183-10.23,13.3c0,5.113-3.412,68.53,31.366,91.027
	c30.389,19.662,67.592,14.318,75.625,13.294c-10.335,4.86-37.435,8.36-43.234,8.36c0,0,25.021,21.078,46.624,8.455
	c-2.991,17.453-4.158,34.564-3.939,51.191c-27.003,36.725-22.569,73.143-22.569,73.143S120.98,7.738,133.352-2.248
	c0.69,4.423,1.454,8.799,2.282,13.132c-4.167,20.181,2.786,42.662,2.786,42.662s1.447-4.638,4.675-10.393
	c1.036,3.862,2.105,7.668,3.199,11.416c14.614,50.139,93.073,50.623,109.027,53.421c13.602,2.377,52.421,13.606,74.39,15.293
	c20.437,1.567,29.979-6.923,54.525-14.087c24.548-7.159,94.1-11.332,117.28-37.244c6.432-7.189,12.763-19.599,18.202-35.411
	c9.676,3.729,20.657,1.642,33.455,10.863c-3.005-24.756-14.675-40.038-23.302-50.218c0.323-1.76,0.64-3.53,0.946-5.32
	c12.903,5.295,20.303,15.649,20.303,15.649s4.595-39.642-15.75-58.4c0.739-16.553,0.284-33.506-1.711-50.088
	c0.725,0.118,1.412,0.152,2.05,0.073c45.246-18.412,51.719-32.73,51.719-32.73s-20.79,7.5-37.837,4.089
	C613.35-146.924,634.482-243.066,634.482-243.066z"/>
<radialGradient id="SVGID_2_" cx="328.6211" cy="883.2617" r="263.855" gradientTransform="matrix(1 0 0 -1 0 793)" gradientUnits="userSpaceOnUse">
	<stop  offset="0" style="stop-color:#FFF5EC"/>
	<stop  offset="0.1931" style="stop-color:#FDF3E8;stop-opacity:0.8745"/>
	<stop  offset="0.3555" style="stop-color:#F7EBDD;stop-opacity:0.7689"/>
	<stop  offset="0.5068" style="stop-color:#EFDFCD;stop-opacity:0.6706"/>
	<stop  offset="0.6513" style="stop-color:#E6D0B6;stop-opacity:0.5766"/>
	<stop  offset="0.7912" style="stop-color:#DABD9B;stop-opacity:0.4857"/>
	<stop  offset="0.9255" style="stop-color:#CCA77D;stop-opacity:0.3984"/>
	<stop  offset="1" style="stop-color:#C49A6C;stop-opacity:0.35"/>
</radialGradient>
<path fill="url(#SVGID_2_)" stroke="#EEEEEE" stroke-width="1.453" stroke-miterlimit="10" d="M634.491-243.066
	c0,0-30.006,26.249-55.236,32.724c16.702-12.275,24.544-28.462,24.544-28.462s-59.661,27.099-113.252,23.593
	c-1.757-0.114-3.358-0.089-4.847,0.054c-27.459-34.703-66.033-63.22-113.86-73.663h0.008c-4.008-7.361-51.426-30.165-84.11,0.085
	c-53.345,11.158-90.191,43.335-117.573,89.947l0.027-0.063c0,0-27.68,14.312-65.523,0c-37.845-14.323-62.904-32.968-71.595-36.039
	c-7.717-2.719-10.23,8.183-10.23,13.3c0,5.113-3.412,68.53,31.366,91.027c30.389,19.662,67.592,14.318,75.625,13.294
	c-10.335,4.86-37.435,8.36-43.234,8.36c0,0,25.021,21.078,46.624,8.455c-2.991,17.453-4.158,34.564-3.939,51.191
	c-27.003,36.725-22.569,73.143-22.569,73.143S120.98,7.738,133.352-2.248c0.69,4.423,1.454,8.799,2.282,13.132
	c-4.167,20.181,2.786,42.662,2.786,42.662s1.447-4.638,4.675-10.393c1.036,3.862,2.105,7.668,3.199,11.416
	c14.614,50.133,93.073,50.623,109.027,53.421c13.602,2.377,52.421,13.606,74.39,15.293c20.437,1.567,29.979-6.928,54.525-14.087
	c24.548-7.165,94.1-11.332,117.28-37.244c6.432-7.189,12.763-19.599,18.202-35.411c9.68,3.729,20.661,1.642,33.455,10.863
	c-3-24.756-14.675-40.038-23.302-50.218c0.323-1.76,0.64-3.53,0.946-5.32c12.903,5.301,20.303,15.649,20.303,15.649
	s4.595-39.642-15.744-58.4c0.733-16.553,0.278-33.506-1.717-50.088c0.725,0.118,1.414,0.152,2.05,0.073
	c45.246-18.412,51.719-32.73,51.719-32.73s-20.79,7.5-37.837,4.089C613.35-146.924,634.491-243.066,634.491-243.066z"/>
<path fill="none" stroke="#000000" stroke-width="6.1367" stroke-miterlimit="10" d="M135.629,10.884
	c-0.829-4.328-1.595-8.708-2.287-13.132"/>
<path fill="#F3E7DC" d="M120.453,509.563c4.114,6.802,14.479,20.835,62.783,23.519l2.805-23.008l5.362-35.337l-21.796-11.183
	l-25.994-25.934l-13.117-33.435C124.168,450.248,111.442,494.646,120.453,509.563z"/>
<path fill="none" stroke="#000000" stroke-width="6.1367" stroke-miterlimit="10" d="M530.827-8.132
	c-0.309,1.786-0.624,3.56-0.951,5.32"/>
<path fill="#F3E7DC" d="M538.614,399.654l-37.096,17.908l16.559,122.58c33.047-18.309,36.507-26.18,39.736-32.39
	C565.862,492.297,547.858,445.229,538.614,399.654z"/>
<path fill="#DDBA9C" d="M476.288,87.933"/>
<path opacity="0.3" fill="#C49A6C" enable-background="new    " d="M470.742,90.781l21.746-7.56c0,0,17.429,5.092,43.054,41.16
	c43.763,53.193,46.518,146.728,46.518,146.728l-9.449-7.264l-12.559,76.282l-12.401,26.148l-44.271,87.933
	c0,0-3.151-58.829,7.171-80.659c10.319-21.823,35.302-106.24,35.302-106.24s-19.447,25.566-27.558,27.099
	C560.082,198.3,470.742,90.781,470.742,90.781"/>
<path opacity="0.5" fill="#AE9485" enable-background="new    " d="M572.576,292.253l1.538,0.03c0,0,29.595-40.012,8.049-108.415
	c-18.478-58.657-57.8-94.596-73.812-107.309c-3.747-2.976-6.199-4.666-6.827-5.092l-11.221,12.434c0,0,75.731,66.815,80.706,142.926
	c3.691,56.61-4.975,8.781-17.83-7.101c8.662,43.776,13.889,96.293-3.688,133.038c0,0-3.742-14.31-5.809-25.171
	c-11.011,59.538-18.21,76.531-40.124,103.17c-0.386,6.764,0.169,13.892,1.09,19.241c25.299-26.634,39.136-60.358,42.529-80.856
	C566.153,344.946,571.979,316.474,572.576,292.253z"/>
<path fill="none" stroke="#000000" stroke-width="6.1367" stroke-miterlimit="10" d="M485.705-215.162
	c1.483-0.144,3.093-0.163,4.842-0.049c53.591,3.505,113.252-23.593,113.252-23.593s-7.842,16.187-24.544,28.462
	c25.23-6.476,55.236-32.724,55.236-32.724s-21.142,96.143-84.896,113.526c17.053,3.411,37.843-4.089,37.843-4.089
	s-6.479,14.318-51.721,32.73c-0.638,0.08-1.324,0.055-2.05-0.064"/>
<path fill="none" stroke="#000000" stroke-width="6.1367" stroke-miterlimit="10" d="M510.73,30.531
	c11.755,12.271,25.517,4.676,42.443,16.875c-3.853-31.812-22.042-47.982-29.66-57.788c17.38,3.581,27.61,17.898,27.61,17.898
	s5.116-43.983-19.171-61.214"/>
<path fill="none" stroke="#000000" stroke-width="6.1367" stroke-miterlimit="10" d="M146.296-68.173
	c-45.713,41.936-39.578,92.054-39.578,92.054S134.733-7.82,146.296-9.868c-21.168,20.455-7.871,63.409-7.871,63.409
	s7.535-24.147,26.594-30.688c-5.37,20.969,4.094,33.759,4.094,33.759s6.646-28.128,16.362-29.665"/>
<path opacity="0.3" fill="#FFFFFF" enable-background="new    " d="M514.576-85.256c0,36.815-10.4,91.121-28.876,119.86
	c-32.413,50.436-88.999,63.784-152.974,63.784c-59.294,0-123.264-17.506-156.46-61.846c-23.038-30.771-25.39-80.253-25.39-121.798
	c0-101.423,81.417-183.639,181.85-183.639C433.163-268.895,514.576-186.679,514.576-85.256z"/>
<path d="M436.148-38.384c10.666,0,19.312,8.646,19.312,19.31c0,10.67-8.646,19.318-19.312,19.318
	c-10.668,0-19.315-8.648-19.315-19.318C416.833-29.737,425.48-38.384,436.148-38.384z"/>
<path d="M246.89-41.43c10.666,0,19.313,8.647,19.313,19.317c0,10.668-8.647,19.316-19.313,19.316
	c-10.67,0-19.317-8.648-19.317-19.316C227.573-32.783,236.22-41.43,246.89-41.43z"/>
<path d="M329.719,47.375c6.385,0.495,13.129-1.122,16.564-2.542c4.726-1.958,14.976-13.798,22.323-9.156
	c6.731,4.252-1.459,8.183-4.527,9.973c-3.07,1.789-8.838,1.606-12.434,2.388c-3.35,0.73-21.116,6.654-21.116,6.654
	s-4.269-1.884-9.125-3.678c-4.861-1.79-8.026-4.41-15.697-3.609c-7.671,0.8-4.952,1.394-10.186,0.88
	c-5.233-0.51-8.383-4.019-4.814-7.49c4.121-4.015,13.624-0.411,17.031,0.949C311.146,43.114,323.327,46.886,329.719,47.375z"/>
<path fill="none" stroke="#000000" stroke-width="6.1367" stroke-miterlimit="10" d="M330.523,51.015c0,0-3.188,21.032,1.953,21.032
	c5.149,0,29.784,7.836,43.804-2.621c6.257-4.666,2.044-8.24,5.111-12.814"/>
<path fill="none" stroke="#000000" stroke-width="6.1367" stroke-miterlimit="10" d="M285.759,60.513
	c0,0,3.581,14.278,10.229,14.278s29.611,1.02,33.73-4.099"/>
<path fill="none" stroke="#000000" stroke-width="6.1367" stroke-miterlimit="10" d="M519.726,36.542
	c-5.434,15.812-11.77,28.221-18.201,35.411c-23.184,25.912-92.735,30.079-117.284,37.244c-24.546,7.159-34.091,15.654-54.521,14.087
	c-21.97-1.687-60.792-12.916-74.393-15.293c-15.956-2.799-94.408-3.283-109.028-53.421c-1.093-3.748-2.163-7.564-3.204-11.42"/>
<path fill="none" stroke="#000000" stroke-width="6.1367" stroke-miterlimit="10" d="M366.478-289.913
	c89.906,16.825,148.243,97.286,163.271,165.578c5.21,23.699,6.727,49.011,5.639,73.451"/>
<path fill="none" stroke="#000000" stroke-width="6.1367" stroke-miterlimit="10" d="M129.269-49.257
	c-0.463-35.899,5.458-74.023,22.451-113.013c28.938-66.379,69.863-112.865,136.509-126.604"/>
<path fill="#965545" d="M404.611-246.137c-2.039,4.375-5.885,13.547,18.41,25.314c24.289,11.761,43.469,2.3,47.812-3.579
	c2.702-3.649,13.272-30.446,17.24-59.413c2.436-17.716,4.562-29.676-1.255-44.23c0,0-6.094-11.512-13.735-3.091
	C465.893-323.206,407.659-252.703,404.611-246.137z"/>
<path fill="#965545" d="M222.549-245.88c3.619,0.816,4.089,21.478-11.25,34.005c-15.343,12.529-25.572,15.6-33.755,10.997
	s-24.419-11.213-29.919-49.694c-5.792-40.566,8.769-61.182,15.431-62.389c3.107-0.569,5.521,4.712,6.791,7.608
	C172.762-298.743,201.838-250.573,222.549-245.88z"/>
<path fill="none" stroke="#000000" stroke-width="6.1367" stroke-miterlimit="10" d="M371.85-288.82
	c-5.223-9.586-84.095-45.396-108.131,44.013"/>
<path fill="none" stroke="#000000" stroke-width="4.0912" stroke-miterlimit="10" d="M281.213-253.642
	c-21.756,4.435-42.044,29.492-27.723,75.007c0,0,20.967-26.249,39.362-31.707c-7.145,8.183-20.442,24.034-7.145,54.212
	c0,0,19.089-35.292,24.548-37.846c-2.807,3.786-5.37,14.06,0.769,22.248c0,0,8.181-15.855,15.339-21.733"/>
<path fill="none" stroke="#000000" stroke-width="4.0912" stroke-miterlimit="10" d="M140.722-132.155
	c-20.204,8.642-47.301-6.077-65.967-11.193c9.332-2.942,8.82-2.176,14.828-3.328c15.347-2.931,23.882-5.404,29.153-7.411
	c-4.093,0.262-19.433,6.488-31.537,4.691c-12.104-1.788-21.394-13.64-30.342-18.758c5.881-0.256,20.527-1.275,25.356-3.604
	c-4.656,0.761-12.061,1.143-17.688-0.741c-14.437-4.841-27.187-32.31-27.187-32.31s7.549,2.14,9.461,2.195
	c-4.479-2.422-21.25-20.553-20.765-28.057"/>
<path fill="none" stroke="#000000" stroke-width="6.1367" stroke-miterlimit="10" d="M170.193-198.851c0,0-27.675,14.312-65.522,0
	c-37.845-14.323-62.901-32.968-71.596-36.039c-7.714-2.719-10.23,8.183-10.23,13.3c0,5.113-3.409,68.53,31.367,91.027
	c30.386,19.662,67.591,14.318,75.622,13.299c-10.335,4.855-37.437,8.355-43.234,8.355c0,0,25.214,21.245,46.872,8.32"/>
<path opacity="0.3" fill="#C49A6C" enable-background="new    " d="M389.275,462.124c-11.878,10.166-54.697,17.468-77.744,14.708
	l6.558,20.231h66.151L389.275,462.124z"/>
<path opacity="0.5" fill="#AE9485" enable-background="new    " d="M389.275,482.46c0,0-68.541,12.745-73.387,9.031
	c-4.837-3.702,3.392,16.258,3.392,16.258l33.48,4.657l31.479-6.699"/>
<path opacity="0.3" fill="#C49A6C" enable-background="new    " d="M113.451,284.387c0,0-1.701,50.916,14.425,85.381
	c0.777,1.666,2.128,4.673,2.128,4.673l-1.256,15.538l-18.928-43.35l-3.752-42.409L113.451,284.387z"/>
<path opacity="0.3" fill="#C49A6C" enable-background="new    " d="M136.292,354.125c0,0,2.8,64.571,59.567,82.809l-5.154,25.19
	c0,0-59.962-51.28-59.536-69.225c-4.417-10.53-3.457-13.106-2.841-20.878C129.293,359.825,136.292,354.125,136.292,354.125z"/>
<path opacity="0.5" fill="#AE9485" enable-background="new    " d="M130.922,379.003c0,0,21.541,71.042,64.519,72.496l-2.129,25.337
	c0,0-35.645-21.945-41.454-32.598c-5.812-10.662-24.698-33.188-23.004-49.898C130.547,377.634,130.922,379.003,130.922,379.003z"/>
<path opacity="0.5" fill="#AE9485" enable-background="new    " d="M106.065,304.22c0,0-0.117,19.389,0,21.569
	c0.122,2.177,0,20.344,0,20.344s14.528,41.864,18.221,45.745c3.696,3.883,3.419-8.292,3.419-8.292S110.868,359.617,106.065,304.22z"
	/>
<path fill="#F3E7DC" stroke="#3E2723" stroke-width="6.1313" stroke-miterlimit="10" d="M575.527,165.962
	c0,0,67.746-32.564,47.806-109.35c-29.156,32.295-41.427,32.661-41.427,32.661S580.857,77.664,572.779,59
	c-10.571,20.113-16.029,34.945-35.297,46.12"/>
<path fill="none" stroke="#2F2018" stroke-width="6.2474" stroke-miterlimit="10" d="M501.519,71.953
	c0,0,57.282,37.847,80.802,112.509c21.558,68.411-8.033,108.414-8.033,108.414"/>
<path fill="none" stroke="#2F2018" stroke-width="6.2474" stroke-miterlimit="10" d="M129.836,399.255
	c-41.274-50.46-20.112-110.006-18.345-123.419c-3.545,8.058-9.203,20.11-31.366,37.5C69.217,194.013,137.849,97.677,169.615,85.342"
	/>
<path fill="none" stroke="#2F2018" stroke-width="6.2474" stroke-miterlimit="10" d="M137.011,346.638
	c0,0-24.412,53.768,10.617,96.259c18.412,22.327,43.477,33.939,43.477,33.939"/>
<path fill="none" stroke="#2F2018" stroke-width="6.2474" stroke-miterlimit="10" d="M565.956,238.67
	c0,0,24.231,76.46-18.625,131.104"/>
<path fill="none" stroke="#2F2018" stroke-width="6.2474" stroke-miterlimit="10" d="M503.559,452.667
	c47.396-45.233,47.059-105.579,44.277-106.029"/>
<path fill="none" stroke="#2F2018" stroke-width="6.2474" stroke-miterlimit="10" d="M501.519,404.368
	c-3.064,68.524,25.571,150.349,14.318,162.626c-11.248,12.275-9.201,16.365-56.249,27.616
	c-47.051,11.25-68.525-16.364-68.525-16.364c-15.35-16.364,0-130.919,0-130.919"/>
<path fill="none" stroke="#2F2018" stroke-width="6.2474" stroke-miterlimit="10" d="M313.326,473.975
	c0,0,14.909,87.903-0.433,104.268c0,0-20.024,19.06-68.53,16.364c-48.3-2.679-54.777-16.715-58.887-23.529
	c-13.49-22.327,14.318-103.297,11.251-171.828"/>
<path fill="none" stroke="#2F2018" stroke-width="6.2474" stroke-miterlimit="10" d="M182.94,533.081
	c-48.302-2.684-58.67-16.717-62.783-23.519c-9.012-14.922,3.712-59.318,10.046-105.377"/>
<path fill="none" stroke="#2F2018" stroke-width="6.2474" stroke-miterlimit="10" d="M518.471,540.143
	c33.052-18.309,36.51-26.18,39.743-32.39c8.038-15.456-9.955-62.527-19.203-108.099"/>
<path fill="none" stroke="#2F2018" stroke-width="6.2474" stroke-miterlimit="10" d="M318.089,507.753
	c0,0,29.122,10.166,67.152,0.434"/>
<path fill="none" stroke="#2F2018" stroke-width="6.2474" stroke-miterlimit="10" d="M250.79,267.31
	c-2.244,36.479,18.553,65.462,18.553,65.462s3.068-19.436,12.277-39.896c10.082,60.354,38.203,65.466,38.203,65.466
	c2.365-11.243,13.277-32.22,13.277-42.955"/>
<g>
	<g>
		<path fill="#434343" d="M437.826-24.117c1.217,2.918,2.015,6.685-1.243,8.49c-4.097,2.269-0.435,8.543,3.666,6.273
			c6.078-3.361,7.097-10.679,4.578-16.692c-0.762-1.829-2.371-3.113-4.468-2.54C438.635-28.115,437.055-25.95,437.826-24.117
			L437.826-24.117z"/>
	</g>
</g>
<g>
	<g>
		<path fill="#434343" d="M251.685-27.444c1.219,2.917,2.02,6.689-1.235,8.495c-4.097,2.264-0.437,8.539,3.668,6.269
			c6.074-3.357,7.092-10.678,4.572-16.691c-0.762-1.825-2.37-3.11-4.467-2.536C252.496-31.438,250.917-29.272,251.685-27.444
			L251.685-27.444z"/>
	</g>
</g>
<path fill="#616262" d="M252.28-32.348c1.808,0,3.273,1.469,3.273,3.273c0,1.809-1.466,3.273-3.273,3.273
	c-1.806,0-3.275-1.465-3.275-3.273C249.005-30.879,250.474-32.348,252.28-32.348z"/>
<path fill="#616262" d="M438.42-29.075c1.81,0,3.272,1.47,3.272,3.273c0,1.814-1.463,3.278-3.272,3.278
	c-1.813,0-3.275-1.464-3.275-3.278C435.145-27.605,436.607-29.075,438.42-29.075z"/>
<path opacity="0.5" fill="#AE9485" enable-background="new    " d="M171.54,163.888c-14.517,23.001-19.116,33.802-21.494,62.401
	c-0.836,10.026,7.542,28.726,11.255,30.456c3.123,1.449,7.112,3.997,7.112,3.997s0.68-48.164,7.456-69.725
	c4.316-13.754,7.031-21.375,11.481-25.575c1.016-0.959,5.93-4.553,3.796-8.193C189.865,155.474,179.417,153.313,171.54,163.888
	L171.54,163.888z"/>
<path opacity="0.4" fill="#FECB8A" enable-background="new    " d="M170.193-309.491l-4.709-5.527c0,0-5.291,29.258,10.449,62.192
	c12.335,25.813,38.735,37.957,38.735,37.957s18.31-29.547,7.023-32.874c-11.286-3.327-24.202-17.334-24.202-17.334l-10.811-16.083
	l-16.834-24.192"/>
<path opacity="0.4" fill="#FECB8A" enable-background="new    " d="M485.705-329.762c0,0-5.196,55.582-62.684,108.939
	c0,0-16.645-6.788-18.638-14.491c-1.979-7.704,12.449-27.342,12.449-27.342l40.898-50.306l18.387-20.573"/>
<path opacity="0.4" fill="#FEDFA8" enable-background="new    " d="M173.253-305.778c0,0,3.427,25.971,21.748,45.323
	c7.025,7.421,11.848,14.125,17.851,17.443c9.475,5.245,1.277,14.653-4.707,10.352c-8.696-6.259-14.801-16.914-19.869-25.981
	c-8.274-14.797-8.038-14.452-15.309-40.636L173.253-305.778z"/>
<path opacity="0.4" fill="#FEDFA8" enable-background="new    " d="M478.292-334.187c0,0-16.412,33.288-38.023,57.006
	c-21.387,23.47-39.313,37.965-39.313,37.965l9.587,8.083c0,0,23.058-25.674,36.277-43.27c13.799-18.383,32.765-59.137,32.765-59.137
	L478.292-334.187z"/>
<path fill="none" stroke="#000000" stroke-width="6.1313" stroke-miterlimit="10" d="M404.611-246.137
	c-2.039,4.375-5.885,13.547,18.41,25.314c24.289,11.761,43.469,2.3,47.812-3.579c2.702-3.649,13.272-30.446,17.24-59.413
	c2.436-17.716,4.562-29.676-1.255-44.23c0,0-6.094-11.512-13.735-3.091C465.893-323.206,407.659-252.703,404.611-246.137z"/>
<path fill="none" stroke="#000000" stroke-width="6.1313" stroke-miterlimit="10" d="M222.549-245.88
	c3.619,0.816,4.089,21.478-11.25,34.005c-15.343,12.529-25.572,15.6-33.755,10.997s-24.419-11.213-29.919-49.694
	c-5.792-40.566,8.769-61.182,15.431-62.389c3.107-0.569,5.521,4.712,6.791,7.608C172.762-298.743,201.838-250.573,222.549-245.88z"
	/>
</svg>
