<?xml version="1.0" encoding="utf-8"?>
<!-- Generator: Adobe Illustrator 16.0.0, SVG Export Plug-In . SVG Version: 6.00 Build 0)  -->
<!DOCTYPE svg PUBLIC "-//W3C//DTD SVG 1.1//EN" "http://www.w3.org/Graphics/SVG/1.1/DTD/svg11.dtd">
<svg version="1.1" id="Layer_1" xmlns="http://www.w3.org/2000/svg" xmlns:xlink="http://www.w3.org/1999/xlink" x="0px" y="0px"
	 width="321px" height="571px" viewBox="131.5 85.5 321 571" enable-background="new 131.5 85.5 321 571" xml:space="preserve">
<path fill="#DDBA9C" d="M340.313,424.587"/>
<path fill="#6C5D46" stroke="#2F2018" stroke-width="2.4272" stroke-miterlimit="10" d="M204.439,591.723
	c0,0-2.139,7.61,1.619,11.679c1.194,1.291,9.632,7.596,20.858,7.547l2.598-10.669"/>
<path fill="#6C5D46" stroke="#2F2018" stroke-width="2.4272" stroke-miterlimit="10" d="M369.868,591.174
	c0,0,2.618,7.459-0.874,11.755c-0.925,1.141-4.938,5.788-13.316,7.781l-5.563-9.769"/>
<path fill="#6C5D46" stroke="#2F2018" stroke-width="2.4272" stroke-miterlimit="10" d="M311.67,618.805
	c0,0-2.285,7.304,1.888,10.979c2.119,1.866,8.017,5.021,18.181,5.065c11.226,0.051,19.749-5.887,20.86-7.252
	c2.188-2.682-0.813-12.654-0.813-12.654"/>
<path fill="#6C5D46" stroke="#2F2018" stroke-width="2.4272" stroke-miterlimit="10" d="M272.359,618.805
	c0,0,2.285,7.304-1.887,10.979c-2.119,1.866-8.016,5.021-18.18,5.065c-11.226,0.051-18.556-4.595-19.75-5.887
	c-3.757-4.066-0.905-11.917-0.905-11.917"/>
<path fill="#FFFFFF" d="M229.517,575.682c0,0-9.737-4.511-16.889-13.188c-4.589-5.57-6.554-11.633-7.135-17.229
	c-15.731-19.541-7.586-42.486-6.909-47.674c-1.377,3.127-3.573,7.813-12.187,14.568c-4.234-46.36,22.426-83.784,34.771-88.582
	l128.948-5.199c0,0,1.021,0.676,2.72,2.022c6.22,4.938,21.497,18.898,28.676,41.689c8.371,26.575-3.127,42.119-3.127,42.119
	l-0.598-0.01c-0.231,9.409-2.496,20.474-9.868,29.877c-1.404,8.473-5.724,21.444-17.007,32.215h-0.006
	c2.309,21.032,8.14,40.742,4.775,44.418c-4.37,4.766-3.579,6.356-21.857,10.725c-18.275,4.375-26.625-6.354-26.625-6.354
	c-2.93-3.121-2.979-15.467-2.269-27.213c-14.771,3.774-26.079-0.176-26.079-0.176l-0.119,0.012
	c1.045,10.353,1.593,23.646-1.901,27.377c0,0-7.779,7.405-26.621,6.354c-18.769-1.039-21.286-6.497-22.878-9.139
	C224.03,606.834,227.095,592.328,229.517,575.682z"/>
<g id="XMLID_1_">
	<g>
		
			<radialGradient id="SVGID_1_" cx="287.3711" cy="298.4814" r="151.2953" gradientTransform="matrix(1 0 0 -1 0 793)" gradientUnits="userSpaceOnUse">
			<stop  offset="0" style="stop-color:#FFF5EC"/>
			<stop  offset="0.1931" style="stop-color:#FDF3E8;stop-opacity:0.8649"/>
			<stop  offset="0.3555" style="stop-color:#F7EBDD;stop-opacity:0.7512"/>
			<stop  offset="0.5068" style="stop-color:#EFDFCD;stop-opacity:0.6453"/>
			<stop  offset="0.6513" style="stop-color:#E6D0B6;stop-opacity:0.5441"/>
			<stop  offset="0.7912" style="stop-color:#DABD9B;stop-opacity:0.4462"/>
			<stop  offset="0.9255" style="stop-color:#CCA77D;stop-opacity:0.3521"/>
			<stop  offset="1" style="stop-color:#C49A6C;stop-opacity:0.3"/>
		</radialGradient>
		<path fill="url(#SVGID_1_)" d="M307.2,615.081c-2.93-3.122-2.981-15.467-2.27-27.214c-14.772,3.775-26.079-0.175-26.079-0.175
			l-0.119,0.012c1.044,10.353,1.592,23.646-1.902,27.377c0,0-7.779,7.405-26.621,6.354c-18.769-1.037-21.286-6.496-22.878-9.139
			c-3.302-5.464-0.237-19.971,2.185-36.617c0,0-9.737-4.51-16.889-13.186c-4.589-5.571-6.554-11.634-7.135-17.229
			c-15.732-19.542-7.586-42.486-6.909-47.675c-1.377,3.127-3.573,7.813-12.187,14.569c-4.233-46.36,22.426-83.784,34.771-88.583
			l128.947-5.198c0,0,22.258,14.704,31.396,43.713c8.371,26.575-3.128,42.12-3.128,42.12l-0.598-0.011
			c-0.231,9.409-2.495,20.473-9.867,29.877c-1.405,8.473-5.724,21.444-17.008,32.215h-0.005c2.309,21.032,8.14,40.743,4.774,44.418
			c-4.369,4.764-3.579,6.355-21.855,10.726C315.549,625.813,307.2,615.081,307.2,615.081z"/>
	</g>
	<g>
		<path fill="none" stroke="#000000" stroke-width="0.2822" stroke-linecap="round" stroke-linejoin="round" d="M208.502,525.099
			c0,0-4.166,9.173-3.008,20.168c0.581,5.596,2.545,11.657,7.135,17.229c7.152,8.676,16.889,13.186,16.889,13.186"/>
		<path fill="none" stroke="#000000" stroke-width="0.2822" stroke-linecap="round" stroke-linejoin="round" d="M375.15,483.152
			c0,0,2.925,9.218,2.637,21.05c-0.231,9.409-2.495,20.473-9.867,29.877l-0.006,0.006"/>
		<path fill="none" stroke="#000000" stroke-width="0.2822" stroke-linecap="round" stroke-linejoin="round" d="M350.912,566.294
			c11.284-10.771,15.603-23.742,17.008-32.215c0.887-5.356,0.609-8.913,0.192-8.98"/>
		<path fill="none" stroke="#000000" stroke-width="0.2822" stroke-linecap="round" stroke-linejoin="round" d="M307.2,564.217
			c0,0-1.542,11.504-2.27,23.65c-0.711,11.747-0.661,24.092,2.27,27.214c0,0,8.349,10.729,26.626,6.354
			c18.277-4.368,17.487-5.961,21.855-10.725c3.364-3.675-2.467-23.386-4.774-44.418c-0.689-6.271-1.063-12.656-0.791-18.769"/>
		<path fill="none" stroke="#000000" stroke-width="0.2822" stroke-linecap="round" stroke-linejoin="round" d="M277,574.568
			c0,0,0.988,5.837,1.733,13.136c1.044,10.353,1.592,23.646-1.902,27.377c0,0-7.779,7.405-26.621,6.354
			c-18.769-1.037-21.286-6.496-22.878-9.139c-3.302-5.464-0.237-19.971,2.185-36.617c1.422-9.775,2.625-20.287,2.185-30.137"/>
		<path fill="none" stroke="#000000" stroke-width="0.2822" stroke-linecap="round" stroke-linejoin="round" d="M278.852,587.692
			c0,0,11.307,3.95,26.079,0.175c0.006-0.005,0.006-0.005,0.011-0.005"/>
		<path fill="none" stroke="#000000" stroke-width="0.2822" stroke-linecap="round" stroke-linejoin="round" d="M205.714,545.544
			c-0.074-0.091-0.153-0.187-0.22-0.277c-15.732-19.542-7.586-42.486-6.909-47.675c-1.377,3.127-3.573,7.813-12.187,14.569
			c-4.233-46.36,22.426-83.784,34.771-88.583l128.947-5.198c0,0,22.258,14.704,31.396,43.713c8.371,26.575-3.128,42.12-3.128,42.12"
			/>
	</g>
</g>
<path fill="#F3E7DC" d="M202.065,588.396c1.598,2.643,5.626,8.096,24.392,9.139l1.09-8.939l2.084-13.729l-8.468-4.345
	l-10.099-10.074l-5.096-12.991C203.509,565.352,198.564,582.601,202.065,588.396z"/>
<path fill="#F3E7DC" d="M364.527,545.696l-14.412,6.958l6.433,47.624c12.839-7.114,14.184-10.172,15.438-12.583
	C375.113,581.689,368.119,563.402,364.527,545.696z"/>
<path opacity="0.3" fill="#C49A6C" enable-background="new    " d="M338.158,425.695l8.448-2.938c0,0,6.771,1.98,16.726,15.991
	c17.003,20.668,18.075,57.007,18.075,57.007l-3.674-2.822l-4.878,29.637l-4.817,10.159l-17.199,34.162
	c0,0-1.225-22.856,2.784-31.337c4.01-8.478,13.716-41.274,13.716-41.274s-7.556,9.933-10.708,10.527
	C372.867,467.468,338.158,425.695,338.158,425.695"/>
<path opacity="0.5" fill="#AE9485" enable-background="new    " d="M377.721,503.97l0.599,0.012c0,0,11.498-15.546,3.127-42.121
	c-7.18-22.789-22.456-36.751-28.677-41.69c-1.455-1.155-2.409-1.813-2.652-1.978l-4.359,4.829c0,0,29.422,25.96,31.354,55.529
	c1.436,21.994-1.932,3.411-6.926-2.759c3.366,17.009,5.397,37.41-1.433,51.688c0,0-1.454-5.561-2.256-9.78
	c-4.279,23.13-7.075,29.732-15.59,40.081c-0.149,2.63,0.064,5.399,0.423,7.479c9.83-10.348,15.204-23.452,16.523-31.414
	C375.226,524.442,377.488,513.379,377.721,503.97z"/>
<path opacity="0.3" fill="#C49A6C" enable-background="new    " d="M306.506,569.965c-4.615,3.951-21.25,6.788-30.204,5.716
	l2.548,7.86h25.701L306.506,569.965z"/>
<path opacity="0.5" fill="#AE9485" enable-background="new    " d="M306.506,577.867c0,0-26.629,4.952-28.511,3.51
	c-1.88-1.439,1.318,6.315,1.318,6.315l13.007,1.809l12.231-2.603"/>
<path opacity="0.3" fill="#C49A6C" enable-background="new    " d="M199.345,500.912c0,0-0.66,19.783,5.604,33.173
	c0.303,0.648,0.827,1.815,0.827,1.815l-0.488,6.036l-7.353-16.84l-1.458-16.479L199.345,500.912z"/>
<path opacity="0.3" fill="#C49A6C" enable-background="new    " d="M208.219,528.006c0,0,1.088,25.088,23.143,32.175l-2.003,9.784
	c0,0-23.296-19.922-23.13-26.893c-1.717-4.092-1.343-5.092-1.104-8.112C205.5,530.222,208.219,528.006,208.219,528.006z"/>
<path opacity="0.5" fill="#AE9485" enable-background="new    " d="M206.133,537.673c0,0,8.369,27.602,25.066,28.165l-0.827,9.845
	c0,0-13.848-8.525-16.105-12.667c-2.258-4.14-9.596-12.893-8.938-19.384C205.987,537.141,206.133,537.673,206.133,537.673z"/>
<path opacity="0.5" fill="#AE9485" enable-background="new    " d="M196.476,508.618c0,0-0.046,7.534,0,8.381
	c0.047,0.846,0,7.903,0,7.903s5.644,16.266,7.079,17.772c1.436,1.508,1.329-3.221,1.329-3.221S198.342,530.142,196.476,508.618z"/>
<path fill="#F3E7DC" stroke="#3E2723" stroke-width="2.3821" stroke-miterlimit="10" d="M378.869,454.903
	c0,0,26.317-12.651,18.571-42.483c-11.326,12.548-16.094,12.689-16.094,12.689s-0.406-4.511-3.547-11.764
	c-4.106,7.815-6.227,13.577-13.714,17.919"/>
<path fill="none" stroke="#2F2018" stroke-width="2.4272" stroke-miterlimit="10" d="M350.115,418.381
	c0,0,22.254,14.703,31.393,43.71c8.374,26.578-3.123,42.121-3.123,42.121"/>
<path fill="none" stroke="#2F2018" stroke-width="2.4272" stroke-miterlimit="10" d="M205.711,545.541
	c-16.035-19.604-7.813-42.738-7.127-47.95c-1.378,3.13-3.576,7.814-12.186,14.57c-4.239-46.36,22.425-83.786,34.767-88.58"/>
<path fill="none" stroke="#2F2018" stroke-width="2.4272" stroke-miterlimit="10" d="M208.498,525.1c0,0-9.484,20.889,4.126,37.396
	c7.153,8.676,16.89,13.188,16.89,13.188"/>
<path fill="none" stroke="#2F2018" stroke-width="2.4272" stroke-miterlimit="10" d="M375.149,483.152
	c0,0,9.413,29.704-7.236,50.934"/>
<path fill="none" stroke="#2F2018" stroke-width="2.4272" stroke-miterlimit="10" d="M350.906,566.292
	c18.416-17.573,18.283-41.018,17.202-41.192"/>
<path fill="none" stroke="#2F2018" stroke-width="2.4272" stroke-miterlimit="10" d="M350.115,547.526
	c-1.191,26.625,9.935,58.414,5.563,63.184c-4.37,4.769-3.575,6.357-21.854,10.729c-18.28,4.37-26.624-6.357-26.624-6.357
	c-5.962-6.358,0-50.864,0-50.864"/>
<path fill="none" stroke="#2F2018" stroke-width="2.4272" stroke-miterlimit="10" d="M276.999,574.57c0,0,5.792,34.151-0.168,40.511
	c0,0-7.779,7.404-26.625,6.356c-18.765-1.041-21.281-6.495-22.878-9.14c-5.242-8.675,5.563-40.134,4.371-66.758"/>
<path fill="none" stroke="#2F2018" stroke-width="2.4272" stroke-miterlimit="10" d="M226.342,597.535
	c-18.766-1.043-22.794-6.496-24.392-9.139c-3.501-5.797,1.443-23.046,3.903-40.941"/>
<path fill="none" stroke="#2F2018" stroke-width="2.4272" stroke-miterlimit="10" d="M356.701,600.278
	c12.84-7.114,14.184-10.172,15.438-12.583c3.126-6.006-3.866-24.294-7.459-41.999"/>
<path fill="none" stroke="#2F2018" stroke-width="2.4272" stroke-miterlimit="10" d="M278.85,587.695c0,0,11.313,3.948,26.089,0.169
	"/>
<path fill="none" stroke="#2F2018" stroke-width="2.4272" stroke-miterlimit="10" d="M252.703,494.279
	c-0.872,14.173,7.208,25.432,7.208,25.432s1.192-7.55,4.769-15.499c3.917,23.447,14.843,25.435,14.843,25.435
	c0.919-4.37,5.158-12.519,5.158-16.689"/>
<path opacity="0.5" fill="#AE9485" enable-background="new    " d="M221.913,454.098c-5.64,8.937-7.426,13.134-8.35,24.243
	c-0.325,3.896,2.93,11.161,4.373,11.833c1.213,0.563,2.763,1.552,2.763,1.552s0.264-18.71,2.896-27.087
	c1.677-5.344,2.732-8.305,4.46-9.937c0.395-0.373,2.305-1.77,1.476-3.185C229.033,450.829,224.973,449.989,221.913,454.098
	L221.913,454.098z"/>
</svg>
