<?xml version="1.0" encoding="utf-8"?>
<!-- Generator: Adobe Illustrator 16.0.0, SVG Export Plug-In . SVG Version: 6.00 Build 0)  -->
<!DOCTYPE svg PUBLIC "-//W3C//DTD SVG 1.1//EN" "http://www.w3.org/Graphics/SVG/1.1/DTD/svg11.dtd">
<svg version="1.1" id="Layer_1" xmlns="http://www.w3.org/2000/svg" xmlns:xlink="http://www.w3.org/1999/xlink" x="0px" y="0px"
	 width="302px" height="244.652px" viewBox="131.5 238.5 302 244.652" enable-background="new 131.5 238.5 302 244.652"
	 xml:space="preserve">
<path fill="#6C5D46" stroke="#2F2018" stroke-width="2.4272" stroke-miterlimit="10" d="M204.439,591.723
	c0,0-2.139,7.61,1.619,11.679c1.194,1.291,9.632,7.596,20.858,7.547l2.598-10.669"/>
<path fill="#6C5D46" stroke="#2F2018" stroke-width="2.4272" stroke-miterlimit="10" d="M369.868,591.174
	c0,0,2.618,7.459-0.874,11.755c-0.925,1.141-4.938,5.788-13.316,7.781l-5.563-9.769"/>
<path fill="#6C5D46" stroke="#2F2018" stroke-width="2.4272" stroke-miterlimit="10" d="M311.67,618.805
	c0,0-2.285,7.304,1.888,10.979c2.119,1.866,8.017,5.021,18.181,5.065c11.226,0.051,19.749-5.887,20.86-7.252
	c2.188-2.682-0.813-12.654-0.813-12.654"/>
<path fill="#6C5D46" stroke="#2F2018" stroke-width="2.4272" stroke-miterlimit="10" d="M272.359,618.805
	c0,0,2.285,7.304-1.887,10.979c-2.119,1.866-8.016,5.021-18.18,5.065c-11.226,0.051-18.556-4.595-19.75-5.887
	c-3.757-4.066-0.905-11.917-0.905-11.917"/>
<path fill="#FFFFFF" d="M229.517,575.682c0,0-9.737-4.511-16.889-13.188c-4.589-5.57-6.554-11.633-7.135-17.229
	c-15.731-19.541-7.586-42.486-6.909-47.674c-1.377,3.127-3.573,7.813-12.187,14.568c-4.234-46.36,22.426-83.784,34.771-88.582
	l128.948-5.199c0,0,1.021,0.676,2.72,2.022c6.22,4.938,21.497,18.898,28.676,41.689c8.371,26.575-3.127,42.119-3.127,42.119
	l-0.598-0.01c-0.231,9.409-2.496,20.474-9.868,29.877c-1.404,8.473-5.724,21.444-17.007,32.215h-0.006
	c2.309,21.032,8.14,40.742,4.775,44.418c-4.37,4.766-3.579,6.356-21.857,10.725c-18.275,4.375-26.625-6.354-26.625-6.354
	c-2.93-3.121-2.979-15.467-2.269-27.213c-14.771,3.774-26.079-0.176-26.079-0.176l-0.119,0.012
	c1.045,10.353,1.593,23.646-1.901,27.377c0,0-7.779,7.405-26.621,6.354c-18.769-1.039-21.286-6.497-22.878-9.139
	C224.03,606.834,227.095,592.328,229.517,575.682z"/>
<g id="XMLID_1_">
	<g>
		
			<radialGradient id="SVGID_1_" cx="287.3711" cy="298.4814" r="151.2953" gradientTransform="matrix(1 0 0 -1 0 793)" gradientUnits="userSpaceOnUse">
			<stop  offset="0" style="stop-color:#FFF5EC"/>
			<stop  offset="0.1931" style="stop-color:#FDF3E8;stop-opacity:0.8649"/>
			<stop  offset="0.3555" style="stop-color:#F7EBDD;stop-opacity:0.7512"/>
			<stop  offset="0.5068" style="stop-color:#EFDFCD;stop-opacity:0.6453"/>
			<stop  offset="0.6513" style="stop-color:#E6D0B6;stop-opacity:0.5441"/>
			<stop  offset="0.7912" style="stop-color:#DABD9B;stop-opacity:0.4462"/>
			<stop  offset="0.9255" style="stop-color:#CCA77D;stop-opacity:0.3521"/>
			<stop  offset="1" style="stop-color:#C49A6C;stop-opacity:0.3"/>
		</radialGradient>
		<path fill="url(#SVGID_1_)" d="M307.2,615.081c-2.93-3.122-2.981-15.467-2.27-27.214c-14.772,3.775-26.079-0.175-26.079-0.175
			l-0.119,0.012c1.044,10.353,1.592,23.646-1.902,27.377c0,0-7.779,7.405-26.621,6.354c-18.769-1.037-21.286-6.496-22.878-9.139
			c-3.302-5.464-0.237-19.971,2.185-36.617c0,0-9.737-4.51-16.889-13.186c-4.589-5.571-6.554-11.634-7.135-17.229
			c-15.732-19.542-7.586-42.486-6.909-47.675c-1.377,3.127-3.573,7.813-12.187,14.569c-4.233-46.36,22.426-83.784,34.771-88.583
			l128.947-5.198c0,0,22.258,14.704,31.396,43.713c8.371,26.575-3.128,42.12-3.128,42.12l-0.598-0.011
			c-0.231,9.409-2.495,20.473-9.867,29.877c-1.405,8.473-5.724,21.444-17.008,32.215h-0.005c2.309,21.032,8.14,40.743,4.774,44.418
			c-4.369,4.764-3.579,6.355-21.855,10.726C315.549,625.813,307.2,615.081,307.2,615.081z"/>
	</g>
	<g>
		<path fill="none" stroke="#000000" stroke-width="0.2822" stroke-linecap="round" stroke-linejoin="round" d="M208.502,525.099
			c0,0-4.166,9.173-3.008,20.168c0.581,5.596,2.545,11.657,7.135,17.229c7.152,8.676,16.889,13.186,16.889,13.186"/>
		<path fill="none" stroke="#000000" stroke-width="0.2822" stroke-linecap="round" stroke-linejoin="round" d="M375.15,483.152
			c0,0,2.925,9.218,2.637,21.05c-0.231,9.409-2.495,20.473-9.867,29.877l-0.006,0.006"/>
		<path fill="none" stroke="#000000" stroke-width="0.2822" stroke-linecap="round" stroke-linejoin="round" d="M350.912,566.294
			c11.284-10.771,15.603-23.742,17.008-32.215c0.887-5.356,0.609-8.913,0.192-8.98"/>
		<path fill="none" stroke="#000000" stroke-width="0.2822" stroke-linecap="round" stroke-linejoin="round" d="M307.2,564.217
			c0,0-1.542,11.504-2.27,23.65c-0.711,11.747-0.661,24.092,2.27,27.214c0,0,8.349,10.729,26.626,6.354
			c18.277-4.368,17.487-5.961,21.855-10.725c3.364-3.675-2.467-23.386-4.774-44.418c-0.689-6.271-1.063-12.656-0.791-18.769"/>
		<path fill="none" stroke="#000000" stroke-width="0.2822" stroke-linecap="round" stroke-linejoin="round" d="M277,574.568
			c0,0,0.988,5.837,1.733,13.136c1.044,10.353,1.592,23.646-1.902,27.377c0,0-7.779,7.405-26.621,6.354
			c-18.769-1.037-21.286-6.496-22.878-9.139c-3.302-5.464-0.237-19.971,2.185-36.617c1.422-9.775,2.625-20.287,2.185-30.137"/>
		<path fill="none" stroke="#000000" stroke-width="0.2822" stroke-linecap="round" stroke-linejoin="round" d="M278.852,587.692
			c0,0,11.307,3.95,26.079,0.175c0.006-0.005,0.006-0.005,0.011-0.005"/>
		<path fill="none" stroke="#000000" stroke-width="0.2822" stroke-linecap="round" stroke-linejoin="round" d="M205.714,545.544
			c-0.074-0.091-0.153-0.187-0.22-0.277c-15.732-19.542-7.586-42.486-6.909-47.675c-1.377,3.127-3.573,7.813-12.187,14.569
			c-4.233-46.36,22.426-83.784,34.771-88.583l128.947-5.198c0,0,22.258,14.704,31.396,43.713c8.371,26.575-3.128,42.12-3.128,42.12"
			/>
	</g>
</g>
<path fill="#FFFFFF" d="M401.773,295.99c0,0-11.655,10.199-21.457,12.715c6.488-4.769,9.535-11.059,9.535-11.059
	s-23.18,10.529-44,9.167c-0.682-0.044-1.306-0.034-1.882,0.021c-10.67-13.482-25.655-24.563-44.237-28.619l0.003-0.001
	c-1.558-2.859-19.979-11.719-32.679,0.033c-20.725,4.335-35.039,16.837-45.678,34.947l0.01-0.026c0,0-10.753,5.563-25.456,0
	c-14.703-5.563-24.439-12.807-27.816-14c-2.998-1.058-3.974,3.179-3.974,5.166s-1.325,26.625,12.186,35.366
	c11.806,7.639,26.26,5.563,29.381,5.166c-4.015,1.887-14.544,3.246-16.797,3.246c0,0,9.721,8.189,18.114,3.286
	c-1.162,6.781-1.615,13.427-1.531,19.889c-10.49,14.268-8.768,28.417-8.768,28.417s5.542-6.271,10.348-10.152
	c0.269,1.72,0.566,3.42,0.888,5.102c-1.619,7.841,1.082,16.575,1.082,16.575s0.562-1.802,1.816-4.037
	c0.402,1.5,0.818,2.979,1.243,4.435c5.678,19.479,36.16,19.669,42.359,20.755c5.284,0.925,20.366,5.286,28.901,5.942
	c7.939,0.608,11.647-2.691,21.184-5.474c9.537-2.781,36.56-4.401,45.565-14.469c2.498-2.793,4.959-7.615,7.07-13.759
	c3.761,1.449,8.026,0.64,12.998,4.222c-1.166-9.618-5.701-15.555-9.054-19.512c0.128-0.683,0.25-1.371,0.368-2.067
	c5.014,2.059,7.889,6.081,7.889,6.081s1.784-15.402-6.118-22.689c0.287-6.431,0.109-13.018-0.664-19.461
	c0.28,0.045,0.547,0.06,0.796,0.029c17.577-7.153,20.094-12.716,20.094-12.716s-8.078,2.914-14.702,1.589
	C393.563,333.343,401.773,295.99,401.773,295.99z"/>
<radialGradient id="SVGID_2_" cx="282.9409" cy="437.6426" r="102.5107" gradientTransform="matrix(1 0 0 -1 0 793)" gradientUnits="userSpaceOnUse">
	<stop  offset="0" style="stop-color:#FFF5EC"/>
	<stop  offset="0.1931" style="stop-color:#FDF3E8;stop-opacity:0.8745"/>
	<stop  offset="0.3555" style="stop-color:#F7EBDD;stop-opacity:0.7689"/>
	<stop  offset="0.5068" style="stop-color:#EFDFCD;stop-opacity:0.6706"/>
	<stop  offset="0.6513" style="stop-color:#E6D0B6;stop-opacity:0.5766"/>
	<stop  offset="0.7912" style="stop-color:#DABD9B;stop-opacity:0.4857"/>
	<stop  offset="0.9255" style="stop-color:#CCA77D;stop-opacity:0.3984"/>
	<stop  offset="1" style="stop-color:#C49A6C;stop-opacity:0.35"/>
</radialGradient>
<path fill="url(#SVGID_2_)" stroke="#EEEEEE" stroke-width="0.5645" stroke-miterlimit="10" d="M401.774,295.99
	c0,0-11.656,10.199-21.458,12.715c6.489-4.769,9.535-11.059,9.535-11.059s-23.18,10.529-44,9.167
	c-0.682-0.044-1.306-0.034-1.882,0.021c-10.67-13.482-25.655-24.563-44.237-28.619l0.003-0.001
	c-1.558-2.859-19.979-11.719-32.679,0.033c-20.725,4.335-35.039,16.837-45.678,34.947l0.01-0.026c0,0-10.753,5.563-25.456,0
	c-14.703-5.563-24.439-12.807-27.816-14c-2.998-1.058-3.974,3.179-3.974,5.166s-1.325,26.625,12.186,35.366
	c11.806,7.639,26.26,5.563,29.381,5.166c-4.015,1.887-14.544,3.246-16.797,3.246c0,0,9.721,8.189,18.114,3.286
	c-1.162,6.781-1.615,13.427-1.531,19.889c-10.49,14.268-8.768,28.417-8.768,28.417s5.542-6.271,10.348-10.152
	c0.269,1.72,0.566,3.42,0.888,5.102c-1.619,7.841,1.082,16.575,1.082,16.575s0.562-1.802,1.816-4.037
	c0.402,1.5,0.818,2.979,1.243,4.435c5.678,19.479,36.16,19.669,42.359,20.755c5.284,0.924,20.366,5.286,28.901,5.941
	c7.939,0.608,11.647-2.691,21.184-5.473c9.537-2.782,36.56-4.402,45.565-14.47c2.498-2.793,4.959-7.614,7.07-13.757
	c3.762,1.447,8.027,0.639,12.998,4.221c-1.165-9.618-5.701-15.555-9.054-19.512c0.128-0.683,0.25-1.371,0.369-2.067
	c5.013,2.059,7.888,6.081,7.888,6.081s1.784-15.402-6.117-22.689c0.286-6.431,0.108-13.018-0.665-19.461
	c0.28,0.045,0.548,0.06,0.796,0.029c17.577-7.153,20.094-12.716,20.094-12.716s-8.078,2.914-14.702,1.589
	C393.563,333.343,401.774,295.99,401.774,295.99z"/>
<path fill="none" stroke="#000000" stroke-width="2.3842" stroke-miterlimit="10" d="M207.962,394.654
	c-0.322-1.681-0.62-3.382-0.889-5.102"/>
<path fill="#F3E7DC" d="M202.065,588.396c1.598,2.643,5.626,8.096,24.392,9.139l1.09-8.939l2.084-13.729l-8.468-4.345
	l-10.099-10.074l-5.096-12.991C203.509,565.352,198.564,582.601,202.065,588.396z"/>
<path fill="none" stroke="#000000" stroke-width="2.3842" stroke-miterlimit="10" d="M361.5,387.265
	c-0.118,0.695-0.241,1.384-0.368,2.067"/>
<path fill="#F3E7DC" d="M364.527,545.696l-14.412,6.958l6.433,47.624c12.839-7.114,14.184-10.172,15.438-12.583
	C375.113,581.689,368.119,563.402,364.527,545.696z"/>
<path fill="#DDBA9C" d="M340.313,424.587"/>
<path opacity="0.3" fill="#C49A6C" enable-background="new    " d="M338.158,425.695l8.448-2.938c0,0,6.771,1.98,16.726,15.991
	c17.003,20.668,18.075,57.007,18.075,57.007l-3.674-2.822l-4.878,29.637l-4.817,10.159l-17.199,34.162
	c0,0-1.225-22.856,2.784-31.337c4.01-8.478,13.716-41.274,13.716-41.274s-7.556,9.933-10.708,10.527
	C372.867,467.468,338.158,425.695,338.158,425.695"/>
<path opacity="0.5" fill="#AE9485" enable-background="new    " d="M377.721,503.97l0.599,0.012c0,0,11.498-15.546,3.127-42.121
	c-7.18-22.789-22.456-36.751-28.677-41.69c-1.455-1.155-2.409-1.813-2.652-1.978l-4.359,4.829c0,0,29.422,25.96,31.354,55.529
	c1.436,21.994-1.932,3.411-6.926-2.759c3.366,17.009,5.397,37.41-1.433,51.688c0,0-1.454-5.561-2.256-9.78
	c-4.279,23.13-7.075,29.732-15.59,40.081c-0.149,2.63,0.064,5.399,0.423,7.479c9.83-10.348,15.204-23.452,16.523-31.414
	C375.226,524.442,377.488,513.379,377.721,503.97z"/>
<path fill="none" stroke="#000000" stroke-width="2.3842" stroke-miterlimit="10" d="M343.971,306.831
	c0.575-0.055,1.201-0.062,1.882-0.018c20.82,1.362,44-9.167,44-9.167s-3.046,6.29-9.535,11.059
	c9.802-2.517,21.458-12.715,21.458-12.715s-8.213,37.353-32.982,44.108c6.624,1.324,14.702-1.589,14.702-1.589
	s-2.517,5.563-20.094,12.716c-0.249,0.03-0.515,0.021-0.795-0.025"/>
<path fill="none" stroke="#000000" stroke-width="2.3842" stroke-miterlimit="10" d="M353.692,402.287
	c4.568,4.769,9.914,1.816,16.491,6.557c-1.497-12.358-8.564-18.644-11.524-22.452c6.754,1.391,10.729,6.954,10.729,6.954
	s1.987-17.087-7.45-23.783"/>
<path fill="none" stroke="#000000" stroke-width="2.3842" stroke-miterlimit="10" d="M212.106,363.94
	c-17.761,16.293-15.376,35.764-15.376,35.764s10.884-12.318,15.376-13.113c-8.224,7.947-3.058,24.637-3.058,24.637
	s2.927-9.382,10.332-11.923c-2.086,8.146,1.59,13.114,1.59,13.114s2.583-10.928,6.358-11.524"/>
<path opacity="0.3" fill="#FFFFFF" enable-background="new    " d="M355.188,357.302c0,14.304-4.04,35.401-11.218,46.567
	c-12.594,19.595-34.578,24.78-59.434,24.78c-23.036,0-47.889-6.8-60.786-24.027c-8.95-11.954-9.865-31.179-9.865-47.32
	c0-39.404,31.632-71.347,70.651-71.347C323.558,285.955,355.188,317.897,355.188,357.302z"/>
<circle cx="324.717" cy="383.015" r="7.504"/>
<circle cx="251.187" cy="381.834" r="7.504"/>
<path d="M283.367,408.832c2.481,0.191,5.102-0.436,6.436-0.988c1.837-0.761,5.818-5.361,8.673-3.559
	c2.616,1.653-0.567,3.181-1.758,3.877c-1.193,0.695-3.434,0.623-4.831,0.928c-1.302,0.283-8.205,2.583-8.205,2.583
	s-1.658-0.729-3.545-1.427c-1.888-0.695-3.117-1.713-6.098-1.402c-2.98,0.312-1.924,0.54-3.957,0.341
	c-2.033-0.197-3.257-1.563-1.871-2.91c1.601-1.559,5.293-0.158,6.618,0.37C276.152,407.175,280.885,408.64,283.367,408.832z"/>
<path fill="none" stroke="#000000" stroke-width="2.3842" stroke-miterlimit="10" d="M283.681,410.246c0,0-1.239,8.171,0.759,8.171
	c2,0,11.571,3.045,17.017-1.019c2.431-1.813,0.795-3.202,1.986-4.979"/>
<path fill="none" stroke="#000000" stroke-width="2.3842" stroke-miterlimit="10" d="M266.289,413.936c0,0,1.391,5.546,3.974,5.546
	s11.505,0.396,13.104-1.59"/>
<path fill="none" stroke="#000000" stroke-width="2.3842" stroke-miterlimit="10" d="M357.188,404.622
	c-2.11,6.144-4.572,10.965-7.071,13.759c-9.007,10.066-36.028,11.687-45.565,14.469c-9.537,2.781-13.245,6.081-21.184,5.473
	c-8.534-0.655-23.617-5.018-28.901-5.941c-6.199-1.086-36.68-1.274-42.359-20.755c-0.425-1.457-0.841-2.938-1.245-4.438"/>
<path fill="none" stroke="#000000" stroke-width="2.3842" stroke-miterlimit="10" d="M297.649,277.791
	c34.93,6.536,57.595,37.795,63.432,64.328c2.025,9.207,2.613,19.042,2.191,28.538"/>
<path fill="none" stroke="#000000" stroke-width="2.3842" stroke-miterlimit="10" d="M205.49,371.288
	c-0.179-13.947,2.121-28.759,8.723-43.906c11.242-25.789,27.143-43.85,53.035-49.189"/>
<path fill="#965545" d="M312.465,294.797c-0.792,1.7-2.286,5.265,7.152,9.835c9.438,4.57,16.889,0.894,18.577-1.391
	c1.048-1.417,5.156-11.827,6.697-23.082c0.944-6.883,1.771-11.529-0.489-17.184c0,0-2.366-4.472-5.335-1.2
	C336.273,264.856,313.649,292.248,312.465,294.797z"/>
<path fill="#965545" d="M241.731,294.897c1.406,0.318,1.589,8.344-4.371,13.212c-5.96,4.868-9.934,6.06-13.113,4.272
	c-3.179-1.788-9.488-4.357-11.624-19.306c-2.251-15.762,3.407-23.771,5.994-24.24c1.208-0.22,2.145,1.832,2.639,2.957
	C222.388,274.359,233.685,293.075,241.731,294.897z"/>
<path fill="none" stroke="#000000" stroke-width="2.3842" stroke-miterlimit="10" d="M299.737,278.214
	c-2.03-3.725-32.672-17.636-42.011,17.1"/>
<path fill="none" stroke="#000000" stroke-width="1.5895" stroke-miterlimit="10" d="M264.523,291.883
	c-8.453,1.722-16.334,11.458-10.771,29.14c0,0,8.146-10.198,15.293-12.318c-2.776,3.179-7.942,9.338-2.776,21.061
	c0,0,7.417-13.709,9.537-14.703c-1.09,1.47-2.086,5.464,0.299,8.643c0,0,3.178-6.159,5.96-8.444"/>
<path fill="none" stroke="#000000" stroke-width="1.5895" stroke-miterlimit="10" d="M209.94,339.082
	c-7.849,3.356-18.377-2.362-25.629-4.349c3.625-1.143,3.427-0.845,5.761-1.292c5.962-1.141,9.278-2.102,11.326-2.881
	c-1.59,0.102-7.55,2.519-12.252,1.823c-4.703-0.695-8.312-5.3-11.789-7.288c2.285-0.099,7.976-0.496,9.851-1.399
	c-1.808,0.294-4.685,0.443-6.871-0.289c-5.61-1.881-10.563-12.554-10.563-12.554s2.933,0.833,3.676,0.853
	c-1.74-0.941-8.255-7.985-8.067-10.901"/>
<path fill="none" stroke="#000000" stroke-width="2.3842" stroke-miterlimit="10" d="M221.39,313.168c0,0-10.752,5.563-25.456,0
	c-14.703-5.563-24.438-12.807-27.816-14c-2.998-1.058-3.974,3.179-3.974,5.166s-1.325,26.625,12.186,35.366
	c11.805,7.639,26.26,5.563,29.38,5.166c-4.015,1.887-14.545,3.246-16.797,3.246c0,0,9.796,8.255,18.21,3.234"/>
<path opacity="0.3" fill="#C49A6C" enable-background="new    " d="M306.506,569.965c-4.615,3.951-21.25,6.788-30.204,5.716
	l2.548,7.86h25.701L306.506,569.965z"/>
<path opacity="0.5" fill="#AE9485" enable-background="new    " d="M306.506,577.867c0,0-26.629,4.952-28.511,3.51
	c-1.88-1.439,1.318,6.315,1.318,6.315l13.007,1.809l12.231-2.603"/>
<path opacity="0.3" fill="#C49A6C" enable-background="new    " d="M199.345,500.912c0,0-0.66,19.783,5.604,33.173
	c0.303,0.648,0.827,1.815,0.827,1.815l-0.488,6.036l-7.353-16.84l-1.458-16.479L199.345,500.912z"/>
<path opacity="0.3" fill="#C49A6C" enable-background="new    " d="M208.219,528.006c0,0,1.088,25.088,23.143,32.175l-2.003,9.784
	c0,0-23.296-19.922-23.13-26.893c-1.717-4.092-1.343-5.092-1.104-8.112C205.5,530.222,208.219,528.006,208.219,528.006z"/>
<path opacity="0.5" fill="#AE9485" enable-background="new    " d="M206.133,537.673c0,0,8.369,27.602,25.066,28.165l-0.827,9.845
	c0,0-13.848-8.525-16.105-12.667c-2.258-4.14-9.596-12.893-8.938-19.384C205.987,537.141,206.133,537.673,206.133,537.673z"/>
<path opacity="0.5" fill="#AE9485" enable-background="new    " d="M196.476,508.618c0,0-0.046,7.534,0,8.381
	c0.047,0.846,0,7.903,0,7.903s5.644,16.266,7.079,17.772c1.436,1.508,1.329-3.221,1.329-3.221S198.342,530.142,196.476,508.618z"/>
<path fill="#F3E7DC" stroke="#3E2723" stroke-width="2.3821" stroke-miterlimit="10" d="M378.869,454.903
	c0,0,26.317-12.651,18.571-42.483c-11.326,12.548-16.094,12.689-16.094,12.689s-0.406-4.511-3.547-11.764
	c-4.106,7.815-6.227,13.577-13.714,17.919"/>
<path fill="none" stroke="#2F2018" stroke-width="2.4272" stroke-miterlimit="10" d="M350.115,418.381
	c0,0,22.254,14.703,31.393,43.71c8.374,26.578-3.123,42.121-3.123,42.121"/>
<path fill="none" stroke="#2F2018" stroke-width="2.4272" stroke-miterlimit="10" d="M205.711,545.541
	c-16.035-19.604-7.813-42.738-7.127-47.95c-1.378,3.13-3.576,7.814-12.186,14.57c-4.239-46.36,22.425-83.786,34.767-88.58"/>
<path fill="none" stroke="#2F2018" stroke-width="2.4272" stroke-miterlimit="10" d="M208.498,525.1c0,0-9.484,20.889,4.126,37.396
	c7.153,8.676,16.89,13.188,16.89,13.188"/>
<path fill="none" stroke="#2F2018" stroke-width="2.4272" stroke-miterlimit="10" d="M375.149,483.152
	c0,0,9.413,29.704-7.236,50.934"/>
<path fill="none" stroke="#2F2018" stroke-width="2.4272" stroke-miterlimit="10" d="M350.906,566.292
	c18.416-17.573,18.283-41.018,17.202-41.192"/>
<path fill="none" stroke="#2F2018" stroke-width="2.4272" stroke-miterlimit="10" d="M350.115,547.526
	c-1.191,26.625,9.935,58.414,5.563,63.184c-4.37,4.769-3.575,6.357-21.854,10.729c-18.28,4.37-26.624-6.357-26.624-6.357
	c-5.962-6.358,0-50.864,0-50.864"/>
<path fill="none" stroke="#2F2018" stroke-width="2.4272" stroke-miterlimit="10" d="M276.999,574.57c0,0,5.792,34.151-0.168,40.511
	c0,0-7.779,7.404-26.625,6.356c-18.765-1.041-21.281-6.495-22.878-9.14c-5.242-8.675,5.563-40.134,4.371-66.758"/>
<path fill="none" stroke="#2F2018" stroke-width="2.4272" stroke-miterlimit="10" d="M226.342,597.535
	c-18.766-1.043-22.794-6.496-24.392-9.139c-3.501-5.797,1.443-23.046,3.903-40.941"/>
<path fill="none" stroke="#2F2018" stroke-width="2.4272" stroke-miterlimit="10" d="M356.701,600.278
	c12.84-7.114,14.184-10.172,15.438-12.583c3.126-6.006-3.866-24.294-7.459-41.999"/>
<path fill="none" stroke="#2F2018" stroke-width="2.4272" stroke-miterlimit="10" d="M278.85,587.695c0,0,11.313,3.948,26.089,0.169
	"/>
<path fill="none" stroke="#2F2018" stroke-width="2.4272" stroke-miterlimit="10" d="M252.703,494.279
	c-0.872,14.173,7.208,25.432,7.208,25.432s1.192-7.55,4.769-15.499c3.917,23.447,14.843,25.435,14.843,25.435
	c0.919-4.37,5.158-12.519,5.158-16.689"/>
<g>
	<g>
		<path fill="#434343" d="M325.368,381.055c0.474,1.133,0.783,2.599-0.481,3.299c-1.593,0.881-0.17,3.319,1.424,2.438
			c2.361-1.307,2.757-4.15,1.778-6.486c-0.296-0.709-0.922-1.209-1.734-0.986C325.683,379.503,325.07,380.344,325.368,381.055
			L325.368,381.055z"/>
	</g>
</g>
<g>
	<g>
		<path fill="#434343" d="M253.051,379.763c0.474,1.132,0.784,2.599-0.48,3.299c-1.592,0.881-0.169,3.318,1.425,2.437
			c2.36-1.306,2.755-4.15,1.777-6.485c-0.297-0.709-0.922-1.209-1.736-0.986C253.366,378.211,252.753,379.052,253.051,379.763
			L253.051,379.763z"/>
	</g>
</g>
<circle fill="#616262" cx="253.282" cy="379.13" r="1.272"/>
<circle fill="#616262" cx="325.599" cy="380.402" r="1.272"/>
<path opacity="0.5" fill="#AE9485" enable-background="new    " d="M221.913,454.098c-5.64,8.937-7.426,13.134-8.35,24.243
	c-0.325,3.896,2.93,11.161,4.373,11.833c1.213,0.563,2.763,1.552,2.763,1.552s0.264-18.71,2.896-27.087
	c1.677-5.344,2.732-8.305,4.46-9.937c0.395-0.373,2.305-1.77,1.476-3.185C229.033,450.829,224.973,449.989,221.913,454.098
	L221.913,454.098z"/>
<path opacity="0.4" fill="#FECB8A" enable-background="new    " d="M221.39,270.184l-1.829-2.148c0,0-2.056,11.368,4.059,24.163
	c4.793,10.028,15.049,14.746,15.049,14.746s7.114-11.478,2.729-12.771c-4.385-1.293-9.403-6.734-9.403-6.734l-4.199-6.249
	l-6.541-9.399"/>
<path opacity="0.4" fill="#FECB8A" enable-background="new    " d="M343.971,262.307c0,0-2.018,21.597-24.354,42.326
	c0,0-6.467-2.638-7.24-5.631c-0.771-2.992,4.836-10.622,4.836-10.622l15.889-19.543l7.145-7.994"/>
<path opacity="0.4" fill="#FEDFA8" enable-background="new    " d="M222.579,271.627c0,0,1.331,10.091,8.449,17.608
	c2.73,2.884,4.604,5.487,6.936,6.777c3.681,2.038,0.496,5.693-1.829,4.022c-3.379-2.431-5.75-6.572-7.719-10.094
	c-3.215-5.749-3.124-5.615-5.948-15.789L222.579,271.627z"/>
<path opacity="0.4" fill="#FEDFA8" enable-background="new    " d="M341.09,260.59c0,0-6.376,12.932-14.771,22.147
	c-8.309,9.119-15.273,14.75-15.273,14.75l3.724,3.14c0,0,8.958-9.975,14.095-16.812c5.361-7.141,12.729-22.974,12.729-22.974
	L341.09,260.59z"/>
<path fill="none" stroke="#000000" stroke-width="2.3821" stroke-miterlimit="10" d="M312.465,294.797
	c-0.792,1.7-2.286,5.265,7.152,9.835c9.438,4.57,16.889,0.894,18.577-1.391c1.048-1.417,5.156-11.827,6.697-23.082
	c0.944-6.883,1.771-11.529-0.489-17.184c0,0-2.366-4.472-5.335-1.2C336.273,264.856,313.649,292.248,312.465,294.797z"/>
<path fill="none" stroke="#000000" stroke-width="2.3821" stroke-miterlimit="10" d="M241.731,294.897
	c1.406,0.318,1.589,8.344-4.371,13.212c-5.96,4.868-9.934,6.06-13.113,4.272c-3.179-1.788-9.488-4.357-11.624-19.306
	c-2.251-15.762,3.407-23.771,5.994-24.24c1.208-0.22,2.145,1.832,2.639,2.957C222.388,274.359,233.685,293.075,241.731,294.897z"/>
</svg>
