<?xml version="1.0" encoding="utf-8"?>
<!-- Generator: Adobe Illustrator 16.0.0, SVG Export Plug-In . SVG Version: 6.00 Build 0)  -->
<!DOCTYPE svg PUBLIC "-//W3C//DTD SVG 1.1//EN" "http://www.w3.org/Graphics/SVG/1.1/DTD/svg11.dtd">
<svg version="1.1" id="Layer_1" xmlns="http://www.w3.org/2000/svg" xmlns:xlink="http://www.w3.org/1999/xlink" x="0px" y="0px"
	 width="358.482px" height="503.897px" viewBox="-16.894 152.603 358.482 503.897"
	 enable-background="new -16.894 152.603 358.482 503.897" xml:space="preserve">
<path fill="#6C5D46" stroke="#2F2018" stroke-width="2.8424" stroke-miterlimit="10" d="M69.982,578.625
	c0,0-2.505,8.91,1.896,13.675c1.398,1.512,11.28,8.895,24.426,8.838l3.043-12.493"/>
<path fill="#6C5D46" stroke="#2F2018" stroke-width="2.8424" stroke-miterlimit="10" d="M263.709,577.982
	c0,0,3.066,8.734-1.023,13.764c-1.083,1.337-5.785,6.778-15.596,9.113l-6.514-11.441"/>
<path fill="#6C5D46" stroke="#2F2018" stroke-width="2.8424" stroke-miterlimit="10" d="M195.556,610.338
	c0,0-2.677,8.555,2.209,12.858c2.482,2.184,9.389,5.88,21.291,5.932c13.146,0.061,23.128-6.895,24.428-8.492
	c2.562-3.14-0.952-14.818-0.952-14.818"/>
<path fill="#6C5D46" stroke="#2F2018" stroke-width="2.8424" stroke-miterlimit="10" d="M149.521,610.338
	c0,0,2.676,8.555-2.21,12.858c-2.48,2.184-9.387,5.88-21.29,5.932c-13.146,0.061-21.73-5.381-23.128-6.895
	c-4.4-4.76-1.06-13.955-1.06-13.955"/>
<path fill="#FFFFFF" d="M99.35,559.838c0,0-11.403-5.281-19.778-15.441c-5.375-6.523-7.675-13.623-8.356-20.175
	c-18.421-22.884-8.883-49.757-8.091-55.829c-1.613,3.659-4.184,9.147-14.271,17.06c-4.958-54.29,26.263-98.116,40.719-103.735
	l151.005-6.089c0,0,1.194,0.794,3.185,2.371c7.284,5.781,25.173,22.13,33.579,48.819c9.804,31.121-3.659,49.323-3.659,49.323
	l-0.7-0.011c-0.272,11.02-2.924,23.977-11.558,34.986c-1.646,9.924-6.703,25.113-19.916,37.727h-0.006
	c2.701,24.628,9.531,47.712,5.591,52.016c-5.119,5.581-4.191,7.443-25.596,12.558c-21.401,5.125-31.18-7.44-31.18-7.44
	c-3.43-3.656-3.488-18.112-2.656-31.867c-17.298,4.419-30.541-0.205-30.541-0.205l-0.139,0.013
	c1.224,12.123,1.866,27.688-2.226,32.06c0,0-9.11,8.672-31.175,7.44c-21.979-1.217-24.927-7.607-26.792-10.7
	C92.923,596.32,96.514,579.331,99.35,559.838z"/>
<g id="XMLID_1_">
	<g>
		
			<radialGradient id="SVGID_1_" cx="167.1006" cy="328.207" r="177.1752" gradientTransform="matrix(1 0 0 -1 0 793)" gradientUnits="userSpaceOnUse">
			<stop  offset="0" style="stop-color:#FFF5EC"/>
			<stop  offset="0.1931" style="stop-color:#FDF3E8;stop-opacity:0.8649"/>
			<stop  offset="0.3555" style="stop-color:#F7EBDD;stop-opacity:0.7512"/>
			<stop  offset="0.5068" style="stop-color:#EFDFCD;stop-opacity:0.6453"/>
			<stop  offset="0.6513" style="stop-color:#E6D0B6;stop-opacity:0.5441"/>
			<stop  offset="0.7912" style="stop-color:#DABD9B;stop-opacity:0.4462"/>
			<stop  offset="0.9255" style="stop-color:#CCA77D;stop-opacity:0.3521"/>
			<stop  offset="1" style="stop-color:#C49A6C;stop-opacity:0.3"/>
		</radialGradient>
		<path fill="url(#SVGID_1_)" d="M190.322,605.977c-3.433-3.656-3.493-18.112-2.659-31.867c-17.3,4.419-30.541-0.205-30.541-0.205
			l-0.139,0.013c1.223,12.123,1.865,27.691-2.227,32.06c0,0-9.11,8.674-31.175,7.443c-21.979-1.215-24.927-7.608-26.791-10.703
			c-3.868-6.399-0.278-23.388,2.558-42.879c0,0-11.402-5.281-19.778-15.441c-5.373-6.523-7.674-13.623-8.354-20.179
			c-18.423-22.883-8.883-49.753-8.091-55.83c-1.611,3.664-4.184,9.15-14.271,17.064c-4.957-54.292,26.262-98.118,40.718-103.737
			l151.004-6.087c0,0,26.065,17.219,36.766,51.19c9.806,31.121-3.662,49.325-3.662,49.325l-0.7-0.013
			c-0.272,11.02-2.921,23.974-11.555,34.986c-1.647,9.924-6.705,25.113-19.917,37.727H241.5c2.704,24.628,9.532,47.712,5.591,52.016
			c-5.115,5.579-4.191,7.443-25.593,12.561C200.098,618.546,190.322,605.977,190.322,605.977z"/>
	</g>
	<g>
		<path fill="none" stroke="#000000" stroke-width="0.3305" stroke-linecap="round" stroke-linejoin="round" d="M74.741,500.604
			c0,0-4.879,10.741-3.523,23.618c0.681,6.552,2.979,13.651,8.355,20.177c8.375,10.158,19.778,15.439,19.778,15.439"/>
		<path fill="none" stroke="#000000" stroke-width="0.3305" stroke-linecap="round" stroke-linejoin="round" d="M269.896,451.481
			c0,0,3.424,10.795,3.088,24.651c-0.272,11.018-2.924,23.977-11.555,34.987l-0.008,0.007"/>
		<path fill="none" stroke="#000000" stroke-width="0.3305" stroke-linecap="round" stroke-linejoin="round" d="M241.511,548.846
			c13.212-12.612,18.27-27.803,19.918-37.726c1.037-6.271,0.71-10.438,0.224-10.517"/>
		<path fill="none" stroke="#000000" stroke-width="0.3305" stroke-linecap="round" stroke-linejoin="round" d="M190.322,546.412
			c0,0-1.806,13.474-2.659,27.697c-0.834,13.755-0.774,28.211,2.659,31.867c0,0,9.776,12.567,31.18,7.443
			c21.404-5.115,20.478-6.981,25.593-12.559c3.94-4.306-2.89-27.387-5.591-52.016c-0.807-7.345-1.246-14.822-0.926-21.981"/>
		<path fill="none" stroke="#000000" stroke-width="0.3305" stroke-linecap="round" stroke-linejoin="round" d="M154.955,558.536
			c0,0,1.157,6.836,2.029,15.381c1.222,12.123,1.865,27.691-2.227,32.06c0,0-9.11,8.674-31.175,7.443
			c-21.979-1.215-24.927-7.608-26.792-10.703c-3.867-6.399-0.277-23.388,2.56-42.879c1.665-11.449,3.074-23.758,2.559-35.293"/>
		<path fill="none" stroke="#000000" stroke-width="0.3305" stroke-linecap="round" stroke-linejoin="round" d="M157.124,573.904
			c0,0,13.241,4.624,30.54,0.205c0.007-0.006,0.007-0.006,0.012-0.006"/>
		<path fill="none" stroke="#000000" stroke-width="0.3305" stroke-linecap="round" stroke-linejoin="round" d="M71.475,524.547
			c-0.086-0.107-0.18-0.22-0.257-0.325c-18.423-22.884-8.884-49.753-8.091-55.829c-1.613,3.659-4.183,9.147-14.271,17.06
			c-4.957-54.288,26.262-98.116,40.719-103.735l151.004-6.087c0,0,26.064,17.219,36.764,51.19
			c9.804,31.121-3.662,49.323-3.662,49.323"/>
	</g>
</g>
<path fill="#FFFFFF" d="M301.071,232.306c0,0-13.648,11.942-25.127,14.889c7.599-5.585,11.167-12.95,11.167-12.95
	s-27.144,12.329-51.526,10.734c-0.799-0.052-1.528-0.041-2.205,0.024c-12.493-15.789-30.043-28.763-51.803-33.514h0.003
	c-1.823-3.349-23.397-13.724-38.268,0.039c-24.271,5.077-41.034,19.716-53.492,40.923l0.012-0.029c0,0-12.593,6.512-29.811,0
	c-17.218-6.517-28.62-15-32.574-16.396c-3.511-1.237-4.654,3.723-4.654,6.051c0,2.326-1.552,31.179,14.271,41.415
	c13.826,8.946,30.752,6.514,34.407,6.048c-4.702,2.211-17.032,3.804-19.67,3.804c0,0,11.384,9.59,21.212,3.847
	c-1.361,7.94-1.892,15.726-1.792,23.291c-12.286,16.708-10.268,33.278-10.268,33.278s6.49-7.344,12.119-11.888
	c0.314,2.013,0.662,4.003,1.038,5.975c-1.896,9.182,1.268,19.41,1.268,19.41s0.658-2.11,2.127-4.729
	c0.471,1.757,0.958,3.489,1.456,5.194c6.649,22.812,42.345,23.032,49.604,24.305c6.188,1.082,23.85,6.19,33.845,6.958
	c9.298,0.713,13.64-3.15,24.808-6.409c11.168-3.257,42.813-5.156,53.359-16.945c2.926-3.271,5.807-8.917,8.281-16.111
	c4.402,1.696,9.398,0.747,15.221,4.942c-1.367-11.263-6.677-18.216-10.602-22.848c0.147-0.801,0.291-1.606,0.431-2.42
	c5.871,2.409,9.237,7.12,9.237,7.12s2.091-18.036-7.166-26.57c0.336-7.531,0.129-15.244-0.778-22.789
	c0.33,0.054,0.642,0.069,0.933,0.033c20.585-8.377,23.53-14.891,23.53-14.891s-9.459,3.412-17.215,1.86
	C291.456,276.048,301.071,232.306,301.071,232.306z"/>
<radialGradient id="SVGID_2_" cx="161.9131" cy="491.1719" r="120.0462" gradientTransform="matrix(1 0 0 -1 0 793)" gradientUnits="userSpaceOnUse">
	<stop  offset="0" style="stop-color:#FFF5EC"/>
	<stop  offset="0.1931" style="stop-color:#FDF3E8;stop-opacity:0.8745"/>
	<stop  offset="0.3555" style="stop-color:#F7EBDD;stop-opacity:0.7689"/>
	<stop  offset="0.5068" style="stop-color:#EFDFCD;stop-opacity:0.6706"/>
	<stop  offset="0.6513" style="stop-color:#E6D0B6;stop-opacity:0.5766"/>
	<stop  offset="0.7912" style="stop-color:#DABD9B;stop-opacity:0.4857"/>
	<stop  offset="0.9255" style="stop-color:#CCA77D;stop-opacity:0.3984"/>
	<stop  offset="1" style="stop-color:#C49A6C;stop-opacity:0.35"/>
</radialGradient>
<path fill="url(#SVGID_2_)" stroke="#EEEEEE" stroke-width="0.6611" stroke-miterlimit="10" d="M301.075,232.306
	c0,0-13.652,11.942-25.131,14.889c7.599-5.585,11.167-12.95,11.167-12.95s-27.144,12.329-51.526,10.734
	c-0.799-0.052-1.528-0.041-2.205,0.024c-12.493-15.789-30.043-28.763-51.803-33.514h0.003c-1.823-3.349-23.397-13.724-38.268,0.039
	c-24.271,5.077-41.034,19.716-53.492,40.923l0.012-0.029c0,0-12.593,6.512-29.811,0c-17.218-6.517-28.62-15-32.574-16.396
	c-3.511-1.237-4.654,3.723-4.654,6.051c0,2.326-1.552,31.179,14.271,41.415c13.826,8.946,30.752,6.514,34.407,6.048
	c-4.702,2.211-17.032,3.804-19.67,3.804c0,0,11.384,9.59,21.212,3.847c-1.361,7.94-1.892,15.726-1.792,23.291
	c-12.286,16.708-10.268,33.278-10.268,33.278s6.49-7.344,12.119-11.888c0.314,2.013,0.662,4.003,1.038,5.975
	c-1.896,9.182,1.268,19.41,1.268,19.41s0.658-2.11,2.127-4.729c0.471,1.757,0.958,3.489,1.456,5.194
	c6.649,22.809,42.345,23.032,49.604,24.305c6.188,1.082,23.85,6.19,33.845,6.958c9.298,0.713,13.64-3.152,24.808-6.409
	c11.168-3.26,42.813-5.156,53.359-16.945c2.926-3.271,5.807-8.917,8.281-16.111c4.404,1.696,9.4,0.747,15.221,4.942
	c-1.365-11.263-6.677-18.216-10.602-22.848c0.147-0.801,0.291-1.606,0.431-2.42c5.871,2.412,9.237,7.12,9.237,7.12
	s2.091-18.036-7.163-26.57c0.334-7.531,0.127-15.244-0.781-22.789c0.33,0.054,0.643,0.069,0.933,0.033
	c20.585-8.377,23.53-14.891,23.53-14.891s-9.459,3.412-17.215,1.86C291.456,276.048,301.075,232.306,301.075,232.306z"/>
<path fill="none" stroke="#000000" stroke-width="2.792" stroke-miterlimit="10" d="M74.107,347.846
	c-0.377-1.969-0.726-3.962-1.041-5.975"/>
<path fill="#F3E7DC" d="M67.203,574.729c1.872,3.095,6.587,9.479,28.564,10.7l1.276-10.468l2.439-16.077l-9.917-5.088L77.74,541.998
	l-5.968-15.212C68.893,547.743,63.103,567.943,67.203,574.729z"/>
<path fill="none" stroke="#000000" stroke-width="2.792" stroke-miterlimit="10" d="M253.911,339.194
	c-0.141,0.813-0.284,1.62-0.433,2.42"/>
<path fill="#F3E7DC" d="M257.454,524.725l-16.877,8.147l7.534,55.771c15.035-8.33,16.609-11.911,18.079-14.736
	C269.851,566.874,261.659,545.46,257.454,524.725z"/>
<path fill="#DDBA9C" d="M229.097,382.9"/>
<path opacity="0.3" fill="#C49A6C" enable-background="new    " d="M226.574,384.196l9.894-3.439c0,0,7.929,2.317,19.588,18.727
	c19.911,24.201,21.164,66.757,21.164,66.757l-4.299-3.305l-5.714,34.706l-5.643,11.896l-20.142,40.007
	c0,0-1.434-26.766,3.263-36.697c4.695-9.929,16.061-48.336,16.061-48.336s-8.848,11.632-12.538,12.329
	C267.221,433.114,226.574,384.196,226.574,384.196"/>
<path opacity="0.5" fill="#AE9485" enable-background="new    " d="M272.905,475.86l0.7,0.014c0,0,13.465-18.204,3.662-49.325
	c-8.407-26.688-26.297-43.039-33.582-48.822c-1.705-1.354-2.821-2.123-3.106-2.317l-5.105,5.657c0,0,34.456,30.399,36.719,65.027
	c1.68,25.756-2.263,3.995-8.112-3.23c3.941,19.917,6.319,43.811-1.678,60.528c0,0-1.703-6.511-2.643-11.452
	c-5.009,27.088-8.285,34.819-18.255,46.939c-0.176,3.077,0.077,6.32,0.496,8.754c11.51-12.117,17.806-27.461,19.35-36.787
	C269.983,499.834,272.633,486.88,272.905,475.86z"/>
<path fill="none" stroke="#000000" stroke-width="2.792" stroke-miterlimit="10" d="M233.381,245.001
	c0.675-0.065,1.407-0.074,2.203-0.022c24.382,1.595,51.526-10.734,51.526-10.734s-3.567,7.365-11.167,12.95
	c11.479-2.946,25.131-14.889,25.131-14.889s-9.619,43.742-38.625,51.651c7.758,1.552,17.217-1.86,17.217-1.86
	s-2.947,6.514-23.531,14.891c-0.29,0.036-0.603,0.025-0.933-0.029"/>
<path fill="none" stroke="#000000" stroke-width="2.792" stroke-miterlimit="10" d="M244.767,356.785
	c5.348,5.583,11.609,2.127,19.311,7.677c-1.753-14.473-10.028-21.831-13.495-26.292c7.908,1.629,12.562,8.143,12.562,8.143
	s2.328-20.011-8.722-27.851"/>
<path fill="none" stroke="#000000" stroke-width="2.792" stroke-miterlimit="10" d="M78.96,311.877
	c-20.798,19.08-18.007,41.882-18.007,41.882S73.7,339.336,78.96,338.404c-9.631,9.306-3.581,28.849-3.581,28.849
	s3.428-10.986,12.1-13.962c-2.443,9.54,1.863,15.359,1.863,15.359s3.024-12.797,7.444-13.497"/>
<path opacity="0.3" fill="#FFFFFF" enable-background="new    " d="M246.517,304.105c0,16.75-4.732,41.457-13.138,54.533
	c-14.747,22.947-40.492,29.02-69.599,29.02c-26.977,0-56.082-7.965-71.185-28.138c-10.481-14-11.552-36.513-11.552-55.415
	c0-46.145,37.042-83.55,82.736-83.55C209.477,220.555,246.517,257.96,246.517,304.105z"/>
<circle cx="210.834" cy="334.218" r="8.787"/>
<circle cx="124.728" cy="332.833" r="8.789"/>
<path d="M162.412,364.448c2.905,0.225,5.974-0.51,7.537-1.156c2.15-0.891,6.813-6.278,10.156-4.166
	c3.063,1.935-0.664,3.723-2.06,4.538c-1.397,0.814-4.021,0.731-5.657,1.086c-1.524,0.333-9.607,3.027-9.607,3.027
	s-1.942-0.857-4.152-1.673c-2.212-0.814-3.652-2.006-7.142-1.642c-3.49,0.364-2.253,0.634-4.634,0.4
	c-2.381-0.232-3.814-1.829-2.19-3.408c1.875-1.827,6.198-0.187,7.749,0.432C153.962,362.509,159.504,364.226,162.412,364.448z"/>
<path fill="none" stroke="#000000" stroke-width="2.792" stroke-miterlimit="10" d="M162.778,366.104c0,0-1.451,9.569,0.889,9.569
	c2.343,0,13.551,3.565,19.929-1.192c2.847-2.123,0.93-3.749,2.326-5.83"/>
<path fill="none" stroke="#000000" stroke-width="2.792" stroke-miterlimit="10" d="M142.412,370.425c0,0,1.629,6.496,4.654,6.496
	s13.472,0.464,15.346-1.865"/>
<path fill="none" stroke="#000000" stroke-width="2.792" stroke-miterlimit="10" d="M248.86,359.52
	c-2.472,7.194-5.355,12.84-8.281,16.111c-10.548,11.789-42.192,13.685-53.361,16.945c-11.167,3.257-15.51,7.122-24.806,6.409
	c-9.996-0.768-27.658-5.876-33.846-6.958c-7.259-1.273-42.953-1.494-49.604-24.305c-0.497-1.705-0.984-3.441-1.458-5.196"/>
<path fill="none" stroke="#000000" stroke-width="2.792" stroke-miterlimit="10" d="M179.136,210.992
	c40.905,7.655,67.446,44.262,74.283,75.333c2.371,10.782,3.061,22.299,2.565,33.418"/>
<path fill="none" stroke="#000000" stroke-width="2.792" stroke-miterlimit="10" d="M71.213,320.483
	c-0.21-16.333,2.483-33.678,10.214-51.417c13.166-30.201,31.786-51.35,62.107-57.601"/>
<path fill="#965545" d="M196.486,230.909c-0.928,1.991-2.678,6.164,8.376,11.517c11.051,5.351,19.777,1.046,21.753-1.628
	c1.229-1.66,6.039-13.852,7.844-27.031c1.108-8.06,2.075-13.501-0.571-20.124c0,0-2.772-5.237-6.249-1.406
	C224.367,195.845,197.873,227.921,196.486,230.909z"/>
<path fill="#965545" d="M113.653,231.026c1.646,0.371,1.86,9.771-5.118,15.471c-6.98,5.7-11.634,7.097-15.357,5.003
	s-11.11-5.102-13.612-22.609c-2.635-18.457,3.99-27.836,7.021-28.385c1.414-0.259,2.512,2.144,3.09,3.461
	C91.001,206.975,104.23,228.891,113.653,231.026z"/>
<path fill="none" stroke="#000000" stroke-width="2.792" stroke-miterlimit="10" d="M181.581,211.489
	c-2.376-4.361-38.261-20.654-49.196,20.024"/>
<path fill="none" stroke="#000000" stroke-width="1.8614" stroke-miterlimit="10" d="M140.344,227.494
	c-9.898,2.018-19.129,13.418-12.613,34.126c0,0,9.54-11.942,17.909-14.426c-3.25,3.723-9.3,10.935-3.25,24.665
	c0,0,8.685-16.057,11.168-17.219c-1.277,1.723-2.443,6.397,0.35,10.122c0,0,3.722-7.214,6.979-9.888"/>
<path fill="none" stroke="#000000" stroke-width="1.8614" stroke-miterlimit="10" d="M76.424,282.767
	c-9.192,3.932-21.521-2.765-30.013-5.093c4.246-1.338,4.013-0.99,6.746-1.514c6.982-1.333,10.866-2.458,13.264-3.372
	c-1.862,0.119-8.841,2.952-14.348,2.134c-5.507-0.813-9.733-6.206-13.805-8.534c2.676-0.117,9.339-0.58,11.536-1.64
	c-2.118,0.346-5.487,0.52-8.047-0.337c-6.568-2.203-12.369-14.7-12.369-14.7s3.435,0.974,4.305,0.999
	c-2.038-1.102-9.668-9.351-9.447-12.765"/>
<path fill="none" stroke="#000000" stroke-width="2.792" stroke-miterlimit="10" d="M89.833,252.422c0,0-12.591,6.512-29.811,0
	c-17.218-6.517-28.618-15-32.574-16.396c-3.51-1.237-4.654,3.723-4.654,6.051c0,2.326-1.551,31.179,14.271,41.415
	c13.825,8.946,30.752,6.514,34.406,6.051c-4.702,2.209-17.033,3.801-19.67,3.801c0,0,11.472,9.666,21.325,3.786"/>
<path opacity="0.3" fill="#C49A6C" enable-background="new    " d="M189.509,553.146c-5.404,4.625-24.886,7.947-35.371,6.691
	l2.983,9.205h30.097L189.509,553.146z"/>
<path opacity="0.5" fill="#AE9485" enable-background="new    " d="M189.509,562.398c0,0-31.184,5.799-33.389,4.109
	c-2.201-1.685,1.543,7.396,1.543,7.396l15.232,2.119l14.322-3.048"/>
<path opacity="0.3" fill="#C49A6C" enable-background="new    " d="M64.017,472.281c0,0-0.774,23.165,6.563,38.846
	c0.354,0.758,0.968,2.126,0.968,2.126l-0.571,7.069L62.365,500.6l-1.707-19.295L64.017,472.281z"/>
<path opacity="0.3" fill="#C49A6C" enable-background="new    " d="M74.409,504.01c0,0,1.274,29.378,27.101,37.676l-2.345,11.461
	c0,0-27.281-23.331-27.087-31.495c-2.01-4.791-1.573-5.963-1.292-9.499C71.225,506.604,74.409,504.01,74.409,504.01z"/>
<path opacity="0.5" fill="#AE9485" enable-background="new    " d="M71.966,515.329c0,0,9.8,32.322,29.354,32.983l-0.969,11.527
	c0,0-16.217-9.984-18.86-14.831c-2.644-4.851-11.237-15.1-10.466-22.702C71.795,514.706,71.966,515.329,71.966,515.329z"/>
<path opacity="0.5" fill="#AE9485" enable-background="new    " d="M60.657,481.305c0,0-0.053,8.821,0,9.813
	c0.055,0.99,0,9.256,0,9.256s6.61,19.047,8.29,20.813c1.682,1.767,1.556-3.772,1.556-3.772S62.842,506.509,60.657,481.305z"/>
<path fill="#F3E7DC" stroke="#3E2723" stroke-width="2.7896" stroke-miterlimit="10" d="M274.248,418.401
	c0,0,30.822-14.815,21.75-49.751c-13.265,14.693-18.848,14.86-18.848,14.86s-0.477-5.282-4.152-13.773
	c-4.81,9.151-7.293,15.899-16.059,20.983"/>
<path fill="none" stroke="#2F2018" stroke-width="2.8424" stroke-miterlimit="10" d="M240.576,375.63
	c0,0,26.062,17.219,36.762,51.188c9.808,31.125-3.655,49.325-3.655,49.325"/>
<path fill="none" stroke="#2F2018" stroke-width="2.8424" stroke-miterlimit="10" d="M71.472,524.543
	c-18.778-22.958-9.15-50.05-8.346-56.152c-1.613,3.666-4.187,9.149-14.271,17.062c-4.963-54.288,26.262-98.118,40.715-103.73"/>
<path fill="none" stroke="#2F2018" stroke-width="2.8424" stroke-miterlimit="10" d="M74.736,500.604
	c0,0-11.106,24.463,4.831,43.795c8.377,10.158,19.781,15.441,19.781,15.441"/>
<path fill="none" stroke="#2F2018" stroke-width="2.8424" stroke-miterlimit="10" d="M269.893,451.481
	c0,0,11.025,34.787-8.474,59.648"/>
<path fill="none" stroke="#2F2018" stroke-width="2.8424" stroke-miterlimit="10" d="M241.504,548.844
	c21.564-20.58,21.41-48.035,20.145-48.24"/>
<path fill="none" stroke="#2F2018" stroke-width="2.8424" stroke-miterlimit="10" d="M240.576,526.869
	c-1.395,31.177,11.634,68.404,6.514,73.99c-5.117,5.585-4.186,7.445-25.591,12.564c-21.407,5.118-31.177-7.445-31.177-7.445
	c-6.983-7.445,0-59.564,0-59.564"/>
<path fill="none" stroke="#2F2018" stroke-width="2.8424" stroke-miterlimit="10" d="M154.954,558.538
	c0,0,6.783,39.993-0.197,47.438c0,0-9.11,8.672-31.179,7.445c-21.975-1.219-24.922-7.604-26.792-10.705
	c-6.138-10.158,6.514-46.997,5.119-78.177"/>
<path fill="none" stroke="#2F2018" stroke-width="2.8424" stroke-miterlimit="10" d="M95.632,585.43
	c-21.976-1.221-26.693-7.605-28.564-10.7c-4.1-6.789,1.689-26.988,4.571-47.943"/>
<path fill="none" stroke="#2F2018" stroke-width="2.8424" stroke-miterlimit="10" d="M248.289,588.643
	c15.038-8.33,16.611-11.911,18.082-14.736c3.657-7.032-4.529-28.448-8.737-49.182"/>
<path fill="none" stroke="#2F2018" stroke-width="2.8424" stroke-miterlimit="10" d="M157.121,573.906c0,0,13.25,4.625,30.552,0.197
	"/>
<path fill="none" stroke="#2F2018" stroke-width="2.8424" stroke-miterlimit="10" d="M126.502,464.512
	c-1.021,16.597,8.441,29.783,8.441,29.783s1.396-8.843,5.585-18.151c4.587,27.459,17.381,29.785,17.381,29.785
	c1.076-5.115,6.041-14.659,6.041-19.543"/>
<g>
	<g>
		<path fill="#434343" d="M211.598,331.921c0.553,1.328,0.917,3.042-0.566,3.863c-1.864,1.032-0.198,3.887,1.668,2.854
			c2.766-1.529,3.229-4.858,2.083-7.594c-0.347-0.832-1.079-1.417-2.033-1.156C211.966,330.102,211.247,331.087,211.598,331.921
			L211.598,331.921z"/>
	</g>
</g>
<g>
	<g>
		<path fill="#434343" d="M126.909,330.408c0.555,1.327,0.919,3.043-0.562,3.865c-1.864,1.03-0.199,3.885,1.669,2.852
			c2.763-1.527,3.227-4.858,2.08-7.594c-0.347-0.83-1.078-1.415-2.032-1.154C127.278,328.59,126.56,329.576,126.909,330.408
			L126.909,330.408z"/>
	</g>
</g>
<circle fill="#616262" cx="127.18" cy="329.666" r="1.489"/>
<circle fill="#616262" cx="211.868" cy="331.156" r="1.49"/>
<path opacity="0.5" fill="#AE9485" enable-background="new    " d="M90.446,417.458c-6.605,10.465-8.697,15.379-9.779,28.391
	c-0.38,4.562,3.432,13.069,5.121,13.856c1.421,0.659,3.236,1.818,3.236,1.818s0.31-21.913,3.392-31.723
	c1.964-6.258,3.199-9.725,5.224-11.636c0.462-0.437,2.698-2.071,1.727-3.728C98.783,413.63,94.029,412.646,90.446,417.458
	L90.446,417.458z"/>
<path opacity="0.4" fill="#FECB8A" enable-background="new    " d="M89.833,202.084l-2.143-2.515c0,0-2.407,13.312,4.754,28.295
	c5.612,11.744,17.624,17.269,17.624,17.269s8.331-13.443,3.195-14.957c-5.135-1.514-11.011-7.887-11.011-7.887l-4.918-7.317
	l-7.659-11.007"/>
<path opacity="0.4" fill="#FECB8A" enable-background="new    " d="M233.381,192.862c0,0-2.364,25.288-28.519,49.564
	c0,0-7.573-3.088-8.479-6.593c-0.901-3.505,5.664-12.44,5.664-12.44l18.607-22.888l8.365-9.36"/>
<path opacity="0.4" fill="#FEDFA8" enable-background="new    " d="M91.225,203.774c0,0,1.559,11.816,9.895,20.621
	c3.196,3.376,5.391,6.426,8.122,7.936c4.311,2.386,0.581,6.667-2.142,4.71c-3.957-2.848-6.734-7.695-9.04-11.821
	c-3.765-6.732-3.657-6.575-6.965-18.488L91.225,203.774z"/>
<path opacity="0.4" fill="#FEDFA8" enable-background="new    " d="M230.009,190.849c0,0-7.467,15.145-17.3,25.936
	c-9.73,10.678-17.886,17.273-17.886,17.273l4.362,3.678c0,0,10.49-11.681,16.505-19.687c6.278-8.364,14.907-26.905,14.907-26.905
	L230.009,190.849z"/>
<path fill="none" stroke="#000000" stroke-width="2.7896" stroke-miterlimit="10" d="M196.486,230.909
	c-0.928,1.991-2.678,6.164,8.376,11.517c11.051,5.351,19.777,1.046,21.753-1.628c1.229-1.66,6.039-13.852,7.844-27.031
	c1.108-8.06,2.075-13.501-0.571-20.124c0,0-2.772-5.237-6.249-1.406C224.367,195.845,197.873,227.921,196.486,230.909z"/>
<path fill="none" stroke="#000000" stroke-width="2.7896" stroke-miterlimit="10" d="M113.653,231.026
	c1.646,0.371,1.86,9.771-5.118,15.471c-6.98,5.7-11.634,7.097-15.357,5.003s-11.11-5.102-13.612-22.609
	c-2.635-18.457,3.99-27.836,7.021-28.385c1.414-0.259,2.512,2.144,3.09,3.461C91.001,206.975,104.23,228.891,113.653,231.026z"/>
</svg>
