<?xml version="1.0" encoding="utf-8"?>
<!-- Generator: Adobe Illustrator 16.0.0, SVG Export Plug-In . SVG Version: 6.00 Build 0)  -->
<!DOCTYPE svg PUBLIC "-//W3C//DTD SVG 1.1//EN" "http://www.w3.org/Graphics/SVG/1.1/DTD/svg11.dtd">
<svg version="1.1" id="Layer_1" xmlns="http://www.w3.org/2000/svg" xmlns:xlink="http://www.w3.org/1999/xlink" x="0px" y="0px"
	 width="164.992px" height="253.41px" viewBox="176.597 403.09 164.992 253.41"
	 enable-background="new 176.597 403.09 164.992 253.41" xml:space="preserve">
<path fill="#6C5D46" stroke="#2F2018" stroke-width="1.234" stroke-miterlimit="10" d="M222.053,615.034
	c0,0-1.087,3.868,0.823,5.937c0.607,0.656,4.897,3.861,10.604,3.837l1.321-5.424"/>
<path fill="#6C5D46" stroke="#2F2018" stroke-width="1.234" stroke-miterlimit="10" d="M306.157,614.755
	c0,0,1.331,3.792-0.444,5.976c-0.47,0.58-2.511,2.942-6.771,3.956l-2.828-4.967"/>
<path fill="#6C5D46" stroke="#2F2018" stroke-width="1.234" stroke-miterlimit="10" d="M276.569,628.802
	c0,0-1.162,3.714,0.959,5.582c1.078,0.948,4.076,2.553,9.243,2.575c5.707,0.026,10.041-2.993,10.605-3.687
	c1.112-1.363-0.413-6.434-0.413-6.434"/>
<path fill="#6C5D46" stroke="#2F2018" stroke-width="1.234" stroke-miterlimit="10" d="M256.583,628.802
	c0,0,1.162,3.714-0.959,5.582c-1.077,0.948-4.075,2.553-9.243,2.575c-5.708,0.026-9.434-2.336-10.041-2.993
	c-1.91-2.066-0.46-6.059-0.46-6.059"/>
<path fill="#FFFFFF" d="M234.803,606.878c0,0-4.951-2.293-8.586-6.704c-2.333-2.832-3.332-5.914-3.627-8.759
	c-7.998-9.935-3.856-21.601-3.513-24.237c-0.7,1.589-1.816,3.972-6.196,7.406c-2.152-23.569,11.402-42.596,17.678-45.035
	l65.557-2.644c0,0,0.519,0.345,1.383,1.029c3.162,2.51,10.929,9.607,14.578,21.194c4.256,13.511-1.589,21.413-1.589,21.413
	l-0.304-0.005c-0.118,4.784-1.27,10.409-5.018,15.189c-0.714,4.308-2.91,10.902-8.646,16.378h-0.003
	c1.173,10.692,4.138,20.714,2.427,22.582c-2.222,2.423-1.819,3.231-11.112,5.452c-9.291,2.225-13.536-3.23-13.536-3.23
	c-1.489-1.587-1.515-7.863-1.153-13.835c-7.51,1.919-13.259-0.089-13.259-0.089l-0.061,0.006c0.531,5.263,0.81,12.021-0.966,13.918
	c0,0-3.955,3.765-13.534,3.23c-9.542-0.528-10.822-3.303-11.631-4.646C232.013,622.716,233.571,615.341,234.803,606.878z"/>
<g id="XMLID_1_">
	<g>
		
			<radialGradient id="SVGID_1_" cx="264.2158" cy="227.3853" r="76.9182" gradientTransform="matrix(1 0 0 -1 0 793)" gradientUnits="userSpaceOnUse">
			<stop  offset="0" style="stop-color:#FFF5EC"/>
			<stop  offset="0.1931" style="stop-color:#FDF3E8;stop-opacity:0.8649"/>
			<stop  offset="0.3555" style="stop-color:#F7EBDD;stop-opacity:0.7512"/>
			<stop  offset="0.5068" style="stop-color:#EFDFCD;stop-opacity:0.6453"/>
			<stop  offset="0.6513" style="stop-color:#E6D0B6;stop-opacity:0.5441"/>
			<stop  offset="0.7912" style="stop-color:#DABD9B;stop-opacity:0.4462"/>
			<stop  offset="0.9255" style="stop-color:#CCA77D;stop-opacity:0.3521"/>
			<stop  offset="1" style="stop-color:#C49A6C;stop-opacity:0.3"/>
		</radialGradient>
		<path fill="url(#SVGID_1_)" d="M274.297,626.908c-1.49-1.587-1.516-7.863-1.154-13.835c-7.51,1.919-13.259-0.089-13.259-0.089
			l-0.061,0.006c0.531,5.263,0.81,12.021-0.967,13.918c0,0-3.955,3.766-13.534,3.231c-9.542-0.527-10.822-3.303-11.631-4.646
			c-1.679-2.778-0.121-10.153,1.11-18.615c0,0-4.95-2.293-8.586-6.704c-2.333-2.832-3.332-5.914-3.627-8.76
			c-7.998-9.935-3.856-21.6-3.513-24.238c-0.7,1.591-1.816,3.973-6.196,7.408c-2.152-23.57,11.401-42.597,17.677-45.036
			l65.557-2.643c0,0,11.316,7.476,15.961,22.224c4.257,13.511-1.59,21.414-1.59,21.414l-0.304-0.006
			c-0.118,4.784-1.269,10.408-5.017,15.189c-0.715,4.308-2.911,10.902-8.646,16.378h-0.003c1.174,10.692,4.138,20.714,2.427,22.582
			c-2.221,2.422-1.82,3.231-11.111,5.453C278.541,632.365,274.297,626.908,274.297,626.908z"/>
	</g>
	<g>
		<path fill="none" stroke="#000000" stroke-width="0.1435" stroke-linecap="round" stroke-linejoin="round" d="M224.119,581.162
			c0,0-2.118,4.663-1.529,10.253c0.295,2.845,1.293,5.927,3.627,8.76c3.636,4.41,8.586,6.703,8.586,6.703"/>
		<path fill="none" stroke="#000000" stroke-width="0.1435" stroke-linecap="round" stroke-linejoin="round" d="M308.843,559.836
			c0,0,1.486,4.687,1.341,10.702c-0.118,4.783-1.27,10.409-5.017,15.189l-0.003,0.003"/>
		<path fill="none" stroke="#000000" stroke-width="0.1435" stroke-linecap="round" stroke-linejoin="round" d="M296.52,602.105
			c5.736-5.476,7.932-12.07,8.647-16.378c0.45-2.723,0.309-4.531,0.097-4.565"/>
		<path fill="none" stroke="#000000" stroke-width="0.1435" stroke-linecap="round" stroke-linejoin="round" d="M274.297,601.049
			c0,0-0.784,5.85-1.154,12.024c-0.362,5.972-0.336,12.248,1.154,13.835c0,0,4.244,5.456,13.537,3.231
			c9.292-2.221,8.89-3.031,11.111-5.452c1.71-1.869-1.254-11.89-2.427-22.582c-0.35-3.188-0.541-6.435-0.402-9.543"/>
		<path fill="none" stroke="#000000" stroke-width="0.1435" stroke-linecap="round" stroke-linejoin="round" d="M258.943,606.313
			c0,0,0.502,2.968,0.881,6.678c0.531,5.263,0.81,12.021-0.967,13.918c0,0-3.955,3.766-13.534,3.231
			c-9.542-0.527-10.822-3.303-11.631-4.646c-1.679-2.778-0.12-10.153,1.111-18.615c0.723-4.971,1.334-10.314,1.111-15.322"/>
		<path fill="none" stroke="#000000" stroke-width="0.1435" stroke-linecap="round" stroke-linejoin="round" d="M259.884,612.984
			c0,0,5.749,2.008,13.259,0.089c0.003-0.002,0.003-0.002,0.005-0.002"/>
		<path fill="none" stroke="#000000" stroke-width="0.1435" stroke-linecap="round" stroke-linejoin="round" d="M222.701,591.557
			c-0.038-0.047-0.078-0.096-0.112-0.142c-7.998-9.935-3.857-21.6-3.513-24.237c-0.7,1.589-1.816,3.972-6.196,7.406
			c-2.152-23.568,11.401-42.596,17.678-45.035l65.557-2.643c0,0,11.315,7.476,15.961,22.224c4.256,13.511-1.59,21.413-1.59,21.413"
			/>
	</g>
</g>
<path fill="#FFFFFF" d="M322.377,464.684c0,0-5.925,5.185-10.908,6.464c3.299-2.425,4.848-5.622,4.848-5.622
	s-11.784,5.353-22.369,4.66c-0.347-0.022-0.664-0.018-0.958,0.011c-5.424-6.854-13.043-12.487-22.49-14.55h0.001
	c-0.792-1.454-10.157-5.958-16.613,0.017c-10.537,2.204-17.814,8.56-23.223,17.767l0.005-0.013c0,0-5.467,2.827-12.942,0
	c-7.475-2.829-12.425-6.512-14.142-7.118c-1.524-0.537-2.021,1.616-2.021,2.627c0,1.01-0.674,13.536,6.195,17.979
	c6.002,3.884,13.351,2.828,14.938,2.626c-2.042,0.96-7.394,1.651-8.54,1.651c0,0,4.942,4.163,9.209,1.67
	c-0.591,3.447-0.821,6.827-0.778,10.111c-5.333,7.254-4.458,14.447-4.458,14.447s2.817-3.188,5.261-5.161
	c0.136,0.874,0.287,1.738,0.451,2.594c-0.823,3.986,0.55,8.427,0.55,8.427s0.286-0.916,0.923-2.053
	c0.205,0.763,0.416,1.515,0.632,2.255c2.887,9.903,18.384,9.999,21.535,10.552c2.687,0.47,10.354,2.688,14.693,3.021
	c4.037,0.31,5.921-1.367,10.77-2.782c4.849-1.414,18.586-2.238,23.165-7.356c1.271-1.42,2.521-3.871,3.595-6.994
	c1.911,0.736,4.08,0.324,6.608,2.146c-0.593-4.89-2.898-7.908-4.603-9.919c0.064-0.348,0.126-0.697,0.187-1.051
	c2.549,1.046,4.01,3.091,4.01,3.091s0.908-7.83-3.111-11.535c0.146-3.27,0.056-6.618-0.338-9.894
	c0.143,0.023,0.279,0.03,0.405,0.015c8.937-3.637,10.215-6.465,10.215-6.465s-4.106,1.481-7.474,0.808
	C318.203,483.674,322.377,464.684,322.377,464.684z"/>
<radialGradient id="SVGID_2_" cx="261.9639" cy="298.1348" r="52.1162" gradientTransform="matrix(1 0 0 -1 0 793)" gradientUnits="userSpaceOnUse">
	<stop  offset="0" style="stop-color:#FFF5EC"/>
	<stop  offset="0.1931" style="stop-color:#FDF3E8;stop-opacity:0.8745"/>
	<stop  offset="0.3555" style="stop-color:#F7EBDD;stop-opacity:0.7689"/>
	<stop  offset="0.5068" style="stop-color:#EFDFCD;stop-opacity:0.6706"/>
	<stop  offset="0.6513" style="stop-color:#E6D0B6;stop-opacity:0.5766"/>
	<stop  offset="0.7912" style="stop-color:#DABD9B;stop-opacity:0.4857"/>
	<stop  offset="0.9255" style="stop-color:#CCA77D;stop-opacity:0.3984"/>
	<stop  offset="1" style="stop-color:#C49A6C;stop-opacity:0.35"/>
</radialGradient>
<path fill="url(#SVGID_2_)" stroke="#EEEEEE" stroke-width="0.287" stroke-miterlimit="10" d="M322.379,464.684
	c0,0-5.927,5.185-10.91,6.464c3.299-2.425,4.848-5.622,4.848-5.622s-11.784,5.353-22.369,4.66c-0.347-0.022-0.664-0.018-0.958,0.011
	c-5.424-6.854-13.043-12.487-22.49-14.55h0.001c-0.792-1.454-10.157-5.958-16.613,0.017c-10.537,2.204-17.814,8.56-23.223,17.767
	l0.005-0.013c0,0-5.467,2.827-12.942,0c-7.475-2.829-12.425-6.512-14.142-7.118c-1.524-0.537-2.021,1.616-2.021,2.627
	c0,1.01-0.674,13.536,6.195,17.979c6.002,3.884,13.351,2.828,14.938,2.626c-2.042,0.96-7.394,1.651-8.54,1.651
	c0,0,4.942,4.163,9.209,1.67c-0.591,3.447-0.821,6.827-0.778,10.111c-5.333,7.254-4.458,14.447-4.458,14.447
	s2.817-3.188,5.261-5.161c0.136,0.874,0.287,1.738,0.451,2.594c-0.823,3.986,0.55,8.427,0.55,8.427s0.286-0.916,0.923-2.053
	c0.205,0.763,0.416,1.515,0.632,2.255c2.887,9.902,18.384,9.999,21.535,10.552c2.687,0.47,10.354,2.688,14.693,3.021
	c4.037,0.31,5.921-1.368,10.77-2.782c4.849-1.415,18.586-2.238,23.165-7.356c1.271-1.42,2.521-3.871,3.595-6.994
	c1.912,0.736,4.081,0.324,6.608,2.146c-0.592-4.89-2.898-7.908-4.603-9.919c0.064-0.348,0.126-0.697,0.187-1.051
	c2.549,1.047,4.01,3.091,4.01,3.091s0.908-7.83-3.11-11.535c0.145-3.27,0.055-6.618-0.339-9.894c0.143,0.023,0.279,0.03,0.405,0.015
	c8.937-3.637,10.215-6.465,10.215-6.465s-4.106,1.481-7.474,0.808C318.203,483.674,322.379,464.684,322.379,464.684z"/>
<path fill="none" stroke="#000000" stroke-width="1.2121" stroke-miterlimit="10" d="M223.844,514.844
	c-0.164-0.854-0.315-1.72-0.452-2.594"/>
<path fill="#F3E7DC" d="M220.846,613.343c0.813,1.344,2.86,4.115,12.401,4.646l0.554-4.545l1.059-6.979l-4.305-2.209l-5.134-5.122
	l-2.591-6.604C221.58,601.627,219.066,610.396,220.846,613.343z"/>
<path fill="none" stroke="#000000" stroke-width="1.2121" stroke-miterlimit="10" d="M301.903,511.088
	c-0.061,0.353-0.124,0.703-0.188,1.051"/>
<path fill="#F3E7DC" d="M303.441,591.634l-7.327,3.537l3.271,24.212c6.527-3.616,7.211-5.171,7.849-6.397
	C308.823,609.933,305.267,600.636,303.441,591.634z"/>
<path fill="#DDBA9C" d="M291.131,530.063"/>
<path opacity="0.3" fill="#C49A6C" enable-background="new    " d="M290.035,530.625l4.295-1.493c0,0,3.442,1.006,8.504,8.13
	c8.644,10.507,9.188,28.981,9.188,28.981l-1.866-1.435l-2.48,15.067l-2.45,5.165l-8.744,17.368c0,0-0.623-11.62,1.417-15.932
	c2.038-4.311,6.973-20.984,6.973-20.984s-3.841,5.05-5.443,5.353C307.682,551.862,290.035,530.625,290.035,530.625"/>
<path opacity="0.5" fill="#AE9485" enable-background="new    " d="M310.149,570.42l0.304,0.006c0,0,5.846-7.903,1.59-21.414
	c-3.649-11.586-11.417-18.685-14.579-21.195c-0.74-0.588-1.225-0.922-1.349-1.006l-2.216,2.456c0,0,14.958,13.197,15.941,28.23
	c0.729,11.182-0.982,1.734-3.521-1.402c1.711,8.646,2.743,19.02-0.729,26.277c0,0-0.739-2.826-1.147-4.972
	c-2.175,11.76-3.597,15.116-7.925,20.378c-0.076,1.336,0.033,2.744,0.215,3.801c4.997-5.261,7.73-11.922,8.4-15.971
	C308.881,580.828,310.031,575.204,310.149,570.42z"/>
<path fill="none" stroke="#000000" stroke-width="1.2121" stroke-miterlimit="10" d="M292.991,470.195
	c0.293-0.028,0.611-0.032,0.957-0.01c10.585,0.692,22.369-4.66,22.369-4.66s-1.549,3.197-4.848,5.622
	c4.983-1.279,10.91-6.464,10.91-6.464s-4.176,18.99-16.769,22.424c3.368,0.674,7.475-0.808,7.475-0.808s-1.279,2.828-10.216,6.465
	c-0.126,0.016-0.262,0.011-0.405-0.013"/>
<path fill="none" stroke="#000000" stroke-width="1.2121" stroke-miterlimit="10" d="M297.934,518.725
	c2.322,2.424,5.04,0.924,8.383,3.333c-0.761-6.283-4.354-9.478-5.858-11.414c3.433,0.707,5.454,3.535,5.454,3.535
	s1.011-8.688-3.787-12.091"/>
<path fill="none" stroke="#000000" stroke-width="1.2121" stroke-miterlimit="10" d="M225.951,499.229
	c-9.029,8.283-7.817,18.183-7.817,18.183s5.534-6.262,7.817-6.666c-4.181,4.04-1.555,12.524-1.555,12.524s1.488-4.77,5.253-6.062
	c-1.061,4.142,0.809,6.668,0.809,6.668s1.313-5.556,3.232-5.859"/>
<path opacity="0.3" fill="#FFFFFF" enable-background="new    " d="M298.693,495.854c0,7.271-2.054,17.998-5.704,23.675
	c-6.402,9.962-17.579,12.599-30.215,12.599c-11.712,0-24.347-3.458-30.904-12.216c-4.55-6.078-5.015-15.852-5.015-24.058
	c0-20.033,16.082-36.272,35.919-36.272C282.613,459.582,298.693,475.821,298.693,495.854z"/>
<circle cx="283.202" cy="508.927" r="3.815"/>
<circle cx="245.82" cy="508.326" r="3.815"/>
<path d="M262.18,522.052c1.261,0.098,2.593-0.222,3.272-0.502c0.934-0.387,2.958-2.726,4.409-1.809
	c1.33,0.84-0.288,1.616-0.894,1.97c-0.606,0.354-1.746,0.317-2.456,0.472c-0.662,0.145-4.171,1.314-4.171,1.314
	s-0.843-0.372-1.802-0.727c-0.96-0.354-1.585-0.871-3.101-0.713s-0.978,0.275-2.012,0.174c-1.034-0.101-1.656-0.794-0.951-1.479
	c0.814-0.793,2.691-0.081,3.364,0.188C258.512,521.21,260.918,521.955,262.18,522.052z"/>
<path fill="none" stroke="#000000" stroke-width="1.2121" stroke-miterlimit="10" d="M262.339,522.771c0,0-0.63,4.154,0.386,4.154
	c1.017,0,5.883,1.548,8.652-0.518c1.236-0.922,0.404-1.628,1.01-2.531"/>
<path fill="none" stroke="#000000" stroke-width="1.2121" stroke-miterlimit="10" d="M253.498,524.646c0,0,0.707,2.82,2.021,2.82
	c1.313,0,5.849,0.201,6.662-0.81"/>
<path fill="none" stroke="#000000" stroke-width="1.2121" stroke-miterlimit="10" d="M299.71,519.912
	c-1.073,3.123-2.325,5.574-3.595,6.994c-4.579,5.118-18.317,5.941-23.166,7.356c-4.848,1.414-6.733,3.092-10.769,2.782
	c-4.339-0.333-12.007-2.551-14.694-3.021c-3.151-0.553-18.647-0.648-21.535-10.552c-0.216-0.74-0.427-1.494-0.633-2.256"/>
<path fill="none" stroke="#000000" stroke-width="1.2121" stroke-miterlimit="10" d="M269.441,455.431
	c17.758,3.323,29.281,19.216,32.249,32.705c1.029,4.681,1.329,9.681,1.114,14.508"/>
<path fill="none" stroke="#000000" stroke-width="1.2121" stroke-miterlimit="10" d="M222.587,502.965
	c-0.091-7.091,1.078-14.621,4.435-22.322c5.716-13.111,13.799-22.293,26.963-25.007"/>
<path fill="#965545" d="M276.973,464.077c-0.403,0.864-1.163,2.676,3.636,5c4.798,2.323,8.586,0.454,9.444-0.707
	c0.534-0.721,2.622-6.014,3.405-11.735c0.481-3.499,0.901-5.861-0.248-8.736c0,0-1.204-2.273-2.713-0.61
	C289.077,448.854,277.575,462.78,276.973,464.077z"/>
<path fill="#965545" d="M241.012,464.128c0.715,0.161,0.808,4.242-2.222,6.717c-3.03,2.475-5.051,3.081-6.667,2.172
	s-4.823-2.215-5.91-9.815c-1.144-8.013,1.732-12.085,3.048-12.323c0.614-0.112,1.09,0.931,1.341,1.503
	C231.178,453.687,236.921,463.201,241.012,464.128z"/>
<path fill="none" stroke="#000000" stroke-width="1.2121" stroke-miterlimit="10" d="M270.502,455.646
	c-1.031-1.894-16.61-8.967-21.358,8.693"/>
<path fill="none" stroke="#000000" stroke-width="0.8081" stroke-miterlimit="10" d="M252.6,462.595
	c-4.297,0.876-8.305,5.825-5.476,14.815c0,0,4.142-5.185,7.775-6.263c-1.411,1.616-4.038,4.747-1.411,10.708
	c0,0,3.771-6.971,4.849-7.476c-0.554,0.748-1.061,2.777,0.152,4.395c0,0,1.616-3.132,3.03-4.293"/>
<path fill="none" stroke="#000000" stroke-width="0.8081" stroke-miterlimit="10" d="M224.85,486.591
	c-3.991,1.707-9.343-1.2-13.03-2.211c1.843-0.581,1.742-0.43,2.929-0.657c3.031-0.579,4.717-1.067,5.758-1.464
	c-0.809,0.052-3.838,1.281-6.229,0.927c-2.391-0.354-4.226-2.694-5.993-3.705c1.162-0.051,4.055-0.252,5.008-0.712
	c-0.919,0.15-2.382,0.226-3.494-0.146c-2.852-0.956-5.37-6.382-5.37-6.382s1.491,0.423,1.869,0.434
	c-0.885-0.479-4.197-4.06-4.102-5.542"/>
<path fill="none" stroke="#000000" stroke-width="1.2121" stroke-miterlimit="10" d="M230.671,473.417c0,0-5.466,2.827-12.942,0
	c-7.475-2.829-12.424-6.512-14.142-7.118c-1.524-0.537-2.021,1.616-2.021,2.627c0,1.01-0.673,13.536,6.195,17.979
	c6.002,3.884,13.351,2.828,14.937,2.627c-2.042,0.959-7.395,1.65-8.54,1.65c0,0,4.98,4.196,9.258,1.644"/>
<path opacity="0.3" fill="#C49A6C" enable-background="new    " d="M273.944,603.973c-2.346,2.008-10.804,3.45-15.356,2.905
	l1.295,3.996h13.066L273.944,603.973z"/>
<path opacity="0.5" fill="#AE9485" enable-background="new    " d="M273.944,607.989c0,0-13.538,2.518-14.495,1.784
	c-0.956-0.731,0.67,3.211,0.67,3.211l6.613,0.92l6.218-1.323"/>
<path opacity="0.3" fill="#C49A6C" enable-background="new    " d="M219.463,568.866c0,0-0.336,10.057,2.849,16.864
	c0.153,0.329,0.42,0.923,0.42,0.923l-0.248,3.069l-3.739-8.563l-0.741-8.377L219.463,568.866z"/>
<path opacity="0.3" fill="#C49A6C" enable-background="new    " d="M223.975,582.641c0,0,0.553,12.754,11.766,16.356l-1.018,4.976
	c0,0-11.844-10.129-11.759-13.673c-0.873-2.08-0.683-2.589-0.561-4.124C222.592,583.767,223.975,582.641,223.975,582.641z"/>
<path opacity="0.5" fill="#AE9485" enable-background="new    " d="M222.914,587.555c0,0,4.255,14.032,12.744,14.319l-0.42,5.005
	c0,0-7.041-4.335-8.188-6.439c-1.148-2.105-4.878-6.555-4.544-9.855C222.84,587.284,222.914,587.555,222.914,587.555z"/>
<path opacity="0.5" fill="#AE9485" enable-background="new    " d="M218.004,572.783c0,0-0.023,3.83,0,4.261
	c0.024,0.43,0,4.019,0,4.019s2.87,8.269,3.599,9.035c0.73,0.767,0.675-1.638,0.675-1.638S218.953,583.726,218.004,572.783z"/>
<path fill="#F3E7DC" stroke="#3E2723" stroke-width="1.2111" stroke-miterlimit="10" d="M310.732,545.475
	c0,0,13.381-6.432,9.442-21.599c-5.759,6.379-8.183,6.451-8.183,6.451s-0.207-2.293-1.803-5.979
	c-2.088,3.973-3.166,6.902-6.972,9.109"/>
<path fill="none" stroke="#2F2018" stroke-width="1.234" stroke-miterlimit="10" d="M296.114,526.906c0,0,11.314,7.476,15.96,22.223
	c4.258,13.513-1.587,21.414-1.587,21.414"/>
<path fill="none" stroke="#2F2018" stroke-width="1.234" stroke-miterlimit="10" d="M222.7,591.555
	c-8.152-9.967-3.973-21.729-3.624-24.378c-0.7,1.592-1.818,3.973-6.195,7.407c-2.155-23.568,11.401-42.597,17.676-45.033"/>
<path fill="none" stroke="#2F2018" stroke-width="1.234" stroke-miterlimit="10" d="M224.117,581.162c0,0-4.822,10.62,2.097,19.013
	c3.637,4.41,8.587,6.704,8.587,6.704"/>
<path fill="none" stroke="#2F2018" stroke-width="1.234" stroke-miterlimit="10" d="M308.842,559.836c0,0,4.786,15.103-3.679,25.896
	"/>
<path fill="none" stroke="#2F2018" stroke-width="1.234" stroke-miterlimit="10" d="M296.517,602.104
	c9.362-8.935,9.295-20.854,8.746-20.942"/>
<path fill="none" stroke="#2F2018" stroke-width="1.234" stroke-miterlimit="10" d="M296.114,592.564
	c-0.605,13.535,5.051,29.697,2.828,32.122c-2.222,2.425-1.817,3.232-11.11,5.455c-9.293,2.222-13.535-3.232-13.535-3.232
	c-3.032-3.232,0-25.859,0-25.859"/>
<path fill="none" stroke="#2F2018" stroke-width="1.234" stroke-miterlimit="10" d="M258.942,606.313c0,0,2.945,17.362-0.085,20.595
	c0,0-3.955,3.765-13.536,3.232c-9.54-0.529-10.819-3.302-11.631-4.647c-2.665-4.41,2.828-20.403,2.223-33.939"/>
<path fill="none" stroke="#2F2018" stroke-width="1.234" stroke-miterlimit="10" d="M233.188,617.988
	c-9.541-0.53-11.588-3.302-12.401-4.646c-1.78-2.947,0.733-11.717,1.984-20.814"/>
<path fill="none" stroke="#2F2018" stroke-width="1.234" stroke-miterlimit="10" d="M299.462,619.383
	c6.528-3.616,7.211-5.171,7.85-6.397c1.588-3.053-1.966-12.351-3.793-21.352"/>
<path fill="none" stroke="#2F2018" stroke-width="1.234" stroke-miterlimit="10" d="M259.883,612.985c0,0,5.752,2.008,13.264,0.086"
	/>
<path fill="none" stroke="#2F2018" stroke-width="1.234" stroke-miterlimit="10" d="M246.59,565.493
	c-0.443,7.205,3.665,12.93,3.665,12.93s0.606-3.839,2.425-7.88c1.991,11.921,7.546,12.931,7.546,12.931
	c0.467-2.221,2.623-6.364,2.623-8.484"/>
<g>
	<g>
		<path fill="#434343" d="M283.534,507.931c0.24,0.576,0.398,1.32-0.246,1.677c-0.809,0.448-0.086,1.688,0.724,1.239
			c1.201-0.664,1.402-2.109,0.904-3.297c-0.15-0.361-0.468-0.615-0.882-0.502C283.693,507.141,283.381,507.568,283.534,507.931
			L283.534,507.931z"/>
	</g>
</g>
<g>
	<g>
		<path fill="#434343" d="M246.767,507.273c0.241,0.576,0.399,1.321-0.244,1.678c-0.809,0.447-0.086,1.687,0.725,1.238
			c1.2-0.663,1.401-2.109,0.903-3.297c-0.151-0.36-0.468-0.614-0.882-0.501C246.927,506.484,246.615,506.912,246.767,507.273
			L246.767,507.273z"/>
	</g>
</g>
<circle fill="#616262" cx="246.885" cy="506.951" r="0.646"/>
<circle fill="#616262" cx="283.651" cy="507.598" r="0.647"/>
<path opacity="0.5" fill="#AE9485" enable-background="new    " d="M230.937,545.065c-2.868,4.543-3.776,6.677-4.246,12.325
	c-0.165,1.98,1.49,5.674,2.223,6.016c0.617,0.286,1.405,0.789,1.405,0.789s0.134-9.513,1.473-13.771
	c0.853-2.717,1.389-4.222,2.268-5.052c0.201-0.189,1.171-0.899,0.75-1.618C234.557,543.403,232.493,542.977,230.937,545.065
	L230.937,545.065z"/>
<path opacity="0.4" fill="#FECB8A" enable-background="new    " d="M230.671,451.563l-0.93-1.092c0,0-1.045,5.779,2.064,12.284
	c2.437,5.099,7.651,7.497,7.651,7.497s3.617-5.836,1.387-6.493c-2.229-0.657-4.78-3.424-4.78-3.424l-2.135-3.177l-3.325-4.778"/>
<path opacity="0.4" fill="#FECB8A" enable-background="new    " d="M292.991,447.56c0,0-1.026,10.979-12.381,21.518
	c0,0-3.288-1.341-3.681-2.862c-0.391-1.521,2.459-5.4,2.459-5.4l8.078-9.937l3.632-4.063"/>
<path opacity="0.4" fill="#FEDFA8" enable-background="new    " d="M231.275,452.297c0,0,0.677,5.13,4.295,8.952
	c1.388,1.466,2.34,2.79,3.526,3.445c1.872,1.036,0.252,2.895-0.93,2.045c-1.718-1.236-2.923-3.341-3.924-5.132
	c-1.634-2.923-1.588-2.854-3.024-8.026L231.275,452.297z"/>
<path opacity="0.4" fill="#FEDFA8" enable-background="new    " d="M291.526,446.686c0,0-3.242,6.575-7.51,11.26
	c-4.224,4.636-7.765,7.499-7.765,7.499l1.894,1.597c0,0,4.554-5.071,7.166-8.547c2.726-3.631,6.472-11.681,6.472-11.681
	L291.526,446.686z"/>
<path fill="none" stroke="#000000" stroke-width="1.2111" stroke-miterlimit="10" d="M276.973,464.077
	c-0.403,0.864-1.163,2.676,3.636,5c4.798,2.323,8.586,0.454,9.444-0.707c0.534-0.721,2.622-6.014,3.405-11.735
	c0.481-3.499,0.901-5.861-0.248-8.736c0,0-1.204-2.273-2.713-0.61C289.077,448.854,277.575,462.78,276.973,464.077z"/>
<path fill="none" stroke="#000000" stroke-width="1.2111" stroke-miterlimit="10" d="M241.012,464.128
	c0.715,0.161,0.808,4.242-2.222,6.717c-3.03,2.475-5.051,3.081-6.667,2.172s-4.823-2.215-5.91-9.815
	c-1.144-8.013,1.732-12.085,3.048-12.323c0.614-0.112,1.09,0.931,1.341,1.503C231.178,453.687,236.921,463.201,241.012,464.128z"/>
</svg>
